/* XPM */
static char * eaw_xpm[] = {
"64 64 533 2",
"  	c #070602",
". 	c #0A0904",
"+ 	c #111009",
"@ 	c #101008",
"# 	c #18180F",
"$ 	c #191910",
"% 	c #252419",
"& 	c #26241A",
"* 	c #1B1B11",
"= 	c #1A1A10",
"- 	c #1B1A11",
"; 	c #14150D",
"> 	c #14140C",
", 	c #0F0F08",
"' 	c #0F0E08",
") 	c #0D0C06",
"! 	c #0D0C07",
"~ 	c #101009",
"{ 	c #090704",
"] 	c #0C0A06",
"^ 	c #0B0A05",
"/ 	c #121109",
"( 	c #13120B",
"_ 	c #0E0D07",
": 	c #0A0805",
"< 	c #0A0905",
"[ 	c #0B0905",
"} 	c #090804",
"| 	c #0C0B06",
"1 	c #0C0A05",
"2 	c #090703",
"3 	c #090603",
"4 	c #100F08",
"5 	c #0E0E08",
"6 	c #12120A",
"7 	c #0E0E07",
"8 	c #100F09",
"9 	c #14120E",
"0 	c #14120D",
"a 	c #232319",
"b 	c #212217",
"c 	c #363526",
"d 	c #524F3D",
"e 	c #504D3C",
"f 	c #3A3828",
"g 	c #393828",
"h 	c #313122",
"i 	c #222217",
"j 	c #212117",
"k 	c #1D1D15",
"l 	c #1D1C15",
"m 	c #222319",
"n 	c #100B0A",
"o 	c #0F0909",
"p 	c #181610",
"q 	c #191611",
"r 	c #2A2B1F",
"s 	c #2B2B1F",
"t 	c #202017",
"u 	c #212018",
"v 	c #14110D",
"w 	c #13110D",
"x 	c #110D0B",
"y 	c #120D0B",
"z 	c #100D0A",
"A 	c #1A1813",
"B 	c #191812",
"C 	c #191712",
"D 	c #1A1812",
"E 	c #0E0909",
"F 	c #1A1913",
"G 	c #1A1912",
"H 	c #1B1B14",
"I 	c #1B1A13",
"J 	c #222318",
"K 	c #212218",
"L 	c #2A2B1E",
"M 	c #2C2C1F",
"N 	c #1F1E16",
"O 	c #1E1E15",
"P 	c #1E1D15",
"Q 	c #2B2C1F",
"R 	c #1E1E16",
"S 	c #1F1F17",
"T 	c #090803",
"U 	c #16140F",
"V 	c #25251A",
"W 	c #242419",
"X 	c #343425",
"Y 	c #4E4B3A",
"Z 	c #373626",
"` 	c #373627",
" .	c #3E3C2D",
"..	c #3E3C2C",
"+.	c #343324",
"@.	c #26261B",
"#.	c #25251B",
"$.	c #202018",
"%.	c #212017",
"&.	c #212118",
"*.	c #0F0B0A",
"=.	c #191711",
"-.	c #191811",
";.	c #29291E",
">.	c #292A1E",
",.	c #161410",
"'.	c #15120E",
").	c #130F0C",
"!.	c #14100D",
"~.	c #12100C",
"{.	c #1B1913",
"].	c #1F1F16",
"^.	c #27271C",
"/.	c #26271C",
"(.	c #2C2D20",
"_.	c #2D2D20",
":.	c #24241A",
"<.	c #23231A",
"[.	c #222118",
"}.	c #252519",
"|.	c #3B3A2A",
"1.	c #393929",
"2.	c #26261A",
"3.	c #252619",
"4.	c #2E2F21",
"5.	c #2E2E20",
"6.	c #303022",
"7.	c #42402F",
"8.	c #41402F",
"9.	c #3D3C2C",
"0.	c #3C3B2C",
"a.	c #333224",
"b.	c #13100C",
"c.	c #0F0A09",
"d.	c #15130E",
"e.	c #1D1D14",
"f.	c #29291C",
"g.	c #2A2A1D",
"h.	c #1F1E15",
"i.	c #202016",
"j.	c #222218",
"k.	c #202117",
"l.	c #373728",
"m.	c #0D0808",
"n.	c #13110C",
"o.	c #313022",
"p.	c #323122",
"q.	c #383727",
"r.	c #3C3B2B",
"s.	c #333324",
"t.	c #343325",
"u.	c #1C1C14",
"v.	c #1D1C14",
"w.	c #070502",
"x.	c #242519",
"y.	c #242418",
"z.	c #2F2F21",
"A.	c #323223",
"B.	c #4D4A39",
"C.	c #403E2D",
"D.	c #3F3D2D",
"E.	c #3D3B2B",
"F.	c #343424",
"G.	c #16130F",
"H.	c #120E0B",
"I.	c #1E1D16",
"J.	c #1F2015",
"K.	c #363627",
"L.	c #373727",
"M.	c #313123",
"N.	c #363626",
"O.	c #3E3D2C",
"P.	c #29291D",
"Q.	c #0A0803",
"R.	c #27281C",
"S.	c #26271A",
"T.	c #4C4938",
"U.	c #4C4A39",
"V.	c #3F3E2E",
"W.	c #454332",
"X.	c #444231",
"Y.	c #363525",
"Z.	c #4A4837",
"`.	c #494736",
" +	c #201F17",
".+	c #2A2B1D",
"++	c #303122",
"@+	c #444333",
"#+	c #454434",
"$+	c #333323",
"%+	c #181511",
"&+	c #16130E",
"*+	c #393928",
"=+	c #555240",
"-+	c #434130",
";+	c #434230",
">+	c #434231",
",+	c #444331",
"'+	c #454433",
")+	c #060601",
"!+	c #26271B",
"~+	c #4B4837",
"{+	c #4B4938",
"]+	c #3E3D2D",
"^+	c #403E2E",
"/+	c #474534",
"(+	c #1C1A13",
"_+	c #120C0B",
":+	c #2D2E20",
"<+	c #3E3D2E",
"[+	c #27281B",
"}+	c #27271B",
"|+	c #464534",
"1+	c #333325",
"2+	c #383827",
"3+	c #575341",
"4+	c #414030",
"5+	c #424130",
"6+	c #434131",
"7+	c #1B1B13",
"8+	c #1C1B14",
"9+	c #090904",
"0+	c #060502",
"a+	c #353527",
"b+	c #353526",
"c+	c #363628",
"d+	c #53503F",
"e+	c #534F3E",
"f+	c #3A3929",
"g+	c #2C2C1E",
"h+	c #2D2E21",
"i+	c #1D1B15",
"j+	c #302F21",
"k+	c #303021",
"l+	c #28291C",
"m+	c #28281C",
"n+	c #2B2B1E",
"o+	c #27271A",
"p+	c #2F3022",
"q+	c #393829",
"r+	c #2D2C1E",
"s+	c #2E2F22",
"t+	c #1D1B14",
"u+	c #130E0C",
"v+	c #120D0C",
"w+	c #212016",
"x+	c #0C0809",
"y+	c #0B0808",
"z+	c #1C1913",
"A+	c #191710",
"B+	c #2B2C1E",
"C+	c #232318",
"D+	c #303123",
"E+	c #181711",
"F+	c #353425",
"G+	c #1E1D14",
"H+	c #201F16",
"I+	c #0E0A0A",
"J+	c #2A2A1F",
"K+	c #202015",
"L+	c #383828",
"M+	c #28291D",
"N+	c #0A0707",
"O+	c #323224",
"P+	c #2A2A1E",
"Q+	c #303023",
"R+	c #232419",
"S+	c #15110E",
"T+	c #080603",
"U+	c #26261C",
"V+	c #25261B",
"W+	c #363527",
"X+	c #2E2E21",
"Y+	c #2F3021",
"Z+	c #3A392A",
"`+	c #0A0808",
" @	c #090707",
".@	c #292A1D",
"+@	c #13100D",
"@@	c #0F0A0A",
"#@	c #0F090A",
"$@	c #070601",
"%@	c #181611",
"&@	c #171611",
"*@	c #171510",
"=@	c #1B1A14",
"-@	c #1B1A12",
";@	c #333425",
">@	c #2B2C20",
",@	c #0C0808",
"'@	c #0D0909",
")@	c #1F1E17",
"!@	c #15130F",
"~@	c #0E0A09",
"{@	c #0E0C09",
"]@	c #1E1F16",
"^@	c #24251A",
"/@	c #27281D",
"(@	c #161510",
"_@	c #1A1712",
":@	c #2D2E22",
"<@	c #0D0809",
"[@	c #1A1711",
"}@	c #0C0909",
"|@	c #0B0908",
"1@	c #15140F",
"2@	c #16120F",
"3@	c #202118",
"4@	c #1C1A14",
"5@	c #24251B",
"6@	c #1A1A13",
"7@	c #0A0708",
"8@	c #100C0B",
"9@	c #110C0B",
"0@	c #1C1B13",
"a@	c #1C1B15",
"b@	c #151210",
"c@	c #161210",
"d@	c #100A0B",
"e@	c #100A0A",
"f@	c #0E090A",
"g@	c #14110E",
"h@	c #13120E",
"i@	c #0A0807",
"j@	c #120F0C",
"k@	c #1F1D16",
"l@	c #1E1C15",
"m@	c #14130E",
"n@	c #17140F",
"o@	c #171311",
"p@	c #13110E",
"q@	c #0D0A09",
"r@	c #0C0A09",
"s@	c #12100D",
"t@	c #110E0B",
"u@	c #0E0C0A",
"v@	c #0E0C0B",
"w@	c #100B0B",
"x@	c #0F0E0B",
"y@	c #100E0B",
"z@	c #0F0C0A",
"A@	c #090807",
"B@	c #120E0C",
"C@	c #181712",
"D@	c #120F0D",
"E@	c #100F0C",
"F@	c #080706",
"G@	c #090706",
"H@	c #0C0908",
"I@	c #0D0B09",
"J@	c #11110D",
"K@	c #0D0A0A",
"L@	c #12110D",
"M@	c #100D0B",
"N@	c #0B0809",
"O@	c #110F0C",
"P@	c #1D1D16",
"Q@	c #13120D",
"R@	c #100C0A",
"S@	c #0F0D0B",
"T@	c #0F0B0B",
"U@	c #0D0A08",
"V@	c #11100C",
"W@	c #080703",
"X@	c #0B0707",
"Y@	c #0A0706",
"Z@	c #1A1811",
"`@	c #110E0A",
" #	c #0F0A0B",
".#	c #110E0C",
"+#	c #12110C",
"@#	c #0E0908",
"##	c #100C0C",
"$#	c #120F0B",
"%#	c #0F0C09",
"&#	c #151310",
"*#	c #0C0A08",
"=#	c #171511",
"-#	c #110F09",
";#	c #14130F",
">#	c #090606",
",#	c #090607",
"'#	c #1C1914",
")#	c #110D0C",
"!#	c #1B1812",
"~#	c #0E0809",
"{#	c #413F2F",
"]#	c #12110A",
"^#	c #1B1912",
"/#	c #302F22",
"(#	c #2F2F22",
"_#	c #181510",
":#	c #383728",
"<#	c #403F2E",
"[#	c #444332",
"}#	c #3B3929",
"|#	c #424030",
"1#	c #15140C",
"2#	c #130D0C",
"3#	c #313223",
"4#	c #171410",
"5#	c #16140E",
"6#	c #353525",
"7#	c #353324",
"8#	c #3A3928",
"9#	c #383729",
"0#	c #171610",
"a#	c #17150F",
"b#	c #474634",
"c#	c #16150D",
"d#	c #2C2C20",
"e#	c #140F0D",
"f#	c #383829",
"g#	c #242319",
"h#	c #1A1A12",
"i#	c #292A1F",
"j#	c #444232",
"k#	c #121009",
"l#	c #3A3A2A",
"m#	c #0E0B0A",
"n#	c #110C0C",
"o#	c #120C0C",
"p#	c #25261A",
"q#	c #28281D",
"r#	c #232218",
"s#	c #130F0D",
"t#	c #222219",
"u#	c #0C0B05",
"v#	c #1D1B13",
"w#	c #232219",
"x#	c #23241A",
"y#	c #15140E",
"z#	c #2C2B1E",
"A#	c #2F2F20",
"B#	c #0F0B09",
"C#	c #0D0908",
"D#	c #0F0D0A",
"E#	c #110F0B",
"F#	c #211F17",
"G#	c #1F1D15",
"H#	c #191610",
"I#	c #1C1812",
"J#	c #0E0B09",
"K#	c #181710",
"L#	c #28271C",
"M#	c #15120F",
"N#	c #0D0B0A",
"O#	c #0F0C0B",
"P#	c #0B0807",
"Q#	c #0A0804",
"R#	c #25271C",
"S#	c #080602",
"T#	c #100A09",
"U#	c #100F0B",
"V#	c #343426",
"W#	c #3C3A2A",
"X#	c #2E2D1F",
"Y#	c #0B0708",
"Z#	c #110B0B",
"`#	c #0E0A0B",
" $	c #1D1A14",
".$	c #2C2B1F",
"+$	c #27261B",
"@$	c #313023",
"#$	c #0B0909",
"$$	c #2D2D1F",
"%$	c #4C4A38",
"&$	c #4A4836",
"*$	c #3D3C2B",
"=$	c #1E1C14",
"-$	c #2C2D1F",
";$	c #2D2C20",
">$	c #373729",
",$	c #333223",
"'$	c #100E0A",
")$	c #25241A",
"!$	c #313224",
"~$	c #26251B",
"{$	c #27271D",
"]$	c #27261C",
"^$	c #070603",
"/$	c #313124",
"($	c #323124",
"_$	c #1F1C15",
":$	c #16120E",
"<$	c #323123",
"[$	c #110C0A",
"}$	c #110B0A",
"|$	c #1E1B14",
"1$	c #323324",
"2$	c #26251A",
"3$	c #15120D",
"4$	c #333225",
"5$	c #343326",
"6$	c #1E1B13",
"7$	c #14110C",
"8$	c #0B0904",
"9$	c #080702",
"0$	c #0C0708",
"a$	c #1D1A13",
"b$	c #1D1A12",
"c$	c #060602",
"d$	c #18150F",
"e$	c #191510",
"f$	c #1A1610",
"g$	c #0C0807",
"h$	c #0F0908",
"i$	c #080606",
"j$	c #17130E",
"k$	c #1B1811",
"l$	c #1C1912",
"m$	c #191912",
"n$	c #0F0E0A",
"o$	c #080605",
"p$	c #070605",
"q$	c #120E0D",
"r$	c #110D0A",
"s$	c #0E0B08",
"t$	c #0D0A07",
"u$	c #0D0B07",
"v$	c #100E09",
"w$	c #0F0D09",
"x$	c #0C0907",
"y$	c #090705",
"z$	c #0A0705",
"A$	c #080705",
"B$	c #0E0C08",
"C$	c #0D0B08",
"D$	c #080604",
"E$	c #0B0906",
"F$	c #0D0907",
"G$	c #0A0806",
"H$	c #0B0806",
"                                                                                                                                ",
"    . . + @ # $ % & * = = - ; > , ' ) ! ~ ' { { ] ^ / ( _ ' : < [ : } { } } ^ | 1 | 2 3 | | ! | 4 5 + 6 _ ' 7 7 7 _ @ 8 _ _     ",
"    9 0 a b c c d e f g g f h h i j k l m m n o p q r s t u v w 9 9 x y x z A B C D o E F G H I J K L M N O O O P k Q Q R S T   ",
"    U U V W X X e Y Z `  ...X +.@.#.$.t %.&.*.E =.-.;.>.S S ,.,.'.'.).!.!.~.l l C {.o E F B R ].^./.(._.:.<.[.&.P k Q Q k R .   ",
"    V }.|.1.2.3.4.5.6.h Y Y 7.8.9.0.a.X v b.n c.l P d.w P e.f.g.O h.i.].j.k.l.` t &.E m.!.n.o.p.q.` c ` r.r.s.t.R O M s u.v.}   ",
"  w.V x.r.|.y.x.6.z.h A.B.B.C.D.E.r.a.F.d.G.).H.l I.d.9 ].].f.g.O O i.i.i.J.K.L.i.j c.o v v M.A.` N.N.Z O.E.c c O ].M P.u.P Q.  ",
"    R.S.T.U.6.z.h h V.8.W.X.Y.+.Z.`.O.V.#.W {.{.y y  +j L .+r...2.@.h ++@+#+$+$+m m %+&+l v.l.*+=+=+-+-+;+>+,+'+O I v b.u.R .   ",
"  )+!+}.~+{+6.6.6.p.]+^+/+@+Y.s.Z.`.]+]+V a (+(+y _+k.j _.:+]+<+[+}+h h '+|+s.1+j.m v ).P v.L.2+3+3+8.8.4+5+6+>+N 7+w ~.8+R 9+  ",
"  0+a+b+%.h.c+b+d+e+g f+g+g+6.M.K.b+:+:+h+Q P i+y y i.j L.1.i.i.j+M.h k+h h l+m+d.U m.m.{.=.n+M f.o+A.s.y.}.A.s.h+p+O P v.P .   ",
"  0+l.l.N 8+q+b+e+d g q+r+g+6.h X s._._.s+M P t+u+v+t w+K.1.i.].6.h p.h h ++l+^.d.U x+y+z+A+B+M }+S.s.s.C+% s.X h+D+h.P v.R .   ",
"  0+P.l+E+U !+^.@.@.F+c ` N._._.e.G+(.h+H+e.l l c.I+J+_.a K+4.z.6.6.1.L+A.h M+M+=.D y+N+D -.M+l+A.O+L P+6.Q+f.[+R+C+0 S+c.c.T+  ",
"  0+;.R.p U U+^.#.V+b+K.W+K.M M e.G+h+X+i.P k l o E ;.:+j.].Y+6.6.6.Z+1.A.M.M+;.q D `+ @-.=.P.m+a.X P..@Q+M.l+m+a j.b.+@@@#@    ",
"$@  9 w P P %@C <.K [.&.].N V+#.V+!+]. +&@*@t+l E E G =@u.-@;@b+n+g.V+/.N l >@h++@9 ,@x+'@E t i.)@I.R.M+h+:+*@!@d.d.~@I+'@~@    ",
"  $@z {@t t ,.,.<.&.].]@k u.#.^@R./@P I.(@*@l P ~@'@=._@8+I X c g.l+a a 8+I h+:@w 0 E <@'@,@S ].[@B R.l+4.h+!@w w w m.}@'@E     ",
"    |@y+1@,.'.2@&.3@*@*@8+8+].N 4@4@5@/.6@{.U *@y+7@8@9@]. +N )@W R+l 8+0@(+l a@b@c@d@e@f@<@%@%@t+8+R ].{.{.g@g@h@w 9 9 '@E     ",
"    i@`+~.j@S+'.&.&.1@!@v.0@k@l@%@%@V+/@8+{.m@d.i@`+@@E  +j C %@:.:.8+8+8+(+n@*@o@o@d@d@f@E d.!@k v.I.P S+!.g@g@h@p@h@9 '@q@    ",
"    |@y+r@q@+@s@F F I.I.*@*@d.9 %@=.=@8+s@s@r@r@i@`+E E !.v t@t@(+0@&.3@4@8+!.g@u@v@w@@@'@N+|@|@x@y@w +@~@~@8@9@).+@z@u@'@'@    ",
"    }@}@A@`+B@j@C@E+3@t !@,.h@h@=.C F D D@E@ @ @ @ @'@E @@@@*.*.[@{.<.a 8+a@j@+@ @ @*.@@,@ @F@F@ @ @I+@@N+G@I+@@b.+@,@|@'@'@T+  ",
"    w 9 t@8@'@H@I@I@J@s@K@}@L@p@F I d.9 q@|@ @N+(@%@E+=.t@M@y+i@I+@@@@*.N@y+y+i@O@y@B G P@l w Q@R@S@c.E *.T@8@R@U@H@t@V@z t@W@  ",
"    G.G.M@M@,@X@`+A@`+y+x+y+s@+@8+8+~.j@`+ @G@Y@=.B Z@D `@z 7@N+ #@@I+I+y+`+N+N+.#z G {.O h.+#w z z E @#8@##x R@X@N+t@$#%#R@    ",
"    &#'.I.I.d.m@i@`+`+`+N+i@,@|@q@*#y+y+}@}@=#*@W @.m a >.>.C B t@x `+`+j@.#F =@@.V M.M.M.6.z._.j [.-.q ~@E d.U s _.r. .M.a.-#  ",
"    ;#9 ].].1@1@i@i@i@ @>#,#N+i@`+y+y+x+'@}@%@*@@.m+R+a P.P+{.'#t@)#`+i@V@O@8+8+m+[+O+M.k+k+6.Y+i a {.!#E ~#G.U 5.k+V.{#F+Y.]#  ",
"    H I /.@.8+(+^#(+I.k s Q /#(#l+m+p *@}@y+g@v %.j z.M.j.t _#_#@@I+N@`+9 0 6.6.5.5.n+g.:#f++.A.s.O+R P G.d.j.j.<#[#|.}#V.|#1#  ",
"  w.P k M+M+e.l I v.H+R X+4.h h g+n+=.=.,@7@B@2#t w+3#s.t+{.G.4#*.~@|@}@U 5#6#7#h h l+[+8#}#F+s.L+9#t ].0#a#@.2.>+b#|.8#>+X.c#  ",
"    !@!@8+v.Q r t H+%@=.n+M l.:#6#c L d#v j@~@}@+@w l@l@!.e#I+u@'@H@+@v P+P.l.f#g#a h#G @.^.Q M R.^.P.i#s@B@R N b+L.>+j#b+` k#  ",
"    p@w p D h+M t H+,.*@L n+l#f+K.:#_._.w w y+`+x+}@m#T@n#o# @N+q@}@9 '._.n+q+|.O O *@*@&.&.L (.p#^@Q Q j@j@t+v.M.A.|+'+A.s.~   ",
"    g@w D {.I.l@5@V+&.&.I I q#M+a r#j.j.p *@t J  +t 1@!@b.s#N+i@9 9 V U+j.j._.s+^@^@].].8+8+O ].^@p#a t#w w d.0 M.s.l.K.B+(.u#  ",
"    9 p@D {.q q /@/.j.j.=.A R+:.t+v#&.[.%@a#W 2.j.w#*@1@s@~.i@y+G.m@M+M+i.i.M+l+!+}+&.K I (+I I V V+].I.n.~.~.O@O+X g.L l+g.)   ",
"    9 g@q#q#0@t+P P B %@x#a v.0@y#5#8+t+y@*.Q+X z#_._.Q v.I N+N+D@j@N O P+M j j B F V V+v.t+].].8+v.S ].0@I 0 b.A.X W V+G G W@  ",
"    9 b.s+:+O N 8+8+*@!@M+R.I C +#L@G D T@'@t.` A#k+s.A.t P i@G@D@j@8+0@4.6.h.N '.G.^@V+P l@t t C@A t t t t &+0 1+6#j.:.1@d.2   ",
"    R@B#:.w#I {.].N g@p@v.t+D C V@O@j@O@@@C#m+M b+` q#V+-.p y@D#q@H@9 9 N N v.P 8+8+{.I v.G+d#M R N 8+(+Z@!#O@E#[.a u.e.j.j..   ",
"    o @#F#G#[@!#&.t j@+@!#!#!#_@E#E#8@*.@@E /.l+:#q+&.N *@U j@j@i@i@O@t@q *@P P H+N *@4#l@P A.M.t j ^#^#[@H#t@y@D D G D R.!+^   ",
"    8@8@q =.^#I#4@{.q@m#O@j@d.'.1@U w w +@j@&.j.s d#W a j.t#*@*@E#E#m#J#.#M@q =.p =.{.(+E+K#L#m+P N *@a#j@).O@O@(+v.U U  + +.   ",
"    .#.#j@~.^#^#*@U N+y+y+i@+@w _#%@m@m@!@M#].S t t V p#!+!+G G n.v H@y+}@E v g@'.0 v.v.d.n.h.N P O 5#U |@H@~.j@P N ~.s@=.[@T   ",
"    K@N#O@~.U U y@O#N+y+m#q@+@s@<.:.P P K a B =.E+p ^..@P 8+_@=.~.j@y+N+H@y+j@j@d.d.9 w !@G.4#(@B G z@S@y+P#*.*.a#p p 0#=.D Q#  ",
"    H@H@O@~.0 v y+y+i@y+8@T@b.+@V+^.t t V+R#0#(@!@d./@r I =.=.p ~.~.i@N+,@y+)#9@d.d.u@m#U U ~.+@=.=.|@i@`+i@m#I+d.9 G -.[@D . S#",
"    ~@c.q@|@r@r@b.v +@+@y+}@'.G.*@&@E+E+H+t t+4@!@'.H+t#Q@j@v v n n ,@y+t@E#8@O#|@*#m#@@U U O@O@w w }@H@*.m#y+`+I@I@D#D#U *@2   ",
"    c.T#C#G@`+i@d.&+v '.N@r@'.n@x B@G.'.h.h.P l@d.9 G (+M@m#n.+@@@c.,@,@w 0 M@y@G@ @I+@@4#,.U#y@U@~@C#'@S@O#,@y+i@y+N+ @v 9 W@  ",
"    j@+@I I :.^@V#t.@.}+0 d.M@z t@O@E#O@=.%@=.=.!@d.v v 8@*.J#J#w@w@n@U ].t ]@].y@S@y+N+M@S@*#}@y+i@d.d.k R =.=.y@y@i@ @z@{@    ",
"    d.&+N v.(.(.|.W#X#4.n@a#q@H@t@E#x@D#G.M#U n@d.U z R@8@O#`+Y#Z#y D E+x#^@t#a L@w i@ @`#K@ @ @ @>#=.H#x#V v# $~.b.G@ @,@i@T+  ",
"  0+=.D M .$_.:+W.j#s.X 2.+$b..#q@m#q@r@j@j@*@p t@M@j@$#i.j @$@$[.%.v.v.k P 8+=@~.O@}@y+#$y+q@@@*@0#U !@j.m W V j j 0#%@J#J#T+  ",
"  w.C ^#N.b+:+$$%$&$b+c 5.z.'.w N+y+x+,@M@y@=.C H@y+O@E#R.l+*$9.P+P.j &.*@%@p U O@t@~@'@ @i@t@H.=$t+9 ~.i.i.L -$.@M+v.v.B#%#T+  ",
"  w.@.;.;$_.P.P.>$9#O+,$A.O+%@*@i@i@,@,@y@t@w v '@,@F 8+s Q /#Q+Q g.P P Q@d.s@t@M@x E H@'$y@G I :.)$a#U l v.w#g#:.<.P I.m@'.W@  ",
"  0+D+!$j.a V :.@.V+(#6.V#X {.A N+`+y+y+t@H.@@f@I+K@&.C+p+X+t#K :+P+-@{.U#O@~@'@)#x c.E 0 +#t t .@L G B F F D [@N S S R %@=.}   ",
"    ~${$N N v.8+_._.g.g.]$~$!@!@y+`+!@(@=.=.+@s@B@B@%@B t#<.K K ^.~$v.l U U *@*@t@x t@8@u.u.].t a J }+}+P P _#U &.a v.8+8+k } ^$",
"    8+8+N N *@*@A.A.V W '.'.~.~.y+y+k R P =$9 9 g@g@K@@@U !@$.&. +].N N p %@(+(+y y t@z a a ].S I -./$!$j j ,.9 m V F C 3@&.. S#",
"    U U t+8+k P ]$+$P v.=.D z@u@'@'@F I t t }+L#% V 0 v U U B G {.^#].N @$($m+m+v.4@x w@].R !+^.k 0@;.;.j.R+k 8+P R 7+I 7+8+{ W@",
"    O@E#I D a a [@[@G.n@l@_$y+ @@@e@%@%@x#J b+b+k+h =._#*@_#I+@@:$:$N P 8.-+<$M.W a [$}$G Z@(.:+h.R 8+0@@.[+!+V+!@j@R R w 9 { W@",
"    E#.#U d.k@N N N v.v.|$=$c.'@t@x w#a W a 1$s.s.F+2$2$I G j@t@3$3$=$0@4$5$h M.j.a ).B@s@w :.V 0@8+l l :.W :.R+p n@q#;.Z@D Q#W@",
"    O@t@y@z z+!#a a t#m v#6$n c.w 7$Q _.C+a z.z.l.:#6.M.N l@w b.v v t+(+k.j.++h j.a &+g@y+x+s#+@A {.)@S a t#j.j.!#!#_.6.P N 8$9$",
"    U@I@~@J#[@q t t &.t a#_#n @@M@R@]$}+@.}+(#z.Q+M.5.z.W w#I 0@n.w p _#]. +q#L#8+t+n@d.`+H@b.+@{.{.S ].n+P+P 0@!#^#n+(.O )@Q#S#",
"    G@G@'@'@_#_#l k N N j@+@Z#e@m.0$I.k M+P.z.4.!+@._._.P.P.%.&.n.w d.!@N N =$=$3$'._#U i@'@~.+@!#[@].].6.6.^#H#a$b$>.L O N 2   ",
"    A@ @'@<@*@*@j j.t+8+j@~.9@9@8@*.&.&.:.V ;.M+^@V z.k+V V 8+8+y@y@4#*@I =@p p -.D D q ,@}@~.~.a#n@P v.q#P.j.j %.H+j.:.=.-.2   ",
"  c$N+N+'@'@,.,.>.R.^#D ~.~.+@+@9 ~././.%.t [.&.m a ++M.O =$d.'.}@}@p p d$*@V@E#t H+l@(+<@f@~.+@v b.l t+=$=$!+}+R+R+e$f$z 8@T+S#",
"    g$,@*.z@9 0 :.a N R O@j@D#u@m@9 t t#G G (+(+&.j ~$^.v.t+d.d.}@q@U U *@n@U *@I G =.%@'@m.z@z@H.z@*@4#a$v#}+q#K %.D {.z z@S#  ",
"  c$h$c.E#E#V@~.l@G+@.#.E#j@N+i$q =.v.l@w b.G.j$].N %@,.t+t+d.d.'@~@d.!@d.0 =@8+~.E#O@E#9@R@># @@@E R@*.k$l$m+>.P P ].t z m#S#  ",
"  c$*.*.E+m$9 9 p E+j.[.U U G@i$_#p D D w b._#_#D -.U m@^#^#y@n$q@I+b.+@0 w 0#0#j@y@G.!@R@R@ @ @T@w@8@w@!#Z@j.<.p 0#B F .#.#W@  ",
"    V@U#t &.n@n@,@,@!#^#{.z+A@G@n@U w v +@w D D b.w ~.s@=.q o$p$'@K@E '@9 9 '@<@j@j@'#D M@M@P#X@B@q$n#*.[@q n@n@w@I+E E 9 '.2   ",
"    V@U#u.v.'.&+*.*.%@p 4#4#N+G@b.~.'$M@+@+@4#n@+@+@t@.#0 L@o$p$r@q@z@D#9 9 8@*.t@t@q *@u@*.y+N+O#S@z@I+v v j@j@@@I+x .#g@'.W@  ",
"c$  s@M@t@r$'.'.+@+@+@p@@@J#N+P#P#P# @ @D@s@s@s@9 w M@8@G@F@o$o$I@m#~.w w 9 j@j@*.z@+@s@}@}@i@G@G@G@'@'@}@}@G@o$@@@@G.G.M#M#2   ",
"    s$t$s$u$E#$#v$w$w$'$x$x$y$y$z$z$o$A$B$w$w$w$z w$C$C$A$D$o$D$E$E$B$w$w$w$B$B$F$x$s$D#x$P#G@o$A$o$G$G$P#H$A$D$F$x$t@$#t@E#W@  ",
"      0+                                                                                            0+                          ",
"      c$                                                      $@                                                                ",
"c$                                        c$      c$                                      w.                                    "};
