/* XPM */
static char *da6e4ca56b884fa38a32c777150e6eaagu84Gi3uqCvA5SZA[] = {
/* columns rows colors chars-per-pixel */
"44 128 228 2 ",
"   c #140C06",
".  c #191714",
"X  c #281C16",
"o  c #251E1B",
"O  c #2B2116",
"+  c #2B221C",
"@  c #34261B",
"#  c #1D2126",
"$  c #2D2A27",
"%  c #342C24",
"&  c #3A2B23",
"*  c #392E2A",
"=  c #393127",
"-  c #3B332B",
";  c #2C2E31",
":  c #2B3135",
">  c #34383B",
",  c #473629",
"<  c #453A2D",
"1  c #523B2E",
"2  c #412739",
"3  c #433C34",
"4  c #4B3C32",
"5  c #463C38",
"6  c #543C34",
"7  c #643F3C",
"8  c #46433C",
"9  c #4B453B",
"0  c #4C4439",
"q  c #524235",
"w  c #55443B",
"e  c #5B443B",
"r  c #524A3E",
"t  c #5C4B3C",
"y  c #674A3D",
"u  c #644D3C",
"i  c #6B503F",
"p  c #343C42",
"a  c #5A3348",
"s  c #6B3B57",
"d  c #753868",
"f  c #743370",
"g  c #3D4244",
"h  c #414444",
"j  c #4D4A43",
"k  c #46494B",
"l  c #534D43",
"z  c #564947",
"x  c #5C4C43",
"c  c #4E504D",
"v  c #565045",
"b  c #5B5345",
"n  c #55534C",
"m  c #5A564D",
"M  c #5E594E",
"N  c #5B4951",
"B  c #4C5154",
"V  c #535656",
"C  c #5B5651",
"Z  c #5D5A53",
"A  c #5D5D5A",
"S  c #634D43",
"D  c #6A4C43",
"F  c #6A4848",
"G  c #645244",
"H  c #6B5444",
"J  c #645449",
"K  c #6B564A",
"L  c #625A4E",
"P  c #6D5A4C",
"I  c #715644",
"U  c #745A46",
"Y  c #7A5947",
"T  c #73554A",
"R  c #745C4C",
"E  c #7B5D4C",
"W  c #66455A",
"Q  c #704957",
"!  c #6B5756",
"~  c #625E54",
"^  c #625D59",
"/  c #755755",
"(  c #725D53",
")  c #7B5D51",
"_  c #5F615E",
"`  c #7D634E",
"'  c #656156",
"]  c #6A6455",
"[  c #66635B",
"{  c #6A665B",
"}  c #6D695E",
"|  c #7C6353",
" . c #726B5E",
".. c #7D685C",
"X. c #79705E",
"o. c #555D62",
"O. c #784865",
"+. c #765869",
"@. c #7C4475",
"#. c #5D6770",
"$. c #666661",
"%. c #696761",
"&. c #6D6A62",
"*. c #6E6E69",
"=. c #726D62",
"-. c #766967",
";. c #726E69",
":. c #6F706B",
">. c #767165",
",. c #7A7365",
"<. c #7E7867",
"1. c #74726B",
"2. c #7A756B",
"3. c #7E7A6C",
"4. c #656C75",
"5. c #6E6F71",
"6. c #697079",
"7. c #767671",
"8. c #797771",
"9. c #7C7B75",
"0. c #7E7E78",
"q. c #853276",
"w. c #82624D",
"e. c #836453",
"r. c #846A57",
"t. c #846A5B",
"y. c #89715E",
"u. c #95775B",
"i. c #A57748",
"p. c #884B75",
"a. c #897061",
"s. c #827C6D",
"d. c #947868",
"f. c #87657C",
"g. c #847477",
"h. c #827D73",
"j. c #817E79",
"k. c #A07F68",
"l. c #7F807B",
"z. c DarkOrange",
"x. c #FFA81C",
"c. c #FFB41C",
"v. c #B68D5F",
"b. c #9D8469",
"n. c #868174",
"m. c #8B8476",
"M. c #83827C",
"N. c #8A867C",
"B. c #8B897E",
"V. c #928577",
"C. c #918B7C",
"Z. c #A78566",
"A. c #BE9467",
"S. c #AD9374",
"D. c #C38E52",
"F. c #C39664",
"G. c #6E7781",
"H. c #9A1B95",
"J. c #992E8C",
"K. c #9B3897",
"L. c #A83099",
"P. c #AC18AA",
"I. c #B518AB",
"U. c #A735A5",
"Y. c #AE30A9",
"T. c #BD29B6",
"R. c #C216BC",
"E. c #C62DBC",
"W. c #954B88",
"Q. c #8F5186",
"!. c #9C4895",
"~. c #A4459D",
"^. c #A7509D",
"/. c #906F86",
"(. c #96698B",
"). c #997794",
"_. c #A84BA3",
"`. c #B444AF",
"'. c #A957A6",
"]. c #C044BF",
"[. c #D00FCF",
"{. c #CA18C7",
"}. c #D218CE",
"|. c #D40ED2",
" X c #DC00DC",
".X c #D919D5",
"XX c #E213DD",
"oX c #CF25C9",
"OX c #C939C6",
"+X c #D332CF",
"@X c #D827D5",
"#X c #E200E2",
"$X c #E60BE3",
"%X c #EC02EB",
"&X c #EC0BEB",
"*X c #E816E7",
"=X c #F404F3",
"-X c #F40BF3",
";X c #F30CF2",
":X c #FE02FD",
">X c magenta",
",X c #FB08F9",
"<X c #858581",
"1X c #898681",
"2X c #868987",
"3X c #8B8B83",
"4X c #8E8E89",
"5X c #938E84",
"6X c #908F8C",
"7X c #939186",
"8X c #94938B",
"9X c #99958D",
"0X c #9C998E",
"qX c #979691",
"wX c #9C9B93",
"eX c #A49091",
"rX c #A19D94",
"tX c #A19E99",
"yX c #B3A38D",
"uX c #A7A39B",
"iX c #BC84BA",
"pX c #ABAAA3",
"aX c #B6AFA3",
"sX c #B6B2A9",
"dX c #BDA3B7",
"fX c #B8B4B1",
"gX c #C3B2BC",
"hX c #C5C3BB",
/* pixels */
">X>X>X>X>X>X>X>X>X>X>X>X>X>X>X>X>X>X>X>XU.*XXX;X>X>X>X>X>X>X>X>X>X>X>X>X>X>X>X>X>X>X>X>X",
">X>X>X>X>X>X>X>X>X>X>X>X>X>X>X>X&X>X>X{.O.d J..XJ.$X>X>X>X>X>X>X>X>X>X>X>X>X>X>X>X>X>X>X",
">X>X>X>X>X>X>X>X>X>X>X>X>X>X>X>XJ J.s < 3 % < 4 r p..X;X>X>X>X>X>X>X>X>X>X>X>X>X>X>X>X>X",
">X>X>X>X>X>X>X>X>X>X>X>X>X>X>X>XF & O $ . . + = = < b W.>X>X>X>X>X>X>X>X>X>X>X>X>X>X>X>X",
">X>X>X>X>X>X>X>X>X>X>X>X>X>X>X}.q % + + . + X X O % r J .X>X>X>X>X>X>X>X>X>X>X>X>X>X>X>X",
">X>X>X>X>X>X>X>X>X>X>X>X>X>X>XL.< O O 4 G H H T , < , & W.>X>X>X>X>X>X>X>X>X>X>X>X>X>X>X",
">X>X>X>X>X>X>X>X>X>X>X>X>X>X4 & , 1 H Y w.e.e.w.I 4 , @ ! p.!.>X>X>X>X>X>X>X>X>X>X>X>X>X",
">X>X>X>X>X>X>X>X>X>X>X>X>X>Xq 4 @ 1 ` w.w.e.e.w.Y H , = % 4 E.>X>X>X>X>X>X>X>X>X>X>X>X>X",
">X>X>X>X>X>X>X>X>X>X>X>X>XQ < X X u U | | e.r.t.R I I & * = !.,X>X>X>X>X>X>X>X>X>X>X>X>X",
">X>X>X>X>X>X>X>X>X>X>X>X>Xx 3   t T G q | e.R 6 S G u S . % +.>X>X>X>X>X>X>X>X>X>X>X>X>X",
">X>X>X>X>X>X>X>X>X>X>X>X>X< =   x e S w t R H e ( e H J $ % O.>X>X>X>X>X>X>X>X>X>X>X>X>X",
">X>X>X>X>X>X>X>X>X>X>X>X>Xx % X x x x & G E T H < 4 K K o 9 oX>X>X>X>X>X>X>X>X>X>X>X>X>X",
">X>X>X>X>X>X>X>X>X>X>X>X>Xs X X J S x J K t.T E T ) ) ] 4 l @X>X>X>X>X>X>X>X>X>X>X>X>X>X",
">X>X>X>X>X>X>X>X>X>X>X>X>Xd + + x t.e.| T | R ) | e.E ..S x >X>X>X>X>X>X>X>X>X>X>X>X>X>X",
">X>X>X>X>X>X>X>X>X>X>X>X>X>X8 & u ( | e.S & & T e.| R ] K K >X>X>X>X>X>X>X>X>X>X>X>X>X>X",
">X>X>X>X>X>X>X>X>X>X>X>X>X>X- @ t P ) E ( w x R | R T P 4 / >X>X>X>X>X>X>X>X>X>X>X>X>X>X",
">X>X>X>X>X>X>X>X>X>X>X>X>X>Xd * ( K R R D y 7 z < R H J 3 T.>X>X>X>X>X>X>X>X>X>X>X>X>X>X",
">X>X>X>X>X>X>X>X>X>X>X>X>X>X>XP.+ G P , 1 F F H P G b * W >X>X>X>X>X>X>X>X>X>X>X>X>X>X>X",
">X>X>X>X>X>X>X>X>X>X>X>X>X>X>X>XH.x t J K K H | P x t @ }.>X>X>X>X>X>X>X>X>X>X>X>X>X>X>X",
">X>X>X>X>X>X>X>X>X>X>X>X>X>X>X>X>Xq.t t H K K G 0 0 e ~ >X>X>X>X>X>X>X>X>X>X>X>X>X>X>X>X",
">X>X>X>X>X>X>X>X>X>X>X>X>X>X>X>X>X>XP 4 % $ o o % w G oX>X>X>X>X>X>X>X>X>X>X>X>X>X>X>X>X",
">X>X>X>X>X>X>X>X>X>X>X>X>X>X>X>X>XH.b t 0 - - 5 w u G >X>X>X>X>X>X>X>X>X>X>X>X>X>X>X>X>X",
">X>X>X>X>X>X>X>X>X>X>X>X>X>X>X>X>X# J u t q 0 0 e G J 5 >X>X>X>X>X>X>X>X>X>X>X>X>X>X>X>X",
">X>X>X>X>X>X>X>X>X>X>X>X>X>X>X>Xf o C r x w 6 0 r j $ h +X>X>X>X>X>X>X>X>X>X>X>X>X>X>X>X",
">X>X>X>X>X>X>X>X>X>X>X>X>X>X@Xj.; $.7.#.$ 0 q 4 k : g V 1.@X>X>X>X>X>X>X>X>X>X>X>X>X>X>X",
">X>X>X>X>X>X>X>X>X>X>X>X/.0.0.9.*.4.G.G.4.o.3 5 g 2XB k _ 1.1.(.>X>X>X>X>X>X>X>X>X>X>X>X",
">X>X>X>X>X>X>X>X>X0.M.0.j.9.9.9.5.4.4.6.G.6.V > > o.h g c 1.1.1.*.OX>X>X>X>X>X>X>X>X>X>X",
">X>X>X>X>X>X>X+X<XM.0.0.j.j.9.8.$.#.#.4.4.6.4.# : k g k A 1.1.8.1.1.1.+X>X>X>X>X>X>X>X>X",
">X>X>X>X>X>X>XM.M.0.j.0.j.j.0.9.*.B o.#.4.#.p ; > > > k 1.8.8.8.8.1.1.1.(.>X>X>X>X>X>X>X",
">X>X>X>X>X>X).0.9.9.0.0.j.0.j.j.7.B k V o.B > # ; B h n 9.9.9.8.9.8.8.8.1.OX>X>X>X>X>X>X",
">X>X>X>X>X*XM.M.j.M.M.j.j.j.M.j.0.1.A k > h > V V A A 1.9.9.9.9.0.9.8.7.1.8.>X>X>X>X>X>X",
">X>X>X>X>XM.0.M.8.0.0.j.M.M.M.M.M.j.0.$.[ [ 1.0.9.1.8.9.9.0.0.0.9.9.7.7.1.7.>X>X>X>X>X>X",
">X>X>X>X>XN.N.M.0.8.0.0.M.M.M.M.M.M.M.j.7.8.0.0.0.8.8.9.0.0.0.0.9.9.7.7.1.1. X>X>X>X>X>X",
">X>X>X>X-X0.1Xl.*.8.0.M.M.M.M.M.M.M.M.M.M.j.0.0.0.0.0.0.0.0.0.9.9.1.1.1.1.1.P.=X>X>X>X>X",
">X>X>X>X'.0.3XM.&.8.0.M.M.M.M.M.M.M.M.M.j.0.0.M.M.M.0.0.0.0.9.9.8.1.1.*.;.1.!.%X>X>X>X>X",
">X>X>X>X1X9.M.4X;.M.0.M.M.M.M.M.0.0.j.0.0.l.M.M.M.0.0.0.0.0.9.9.7.1.7.%.;.1.1.#X>X>X>X>X",
">X>X>X>X1X3X8XqX8.M.N.N.1X1XN.M.M.0.0.0.0.M.M.M.M.M.M.0.0.9.8.8.1.*.8.&.1.8.1. X>X>X>X>X",
">X>X>X>XqXtXwX8X1XM.N.1X3X3X3XN.M.j.0.0.0.0.0.M.M.M.M.0.0.9.8.7.*.%.7.1.*.9.1. X>X>X>X>X",
">X>X>X.XwXwX4X8XM.M.N.B.4X3X3X1XN.M.j.0.0.0.0.M.M.0.0.0.8.8.7.1.$.1.n *.&.8.7.`.=X>X>X>X",
">X>X>XdXuXwX8XwXuX3X3X3XwXB.3X3XB.N.M.j.0.0.0.0.0.0.0.0.8.8.1.1.$.*.$.7.&.7.7.Q.%X>X>X>X",
">X>X>XpXpX3XuXpXtXwX9X8X8X3X8X1X1XN.M.M.0.0.0.0.0.0.M.8.7.8.*.1.$.A :.1.1.9.7.7.#X>X>X>X",
">X>X.XfXpXuXsXsXrXwX9X9X9X8XwX8X1X1XN.M.M.0.l.0.0.0.0.8.8.8.*.7.$.[ 1.%.7.7.9.0. X>X>X>X",
">X>XfXwXpXfXfXuXyXZ.v.S.S.rXrXwX8X1X1X1XM.j.l.0.0.0.0.0.8.8.*.1.$.*.1.%.8.8.9.0.>X>X>X>X",
">X>XfXhX0XaXsXyXF.z.z.z.A.yXrXwX8X3X1X1XN.M.0.0.0.0.0.0.8.8.*.1.C *.1.&.8.8.9.9.>X>X>X>X",
">X>XpXwXh.aXaXA.z.x.x.x.z.S.rXrX9X8X3X1X1XN.0.0.0.0.0.9.9.8.*.*.n &.*.%.9.0.9.9.>X>X>X>X",
">XgXuXeXZ.b.Z.D.z.x.c.x.z.F.rXrX0X8X1X3XB.N.M.0.0.9.0.0.9.8.*.*.A &.*.:.8.8.9.0.&X>X>X>X",
">XiXuXb.Z.u.k.v.z.x.x.x.z.S.wX0X0X7X3X3X1XN.M.M.j.8.j.0.9.9.1.*.A &.&.1.9.9.9.8.}.>X>X>X",
">X;X, u.u.u.d.Z.i.z.z.z.i.5X9X0X9X7XB.1X1XN.M.M.M.9.0.M.0.9.1.:.C &.[ 1.8.9.8.0.'.>X>X>X",
">X=Xq.R r.` r.V.u.i.i.i.d.5X9X9X5X5XB.3X1XN.0.j.0.8.0.M.0.9.1.*.n [ %.1.8.9.0.9.f.>X>X>X",
">X>X=Xx e t P X.y.y.y.u.d.3X7X7X3XM.B.B.1XN.M.M.0.7.0.j.0.8.1.1.n Z 1.7.8.0.0.9.9.>X>X>X",
">X>X>X$X< t t L y.y.y.a.C.5X7X8XN.M.M.B.N.0.0.0.0.1.8.0.0.8.1.*.C [ %.1.1.1.8.0.8.>X>X>X",
">X>X>X>X=X$XXX.X^.;.^ 1.3X8X7X5X0.j.M.M.N.0.0.0.0.1.2.0.8.8.1.*.[ *.1.8.M.M.M.0.8.>X>X>X",
">X>X>X>X>X>X>X>X@X7.:.1.8XwX8X3XN.M.M.0.M.8.8.9.9.7.8.0.8.8.1.*.&.*.1.1.0.0.M.j.0.@X>X>X",
">X>X>X>X>X>X>X>X*X8X3X3X8X3X3X1X1XN.l.8.j.7.7.9.0.7.8.0.1.8.8.*.o - 9 l l 9 O.{.&X>X>X>X",
">X>X>X>X>X>X>X>X*X).0.0.3X8X1X1X1XM.M.8.0.0.9.0.0.0.0.9.1.9.7.%.a t G H H u q >X>X>X>X>X",
">X>X>X>X>X>X>X>X&X).0.0.3X4X4X1XN.M.0.9.0.0.8.9.0.9.0.9.1.8.9.&.d u H ` R I F >X>X>X>X>X",
">X>X>X>X>X>X>X>X%X<X0.<XN.1X1X1XM.0.0.9.9.8.9.9.0.8.0.0.1.8.8.1.p.t H T U I S >X>X>X>X>X",
">X>X>X>X>X>X>X>X%XM.M.<X<XN.M.M.0.0.0.9.8.0.9.9.0.0.0.0.1.8.2.8.~.x G I Y I u >X>X>X>X>X",
">X>X>X>X>X>X>X>X%X9.M.M.M.0.0.j.0.9.9.9.8.0.9.0.0.0.0.0.1.8.7.2.U.J.t H ` U e >X>X>X>X>X",
">X>X>X>X>X>X>X>X#X9.0.9.0.0.0.0.9.9.0.0.8.9.0.0.9.0.0.9.1.8.8.2.;X>Xt H R Y u >X>X>X>X>X",
">X>X>X>X>X>X>X>X#XM.0.0.9.9.9.9.9.9.0.0.0.0.0.0.9.0.0.0.1.7.7.2.>X>XW H R Y u >X>X>X>X>X",
">X>X>X>X>X>X>X>X#X<Xl.0.0.9.9.9.0.9.0.0.0.8.9.0.0.0.M.0.1.7.8.2.>X>X>XH R Y u >X>X>X>X>X",
">X>X>X>X>X>X>X=X|.<XM.0.9.9.9.9.9.9.0.0.0.0.9.l.9.l.l.0.1.8.8.2.>X>X>XG U Y i >X>X>X>X>X",
">X>X>X>X>X>X>X%X'.<X0.l.0.9.8.9.9.9.8.8.0.0.0.l.0.0.M.0.*.9.2.1.>X>X>Xx I E i >X>X>X>X>X",
">X>X>X>X>X>X>X#X2XM.<XM.9.0.9.9.0.9.0.9.9.M.0.0.0.0.M.0.1.8.1.1.>X>X>Xq.T E i >X>X>X>X>X",
">X>X>X>X>X>X>X].M.0.M.<X0.9.9.0.0.9.9.8.l.9.0.0.9.0.M.0.1.9.1.;.;X>X>X=XH | i >X>X>X>X>X",
">X>X>X>X>X>X>X8X3X4X3X3XM.0.M.M.M.l.M.9.9.9.0.0.9.l.M.M.;.1.=.;.Y.>X>X>XH E y |.>X>X>X>X",
">X>X>X>X>X>X&X4X<X3X3X3XM.M.M.M.<XM.1.7.9.0.0.0.0.0.M.0.=.1.1.;.K.>X>X>XP ` u R.>X>X>X>X",
">X>X>X>X>X>XtX8X8X6XM.1X3XM.0.M.0.9.9.9.7.9.0.0.0.M.M.0.1.j.;.8._.>X>X>X& , * H.>X>X>X>X",
">X>X>X>X>X>Xn.=.8X8X8X3X1X3X1XM.9.0.7.7.<X3XN.M.0.0.M.9.%.1.;.9.U.>X>X,X) E D H.>X>X>X>X",
">X>X>X>X>X>XN.,.} &.Z &.M.N.9.&.A C [ [ 4X3X0.8.N.<Xl.N.&.1.1.&.'.>X>XL.) E D Q >X>X>X>X",
">X>X>X>X>X>Xh.3.>.>.[ } { ~ Z ' =.3.s.>.Z m j 8 9.<X<XM.%.9.1.%._.>X,XT E Y T u >X>X>X>X",
">X>X>X>X>X>Xh.h.n.,.h.h.h.3.h.s.h.s.<.} =.=.&.3 m Z n 8 [ 0.=.=..X>X,XQ T y T D ,X>X>X>X",
">X>X>X>X>X>Xh.s.m.s.h.n.s.s.h.n.s.2.>.] =.>.3.j Z [ { v n Z =.~ K.>X>Xp.S 6 I u ,X>X>X>X",
">X>X>X>X>X&Xh.,.,.3.s.3.3.s.h.s.,.>.=.' =.>.=.m ~ { [ Z } >.=.' ~.>X,Xp.e 1 T S >X>X>X>X",
">X>X>X>X>X1X<.3.3.3.3.3.>.s.s.3.>.=.} ~ ~ ~ >.' &.&.[ ~ =.,.=.' W.>XT.H 1 1 K a >X>X>X>X",
">X>X>X>X>X9.<.h.3.3.3.>.=.=.=.=.=.=.{ ~ >.2.h.-.>.9.,.&.=.>.} ' p.;X/ ( 6 | W >X>X>X>X>X",
">X>X>X>X>Xh.s.3.s.3.,.=.=.=.=.} &.} } [ 3.h.>.2.2.h.>.=.=.>.=.] W.T.) D ) T |.>X>X>X>X>X",
">X>X>X>X>X9.,.,.,.,.>.=.=.=.=.&.=.} } l <.3.} 2.3.2.=.=.=.>.-.{ _.,X,XL.I.>X>X>X>X>X>X>X",
">X>X>X>X>X2.3.n.3.>.,.=.=.=.=.=.&.} } 9 1.,.' <.3.2.=.=.>.2.,.&.U.>X>X>X>X>X>X>X>X>X>X>X",
">X>X>X>X>X2.,.=.2.>.2.1.} } ,.>.=.} ] v 2.=.=.s.3.,.-.>.,.=.>.>.T.>X>X>X>X>X>X>X>X>X>X>X",
">X>X>X>X>X1.,.<.2.3.,.,.[ =.} } =.} [ ! >.} >.h.<.>.=.,.=.=.=.=.oX>X>X>X>X>X>X>X>X>X>X>X",
">X>X>X>X>X1.,.>.>.2.>.} } } &.&.} [ ' W.=.=.3.3.>.=.>.>.&.&.~ =.&X>X>X>X>X>X>X>X>X>X>X>X",
">X>X>X>X>X1.,.,.2.>.>.=.} } =.=.} } } oX>.2.h.9.>.=.=.>.{ Z >.2.>X>X>X>X>X>X>X>X>X>X>X>X",
">X>X>X>X>X1.>.>.>.,.,.=.} [ } =.} { [ .X} 3.h.2.&.=.>.>.{ [ >.,.>X>X>X>X>X>X>X>X>X>X>X>X",
">X>X>X>X>X>.>.>.>.,.,.>.&.[ &.&.} [ [ =X=.{ >.=.&.1.1.&.[ { 2.2.>X>X>X>X>X>X>X>X>X>X>X>X",
">X>X>X>X>X1.>.>.,.>.,.=.&.[ } &.} [ ' >X&.1.1.&.=.1.=.&.~ &.>.2.>X>X>X>X>X>X>X>X>X>X>X>X",
">X>X>X>X>X9. .=.,.2.>.,.} [ { &.{ [ ~ >X&.>.=.&.=.>.=.{ [ =.9.,.>X>X>X>X>X>X>X>X>X>X>X>X",
">X>X>X>X>X3. .>.,.>.,.>.} } { } { ~ n >X%.-.=.=.>.=.>.{ { >.2.,.>X>X>X>X>X>X>X>X>X>X>X>X",
">X>X>X>X>X2.=.>.,.>.,.-.} } { } { ~ n >X{ =.&.=.1.1.=.~ { >.3.1.>X>X>X>X>X>X>X>X>X>X>X>X",
">X>X>X>X>X,.=.=.,.,.,.-.} } [ { [ ~ N >X[ &.=.1.1.1.&.Z %.1.9.1.>X>X>X>X>X>X>X>X>X>X>X>X",
">X>X>X>X>X2.=.=.>.,.>.=.} } [ [ [ M U.>X[ &.2.1.1.1.%.Z &.1.j.&.>X>X>X>X>X>X>X>X>X>X>X>X",
">X>X>X>X>X9.>.=.=.,.>.=.} } { [ ~ n $X>X[ &.=.1.1.;.[ ~ =.1.9.-.>X>X>X>X>X>X>X>X>X>X>X>X",
">X>X>X>X>X8.>.} =.>.=.=.[ { [ ' [ l >X>XZ &.=.1.1.&.~ [ =.2.9.!.>X>X>X>X>X>X>X>X>X>X>X>X",
">X>X>X>X>Xg.=.{ } =.=.=.[ [ [ [ ~ j >X>XC { >.1.1.%.Z { 1.2.2.;X>X>X>X>X>X>X>X>X>X>X>X>X",
">X>X>X>X>Xg.=.{ } } =.=.[ ' [ [ Z ! >X>XA { =.1.1.[ Z %.1.2.1.>X>X>X>X>X>X>X>X>X>X>X>X>X",
">X>X>X>X>X/. .{ [ } } =.[ ~ [ ~ m W.>X>X^ [ 1.1.=.~ [ &.2.9.[ >X>X>X>X>X>X>X>X>X>X>X>X>X",
">X>X>X>X>Xf.{ ' [ [ [ } [ ~ ~ Z m K.>X>X{.A =.=.{ ~ [ =.9.0.n >X>X>X>X>X>X>X>X>X>X>X>X>X",
">X>X>X>X>X_. .} ' [ ' [ [ M ~ m n [.>X>X>XC ;.&.{ Z [ >.9.9.z >X>X>X>X>X>X>X>X>X>X>X>X>X",
">X>X>X>X>X@X=.=.~ ' ~ ' [ L ~ m l |.>X>X>XW 1.%.Z [ %.1.j.1.z >X>X>X>X>X>X>X>X>X>X>X>X>X",
">X>X>X>X>X;X' [ ' ~ ' ' [ ~ M M n }.>X>X>XR.&.~ ^ { &.2.9.=.z >X>X>X>X>X>X>X>X>X>X>X>X>X",
">X>X>X>X>X>X .} [ ' ~ ~ ' ~ M ~ 9 |.>X>X>X>X{ ^ ^ %.;.9.9.%.z >X>X>X>X>X>X>X>X>X>X>X>X>X",
">X>X>X>X>X>X' =.} ' ~ Z ~ ' v r j >X>X>X>XQ.^ Z [ &.2.9.2.^ N >X>X>X>X>X>X>X>X>X>X>X>X>X",
">X>X>X>X>X>X[ ]  .~ ~ Z Z ~ M M l >X>X>X>X^ Z ^ [ =.9.9.1.Z N >X>X>X>X>X>X>X>X>X>X>X>X>X",
">X>X>X>X>X>X} ~ [ ] M Z Z m ' b l >X>X>XT.Z ~ ~ &.9.9.9.;.m W >X>X>X>X>X>X>X>X>X>X>X>X>X",
">X>X>X>X>X>X=.~ ~ ] ~ Z m m ~ M ] /.>X>X+.~ ~ [ =.9.9.8.=.9 @.>X>X>X>X>X>X>X>X>X>X>X>X>X",
">X>X>X>X>X>X-.b M ] ~ m n n v ] <.3.`.>XY.Z [ =.2.j.j.9.{ 8 @.>X>X>X>X>X>X>X>X>X>X>X>X>X",
">X>X>X>X>X>Xf.b l v r l l l l n {  .>.>X>X~ &.2.9.j.j.2.[ 8 p.>X>X>X>X>X>X>X>X>X>X>X>X>X",
">X>X>X>X>X>X;X . .b v l l l 9 9 v L M >X>X9 =.2.3.9.3.2.~ 9 |.>X>X>X>X>X>X>X>X>X>X>X>X>X",
">X>X>X>X>X>X>X(.,.,.,.,.,.} r r 9 r b >X1.9 v &.>.3.2.=.9 3 >X>X>X>X>X>X>X>X>X>X>X>X>X>X",
">X>X>X>X>X>X>X>Xg.X.,.,.,.,. .} L 9 8 >X} ] L m } =.2.%.8 j >X>X>X>X>X>X>X>X>X>X>X>X>X>X",
">X>X>X>X>X>X>X>X>X,.,.,.X.,.,.,.=.~ =X!.3.s.3. .~ ~ =.{ - +.>X>X>X>X>X>X>X>X>X>X>X>X>X>X",
">X>X>X>X>X>X>X>X>X=.M ] ,.,.,.=.O d >X>X,.s.s.s.>.[ ~ ~ Z >X>X>X>X>X>X>X>X>X>X>X>X>X>X>X",
">X>X>X>X>X>X>X>XeX9.N.n.L [ ~ v v @.>X>X>X~ ,.3.s.s.h.3 f.>X>X>X>X>X>X>X>X>X>X>X>X>X>X>X",
">X>X>X>X>X>X>X>X2.3XB.B.>.9 j $ 2 >X>X>X>X@.~  .,.s.{ M >X>X>X>X>X>X>X>X>X>X>X>X>X>X>X>X",
">X>X>X>X>X>X>X3X7XB.B.2.=.j.z >X>X>X>X>X>X>X%.[ Z 8 C ' >X>X>X>X>X>X>X>X>X>X>X>X>X>X>X>X",
">X>X>X>X>X>X5XN.h.5X<.2.M.Z >X>X>X>X>X>X>X>X1X3.B.n.M.9.>X>X>X>X>X>X>X>X>X>X>X>X>X>X>X>X",
">X>X>X>X>X(.5X5XC.3.3.=.&.}.>X>X>X>X>X>X>X>X1X3.j.B.j.1.`.>X>X>X>X>X>X>X>X>X>X>X>X>X>X>X",
">X>X>X>X>XC.m.C.m.n.3.n.K.>X>X>X>X>X>X>X>X>X).n.3.N.j.<.h.>X>X>X>X>X>X>X>X>X>X>X>X>X>X>X",
">X>X>X>X>XC.m.C.m.s.s.3.>X>X>X>X>X>X>X>X>X>X!.>.n.>.=.{ n.>X>X>X>X>X>X>X>X>X>X>X>X>X>X>X",
">X>X>X>X_.C.C.h.s.m. .C >X>X>X>X>X>X>X>X>X>XoX,.n.h.n.n.h.+X>X>X>X>X>X>X>X>X>X>X>X>X>X>X",
">X>X>X>XOXm.V.s.s.=.! >X>X>X>X>X>X>X>X>X>X>X&Xs.h.h.s.h.s.[.>X>X>X>X>X>X>X>X>X>X>X>X>X>X",
">X>X>X>X>X' ] L ] +.>X>X>X>X>X>X>X>X>X>X>X>X>Xh.h.s.s.s.m.>X>X>X>X>X>X>X>X>X>X>X>X>X>X>X",
">X>X>X>X>X>X&XP.>X>X>X>X>X>X>X>X>X>X>X>X>X>X>Xn.m.<.s.s.3.>X>X>X>X>X>X>X>X>X>X>X>X>X>X>X",
">X>X>X>X>X>X>X>X>X>X>X>X>X>X>X>X>X>X>X>X>X>X>X(.n.s.m.m.L >X>X>X>X>X>X>X>X>X>X>X>X>X>X>X",
">X>X>X>X>X>X>X>X>X>X>X>X>X>X>X>X>X>X>X>X>X>X>X>X3.=.] r |.>X>X>X>X>X>X>X>X>X>X>X>X>X>X>X",
">X>X>X>X>X>X>X>X>X>X>X>X>X>X>X>X>X>X>X>X>X>X>X>X>X>X>X>X>X>X>X>X>X>X>X>X>X>X>X>X>X>X>X>X",
">X>X>X>X>X>X>X>X>X>X>X>X>X>X>X>X>X>X>X>X>X>X>X>X>X>X>X>X>X>X>X>X>X>X>X>X>X>X>X>X>X>X>X>X"
};
