/* XPM */
static char *_f265be5f76440cb9ab861dafc005ac4xsr2ELksdjCktrX1[] = {
/* columns rows colors chars-per-pixel */
"44 128 233 2 ",
"   c #0A0502",
".  c #140B07",
"X  c #1A1007",
"o  c #1C140C",
"O  c #1E1611",
"+  c #23140A",
"@  c #261A0D",
"#  c #291C0C",
"$  c #231C17",
"%  c #2A1D13",
"&  c #2D2013",
"*  c #2B2419",
"=  c #322313",
"-  c #382618",
";  c #35291B",
":  c #3C2D1C",
">  c #3D301D",
",  c #1D2126",
"<  c #2C2A27",
"1  c #3B2E24",
"2  c #372F2C",
"3  c #393228",
"4  c #3E362D",
"5  c #2C2E31",
"6  c #2B3135",
"7  c #31353A",
"8  c #3A3B3B",
"9  c #422F1C",
"0  c #43321D",
"q  c #472C28",
"w  c #443523",
"e  c #4D3626",
"r  c #423429",
"t  c #48372A",
"y  c #4B3A2A",
"u  c #563A2D",
"i  c #412739",
"p  c #433C35",
"a  c #483C37",
"s  c #523E33",
"d  c #573934",
"f  c #46433C",
"g  c #4B443B",
"h  c #4C473D",
"j  c #544233",
"k  c #5B4434",
"l  c #55453B",
"z  c #5C4638",
"x  c #51493E",
"c  c #5C4A3C",
"v  c #63473B",
"b  c #69463B",
"n  c #644C3C",
"m  c #6A4C3C",
"M  c #66523D",
"N  c #6B513C",
"B  c #72573C",
"V  c #343C42",
"C  c #5A2B47",
"Z  c #623B49",
"A  c #6F2B5F",
"S  c #7B3A5E",
"D  c #75336A",
"F  c #3D4244",
"G  c #414444",
"H  c #4D4A43",
"J  c #484A4B",
"K  c #534D43",
"L  c #564A46",
"P  c #4E504D",
"I  c #565045",
"U  c #5B5346",
"Y  c #55534C",
"T  c #5A564D",
"R  c #5E594E",
"E  c #5B4951",
"W  c #4C5154",
"Q  c #555553",
"!  c #5A5652",
"~  c #5D5A53",
"^  c #51575C",
"/  c #5D5C5A",
"(  c #6A4445",
")  c #654C41",
"_  c #6A4D41",
"`  c #734A40",
"'  c #655344",
"]  c #6B5444",
"[  c #64554A",
"{  c #6D5749",
"}  c #625A4E",
"|  c #6C5A4A",
" . c #715543",
".. c #735A45",
"X. c #7B5B46",
"o. c #745449",
"O. c #79574C",
"+. c #755D4A",
"@. c #7B5D4B",
"#. c #66455A",
"$. c #724B57",
"%. c #625E54",
"&. c #6C5C52",
"*. c #67535B",
"=. c #625D59",
"-. c #725652",
";. c #7C5C52",
":. c #5F615E",
">. c #75614B",
",. c #7C624D",
"<. c #656156",
"1. c #6A6455",
"2. c #66635B",
"3. c #6A655B",
"4. c #6D695E",
"5. c #776357",
"6. c #7D6450",
"7. c #726A5E",
"8. c #79705E",
"9. c #555D62",
"0. c #6D4561",
"q. c #77466A",
"w. c #74566A",
"e. c #7C4475",
"r. c #7B5673",
"t. c #5D656A",
"y. c #5D6770",
"u. c #666661",
"i. c #696761",
"p. c #6C6A63",
"a. c #6E6E69",
"s. c #726D63",
"d. c #766967",
"f. c #726E68",
"g. c #6F706B",
"h. c #767165",
"j. c #7A7365",
"k. c #7E7867",
"l. c #74736C",
"z. c #7A756B",
"x. c #7E7A6C",
"c. c #656C75",
"v. c #6E6F71",
"b. c #697079",
"n. c #767670",
"m. c #7A7771",
"M. c #797874",
"N. c #7C7B74",
"B. c #7E7E79",
"V. c #873476",
"C. c #815F48",
"Z. c #83634B",
"A. c #836551",
"S. c #856854",
"D. c #8A6A56",
"F. c #896959",
"G. c #8B6C5A",
"H. c #8E735C",
"J. c #8B486A",
"K. c #88437D",
"L. c #87537B",
"P. c #8F7965",
"I. c #827C6D",
"U. c #87657C",
"Y. c #847477",
"T. c #827D72",
"R. c #817E79",
"E. c #7F807B",
"W. c #868174",
"Q. c #8B8476",
"!. c #82827C",
"~. c #8A877C",
"^. c #8D8A7E",
"/. c #908876",
"(. c #918B7C",
"). c #6D7781",
"_. c #707881",
"`. c #94198E",
"'. c #9D1C99",
"]. c #982E8B",
"[. c #9B3897",
"{. c #A62894",
"}. c #A93494",
"|. c #AF1AA9",
" X c #A735A5",
".X c #AE30A9",
"XX c #BD29B6",
"oX c #C216BB",
"OX c #944A8A",
"+X c #90538A",
"@X c #9D4C95",
"#X c #A4459D",
"$X c #8D6B86",
"%X c #96698B",
"&X c #8A7482",
"*X c #9D6B95",
"=X c #997893",
"-X c #A84BA3",
";X c #B04DA7",
":X c #A954A6",
">X c #BD42B9",
",X c #B464B1",
"<X c #D00FCF",
"1X c #C918C7",
"2X c #D317CF",
"3X c #D50ED3",
"4X c #D618D4",
"5X c #E40DDE",
"6X c #E217DC",
"7X c #CE24CA",
"8X c #D32CCC",
"9X c #C939C6",
"0X c #D729D5",
"qX c #D439D3",
"wX c #EA08E8",
"eX c #EC0BEB",
"rX c #F105EF",
"tX c #EA15E9",
"yX c #F405F2",
"uX c #F30BF2",
"iX c #FE02FD",
"pX c magenta",
"aX c #FB0BFA",
"sX c #F515F4",
"dX c #E722E5",
"fX c #C94FC6",
"gX c #858581",
"hX c #8B8787",
"jX c #8B8A84",
"kX c #938E83",
"lX c #918F89",
"zX c #988D8F",
"xX c #A18899",
/* pixels */
"pXpXpXpXpXpXpXpXpXpXpXpXpXpXpXpXpXpXpXpX X6X}.uXpXpXpXpXpXpXpXpXpXpXpXpXpXpXpXpXpXpXpXpX",
"pXpXpXpXpXpXpXpXpXpXpXpXpXpXpXpXrXJ.}.D * t k {.].tXpXpXpXpXpXpXpXpXpXpXpXpXpXpXpXpXpXpX",
"pXpXpXpXpXpXpXpXpXpXpXpXpXpXpXpX[ w & + % o   X r : N uXpXpXpXpXpXpXpXpXpXpXpXpXpXpXpXpX",
"pXpXpXpXpXpXpXpXpXpXpXpXpXpXpXpXy - # + o .   O % @ ; y pXpXpXpXpXpXpXpXpXpXpXpXpXpXpXpX",
"pXpXpXpXpXpXpXpXpXpXpXpXpXpXpX1Xw 0 y o o = - t o . o & V.pXpXpXpXpXpXpXpXpXpXpXpXpXpXpX",
"pXpXpXpXpXpXpXpXpXpXpXpXpXpXpXd - k = - u B N N N e + - $.pXpXpXpXpXpXpXpXpXpXpXpXpXpXpX",
"pXpXpXpXpXpXpXpXpXpXpXpXpXpXw 9 : = # N C.Z.Z.A.X.X.- + = ) OXpXpXpXpXpXpXpXpXpXpXpXpXpX",
"pXpXpXpXpXpXpXpXpXpXpXpXpXB # X = N ..r p { G.P.' c j N & % = pXpXpXpXpXpXpXpXpXpXpXpXpX",
"pXpXpXpXpXpXpXpXpXpXpXpXF.w :   e  .e ' l j 6.G.n 1 1 k   X > 0 pXpXpXpXpXpXpXpXpXpXpXpX",
"pXpXpXpXpXpXpXpXpXpXpXpXS # @ X N M 6.u +.v n H.v e k @.j   o c pXpXpXpXpXpXpXpXpXpXpXpX",
"pXpXpXpXpXpXpXpXpXpXpXpXS ; : = +.+...K % _ z S.v + 1 n ]     : pXpXpXpXpXpXpXpXpXpXpXpX",
"pXpXpXpXpXpXpXpXpXpXpXpXZ ; @ O >.6.+.N k @.@.C.6.] m  .M   1 q pXpXpXpXpXpXpXpXpXpXpXpX",
"pXpXpXpXpXpXpXpXpXpXpXpXpXt # @ @.A.A.,.S.A.A.S.X.A.6.A.n . 1 pXpXpXpXpXpXpXpXpXpXpXpXpX",
"pXpXpXpXpXpXpXpXpXpXpXpXpXD # y ..A.S.Z.Z.D. .F.X.D.S.A.n y = pXpXpXpXpXpXpXpXpXpXpXpXpX",
"pXpXpXpXpXpXpXpXpXpXpXpXpXpXp u n ,.A.G.D.m v ] b @.G.D.] b oXpXpXpXpXpXpXpXpXpXpXpXpXpX",
"pXpXpXpXpXpXpXpXpXpXpXpXpXpX% w +.,.A.G.S.+._ z X.Z.D.S.N O.pXpXpXpXpXpXpXpXpXpXpXpXpXpX",
"pXpXpXpXpXpXpXpXpXpXpXpXpXpXD & s +.6.,.] v t s.q v ,.6.% XXpXpXpXpXpXpXpXpXpXpXpXpXpXpX",
"pXpXpXpXpXpXpXpXpXpXpXpXpXpXpX|.$ ' +.6.j q . + . ;.+.{ #.pXpXpXpXpXpXpXpXpXpXpXpXpXpXpX",
"pXpXpXpXpXpXpXpXpXpXpXpXpXpXpXpX`.@ +.>.,.@.u q ( ,...c 2XpXpXpXpXpXpXpXpXpXpXpXpXpXpXpX",
"pXpXpXpXpXpXpXpXpXpXpXpXpXpXpXpXpXV.c { +.@.@.` @.6.' %.pXpXpXpXpXpXpXpXpXpXpXpXpXpXpXpX",
"pXpXpXpXpXpXpXpXpXpXpXpXpXpXpXpXpXpX&.>.] S.A.s S.+.' 8XpXpXpXpXpXpXpXpXpXpXpXpXpXpXpXpX",
"pXpXpXpXpXpXpXpXpXpXpXpXpXpXpXpXpX'.U c g t +.6.{ * ' pXpXpXpXpXpXpXpXpXpXpXpXpXpXpXpXpX",
"pXpXpXpXpXpXpXpXpXpXpXpXpXpXpXpXpX, [ n c j t l r $ [ a pXpXpXpXpXpXpXpXpXpXpXpXpXpXpXpX",
"pXpXpXpXpXpXpXpXpXpXpXpXpXpXpXpXD $ ! x L l s g x H < G qXpXpXpXpXpXpXpXpXpXpXpXpXpXpXpX",
"pXpXpXpXpXpXpXpXpXpXpXpXpXpX0XR.2 u.n.y.< g j a J 6 F ^ l.0XpXpXpXpXpXpXpXpXpXpXpXpXpXpX",
"pXpXpXpXpXpXpXpXpXpXpXpX&XB.B.N.a.c.)._.c.9.p a F hXW J :.l.l.%XpXpXpXpXpXpXpXpXpXpXpXpX",
"pXpXpXpXpXpXpXpXpXB.!.B.R.N.N.N.v.c.c.b.).b.^ 8 7 9.G F P l.l.l.a.9XpXpXpXpXpXpXpXpXpXpX",
"pXpXpXpXpXpXpXqXgX!.N.N.R.R.N.N.t.y.y.c.c.b.c., 6 J F G / l.l.m.l.l.l.8XpXpXpXpXpXpXpXpX",
"pXpXpXpXpXpXpX!.!.N.R.R.R.R.B.N.a.W 9.y.c.y.V 5 7 7 8 J l.N.N.N.N.l.l.l.%XpXpXpXpXpXpXpX",
"pXpXpXpXpXpX=XB.N.N.N.N.R.N.R.R.n.W J ^ 9.W 7 , 5 W G Y N.N.N.N.N.N.N.N.l.9XpXpXpXpXpXpX",
"pXpXpXpXpXtXN.N.m.N.N.R.R.R.!.R.N.l./ J 8 G 8 Q Q / / l.N.N.N.N.N.N.N.n.l.m.pXpXpXpXpXpX",
"pXpXpXpXpXN.N.N.l.n.N.R.!.!.R.!.R.B.N.u.2.2.l.N.N.l.N.N.N.N.N.N.N.N.n.n.l.n.pXpXpXpXpXpX",
"pXpXpXpXpXN.N.n.l.l.N.N.!.!.!.R.R.!.R.R.n.n.N.N.N.N.N.N.N.N.N.N.N.N.n.n.l.l.pXpXpXpXpXpX",
"pXpXpXpXsXl.N.l.a.n.N.B.R.!.R.R.R.!.R.R.R.B.N.N.N.B.N.N.N.N.N.N.N.l.l.l.l.l.1XpXpXpXpXpX",
"pXpXpXpX:Xl.B.n.i.m.N.N.!.!.!.R.R.R.!.R.N.N.N.B.E.B.B.B.N.N.N.N.N.l.l.a.f.l.:XpXpXpXpXpX",
"pXpXpXpXN.l.l.N.p.B.N.N.B.R.!.R.N.N.B.B.N.N.B.B.!.B.B.B.N.N.N.N.n.l.n.i.f.l.l.pXpXpXpXpX",
"pXpXpXpXN.n.N.l.a.n.N.N.N.R.R.B.N.N.N.N.N.!.E.!.!.E.B.N.N.N.N.N.l.p.N.p.l.N.l.pXpXpXpXpX",
"pXpXpXpXN.N.N.l.N.l.l.N.N.R.R.N.N.N.N.N.N.N.N.!.!.!.B.B.N.N.M.n.a.i.n.l.a.N.l.pXpXpXpXpX",
"pXpXpX3XN.N.l.l.l.l.l.n.B.B.N.N.N.N.N.N.N.N.N.B.B.N.N.N.N.N.n.l.u.l.Y a.p.M.n.fXpXpXpXpX",
"pXpXpXxXB.N.l.N.n.l.n.l.B.n.N.N.N.N.N.N.N.N.N.N.N.N.N.N.N.N.l.l.u.a.u.n.p.n.n.*XpXpXpXpX",
"pXpXpXgX!.a.l.N.l.f.m.l.N.l.N.N.N.N.N.N.N.N.N.N.N.N.B.N.n.N.a.l.u./ g.l.l.N.n.n.pXpXpXpX",
"pXpX2XjXB.l.N.N.f.p.m.m.l.l.N.N.N.N.N.N.N.N.N.N.N.N.N.N.n.N.p.n.u.2.l.i.n.n.N.B.pXpXpXpX",
"pXpXhXn.m.R.R.l.l.p.l.n.l.N.N.N.N.N.N.N.N.N.N.N.N.N.N.N.N.N.a.l.u.a.l.i.N.N.N.B.pXpXpXpX",
"pXpXjXlXp.N.N.m.f.1.f.n.l.R.N.N.N.N.N.N.N.N.N.N.N.N.N.N.N.N.a.l.Q a.l.p.M.N.N.N.pXpXpXpX",
"pXpX!.p.R I.T.s.&.! Q / l.N.N.N.N.N.N.N.N.N.N.N.N.N.N.N.N.N.a.a.Y p.a.i.N.N.N.N.pXpXpXpX",
"pXzXm.7.+.| +.5.! P 8 P / z.z.N.N.N.N.N.N.N.B.N.N.N.N.N.N.N.a.a./ p.a.l.N.N.N.N.wXpXpXpX",
"pX*XT.| ..M ] &.Q 8 2 8 ! f.z.l.z.l.N.N.N.N.N.N.N.n.N.N.N.N.l.a./ p.p.l.N.N.N.N.2XpXpXpX",
"pXuX; M ] M ] | T K p K ! s.l.l.l.l.l.N.N.N.N.N.N.n.N.N.N.N.l.a.Q p.2.l.N.N.N.N.:XpXpXpX",
"pXyXA j c j c } [ ' ' ' &.s.l.l.l.l.z.N.N.N.N.N.N.l.N.N.N.N.l.a.Y 2.i.l.N.N.N.N.U.pXpXpX",
"pXpXyXa r r a [ ] ] ] { &.i.f.l.f.l.l.m.N.N.N.N.N.l.N.N.N.N.l.l.Y ~ l.n.N.N.N.N.N.pXpXpX",
"pXpXpXwX; 4 4 g ' ' ' | 7.f.l.l.a.l.l.m.N.n.N.N.N.l.n.N.N.N.l.a.! 2.i.l.l.l.N.N.N.pXpXpX",
"pXpXpXpXyX5X6X6X:XQ H ~ f.l.l.l.f.l.l.m.N.N.N.N.N.l.n.N.N.N.l.a.2.a.l.N.!.!.!.N.N.pXpXpX",
"pXpXpXpXpXpXpXpXdXQ Q / l.N.N.N.l.l.n.l.N.n.n.N.N.n.N.N.N.N.l.a.p.a.l.l.B.N.!.R.N.8XpXpX",
"pXpXpXpXpXpXpXpXsXl.a.l.n.N.N.N.N.n.l.l.B.l.n.N.N.n.N.N.l.N.N.p.$ 4 g K K g q.1XeXpXpXpX",
"pXpXpXpXpXpXpXpXsX$Xa.a.N.!.N.N.N.n.N.n.B.N.N.N.N.N.N.N.l.N.n.i.Z c ' ] ] n k pXpXpXpXpX",
"pXpXpXpXpXpXpXpXaX$Xa.l.N.B.B.N.N.N.N.M.N.N.N.N.N.N.N.N.l.N.N.p.OXn ] +.+...( pXpXpXpXpX",
"pXpXpXpXpXpXpXpXpXl.l.n.n.N.N.N.B.N.N.N.N.N.N.N.N.N.N.N.l.N.N.l.L.c ] .... .( pXpXpXpXpX",
"pXpXpXpXpXpXpXpXpXa.l.M.M.N.N.N.N.N.N.N.N.N.N.N.N.N.N.N.l.N.z.m.#XL ' ..@. .v pXpXpXpXpX",
"pXpXpXpXpXpXpXpXpXa.N.N.N.N.N.N.N.N.N.N.N.N.N.N.N.N.B.N.l.N.n.z. X].c ] @...z pXpXpXpXpX",
"pXpXpXpXpXpXpXpXpXn.N.N.N.N.N.N.N.N.N.N.n.N.N.N.N.N.B.N.l.N.M.z.yXpXc ] +.@.n pXpXpXpXpX",
"pXpXpXpXpXpXpXpXpXN.N.N.N.N.N.N.N.N.N.B.N.N.N.N.N.B.B.B.l.n.n.z.pXpX#.] +.X.n pXpXpXpXpX",
"pXpXpXpXpXpXpXpXpX!.B.N.N.N.N.N.N.N.N.N.N.n.N.B.N.B.!.B.l.n.N.z.pXpXpX] +.X.n pXpXpXpXpX",
"pXpXpXpXpXpXpXpXuX!.B.B.N.N.N.N.N.N.N.N.N.B.N.E.N.E.E.B.l.N.m.z.pXpXpX' ..@.m pXpXpXpXpX",
"pXpXpXpXpXpXpXpX,XgXN.B.B.N.M.N.N.N.n.M.N.B.B.E.B.B.!.B.a.N.z.l.pXpXpXL  .@.m pXpXpXpXpX",
"pXpXpXpXpXpXpXpXgXB.!.!.N.N.N.N.B.N.N.N.N.N.B.B.N.B.!.B.l.N.l.l.pXpXpXV.o.@.N pXpXpXpXpX",
"pXpXpXpXpXpXpX>X!.B.!.!.N.N.N.N.N.N.N.N.N.N.B.N.N.B.!.B.l.N.l.f.uXpXpXrX] 6.m pXpXpXpXpX",
"pXpXpXpXpXpXpXjXgXgX!.gXN.N.N.N.N.N.N.N.N.N.B.B.N.E.!.!.f.l.f.f..XpXpXpX] @.b 3XpXpXpXpX",
"pXpXpXpXpXpXeXgX!.!.gXgXN.N.N.N.E.N.l.n.N.B.B.N.N.B.!.B.f.l.l.f.[.pXpXpX| ,.n oXpXpXpXpX",
"pXpXpXpXpXpXzXjXjXjXN.!.!.B.N.N.B.N.N.N.n.N.B.B.B.!.!.N.l.R.f.m.-XpXpXpX1 r 3 ].pXpXpXpX",
"pXpXpXpXpXpXN.4.jXjXjXgX!.!.!.!.N.N.n.n.gXjX!.!.B.B.!.N.i.l.f.N. XpXpXaX;.@._ '.pXpXpXpX",
"pXpXpXpXpXpXT.s.2.1.T 3.N.!.N.p./ ~ 2.2.lXjXB.N.!.gXE.!.p.l.l.p.:XpXpX}.;.@._ $.pXpXpXpX",
"pXpXpXpXpXpXT.x.h.h.1.4.3.%.~ <.s.x.I.h.~ T H f N.gXgX!.i.N.l.i.-XpXpX-.@.O.o.v pXpXpXpX",
"pXpXpXpXpXpXT.T.W.j.T.T.T.x.T.I.T.I.k.4.s.s.p.p T ~ Y f 2.N.f.f.4XpXpX-.o.b o.) pXpXpXpX",
"pXpXpXpXpXpXT.I.Q.I.T.W.I.I.T.W.I.z.h.1.s.h.x.H ~ 1.3.I I ~ s.%.[.pXpXJ.) k  .n pXpXpXpX",
"pXpXpXpXpXeXT.j.j.x.I.x.x.I.T.I.j.h.s.<.s.h.s.T %.3.2.~ 4.h.s.<.#XpXpXJ.k u o.) pXpXpXpX",
"pXpXpXpXpXhXk.x.x.x.x.x.h.I.I.x.h.s.4.%.%.%.h.<.p.4.2.%.s.j.s.<.OXpXXX] y y | C pXpXpXpX",
"pXpXpXpXpXN.k.T.x.x.x.h.s.s.s.s.s.s.3.%.h.z.T.d.h.N.j.p.s.h.4.<.L.uX-.-.s 5.0.pXpXpXpXpX",
"pXpXpXpXpXT.I.x.I.x.j.s.s.s.s.4.p.4.4.1.x.T.h.z.z.T.h.s.s.h.s.1.OXXX;.( ;.O.3XpXpXpXpXpX",
"pXpXpXpXpXN.j.j.j.j.h.s.s.s.s.p.s.4.4.K k.x.4.z.x.z.s.s.s.h.d.3.#XpXpX{.|.pXpXpXpXpXpXpX",
"pXpXpXpXpXz.x.W.x.h.j.s.s.s.s.s.p.4.4.h l.j.<.k.x.z.s.s.h.z.j.p. XpXpXpXpXpXpXpXpXpXpXpX",
"pXpXpXpXpXz.j.s.z.h.z.l.4.4.h.h.s.4.1.I z.s.s.I.x.j.d.h.j.s.h.h.XXpXpXpXpXpXpXpXpXpXpXpX",
"pXpXpXpXpXl.j.k.z.x.j.j.1.s.4.4.s.4.1.*.h.4.h.T.k.h.s.j.s.s.f.s.7XpXpXpXpXpXpXpXpXpXpXpX",
"pXpXpXpXpXl.j.h.h.z.h.4.4.4.p.p.4.1.<.OXs.7.x.x.h.s.h.h.p.p.%.s.eXpXpXpXpXpXpXpXpXpXpXpX",
"pXpXpXpXpXl.j.j.z.h.h.s.4.4.s.s.4.4.4.7Xh.z.T.N.h.f.f.h.3.~ h.z.pXpXpXpXpXpXpXpXpXpXpXpX",
"pXpXpXpXpXl.h.h.h.j.j.s.4.1.4.s.4.3.1.4X4.x.T.z.p.f.h.h.3.2.h.j.pXpXpXpXpXpXpXpXpXpXpXpX",
"pXpXpXpXpXh.h.h.h.j.j.h.p.1.p.p.4.1.2.yXs.3.h.s.4.l.l.p.2.3.z.z.pXpXpXpXpXpXpXpXpXpXpXpX",
"pXpXpXpXpXl.h.h.j.h.j.s.p.2.4.p.4.2.<.pXp.l.l.p.s.l.f.p.%.p.h.z.pXpXpXpXpXpXpXpXpXpXpXpX",
"pXpXpXpXpXN.7.s.j.z.h.j.4.1.3.p.3.2.%.pXp.h.f.p.f.h.f.3.2.f.N.j.pXpXpXpXpXpXpXpXpXpXpXpX",
"pXpXpXpXpXx.7.h.j.h.j.h.4.4.3.4.3.%.I pXi.d.f.f.h.f.h.3.3.h.z.j.pXpXpXpXpXpXpXpXpXpXpXpX",
"pXpXpXpXpXz.s.h.j.h.j.d.4.4.3.4.3.%.I pX3.f.p.f.l.h.f.%.3.h.x.l.pXpXpXpXpXpXpXpXpXpXpXpX",
"pXpXpXpXpXj.s.f.j.j.j.d.4.4.2.3.2.%.E pX2.p.f.l.l.h.p.~ i.l.N.l.pXpXpXpXpXpXpXpXpXpXpXpX",
"pXpXpXpXpXz.s.s.h.j.h.s.4.4.2.1.2.R  XpX2.p.z.f.l.l.4.~ p.l.R.p.pXpXpXpXpXpXpXpXpXpXpXpX",
"pXpXpXpXpXN.h.s.s.j.h.s.4.4.3.2.%.I wXpX2.p.s.l.l.f.2.%.f.l.N.d.pXpXpXpXpXpXpXpXpXpXpXpX",
"pXpXpXpXpXm.h.4.s.h.s.s.1.3.2.<.2.K pXpX~ p.s.l.l.p.%.2.f.z.N.@XpXpXpXpXpXpXpXpXpXpXpXpX",
"pXpXpXpXpXY.s.3.4.s.s.s.1.2.2.2.%.H pXpX! 3.h.l.l.i.~ 3.l.z.z.yXpXpXpXpXpXpXpXpXpXpXpXpX",
"pXpXpXpXpXY.s.3.4.4.s.s.1.<.2.2.~ *.pXpX/ 3.f.l.l.2.~ i.l.z.h.pXpXpXpXpXpXpXpXpXpXpXpXpX",
"pXpXpXpXpX&X7.3.1.4.4.s.1.%.2.%.T OXpXpX=.2.l.l.s.%.2.p.z.N.2.pXpXpXpXpXpXpXpXpXpXpXpXpX",
"pXpXpXpXpXU.3.<.1.1.1.4.1.~ %.~ T [.pXpX1X/ f.f.3.%.2.f.N.N.Y pXpXpXpXpXpXpXpXpXpXpXpXpX",
"pXpXpXpXpX-X7.4.<.1.<.1.3.R %.! Y <XpXpXpX! f.p.3.~ 2.h.N.N.L pXpXpXpXpXpXpXpXpXpXpXpXpX",
"pXpXpXpXpX0Xs.s.%.<.%.%.1.} %.T K 3XpXpXpX#.l.i.~ 2.i.l.R.l.L pXpXpXpXpXpXpXpXpXpXpXpXpX",
"pXpXpXpXpXuX<.1.<.%.<.<.2.%.R R I 2XpXpXpXoXp.%.=.3.p.z.N.f.L pXpXpXpXpXpXpXpXpXpXpXpXpX",
"pXpXpXpXpXpX7.4.1.<.%.%.<.%.R %.g 3XpXpXpXpX3.=.=.i.f.N.N.i.L pXpXpXpXpXpXpXpXpXpXpXpXpX",
"pXpXpXpXpXpX<.s.4.<.%.~ %.<.I x H pXpXpXpX+X=.~ 2.p.z.N.z.=.E pXpXpXpXpXpXpXpXpXpXpXpXpX",
"pXpXpXpXpXpX1.1.7.%.%.~ ~ %.R R K pXpXpXpX=.~ %.2.f.N.N.l.~ E pXpXpXpXpXpXpXpXpXpXpXpXpX",
"pXpXpXpXpXpX4.%.1.1.R ~ ~ T <.U K pXpXpXXX~ %.%.p.N.N.N.f.Y 0.pXpXpXpXpXpXpXpXpXpXpXpXpX",
"pXpXpXpXpXpXs.%.%.1.%.~ T T %.R 1.$XpXpXw.%.%.2.f.N.N.m.s.f e.pXpXpXpXpXpXpXpXpXpXpXpXpX",
"pXpXpXpXpXpXd.U R <.%.T I I I 1.j.x.>XpX.X~ 2.s.z.R.R.N.3.f e.pXpXpXpXpXpXpXpXpXpXpXpXpX",
"pXpXpXpXpXpXU.U K I x K K K K U 3.7.h.pXpX%.p.z.N.R.R.z.2.f K.pXpXpXpXpXpXpXpXpXpXpXpXpX",
"pXpXpXpXpXpXuX7.7.U I K K K h h I } R pXpXh f.z.x.N.x.z.%.g 3XpXpXpXpXpXpXpXpXpXpXpXpXpX",
"pXpXpXpXpXpXpX%Xj.j.j.j.j.4.x x h x U pXl.h I p.h.x.z.f.g p pXpXpXpXpXpXpXpXpXpXpXpXpXpX",
"pXpXpXpXpXpXpXpXY.8.j.j.j.j.7.4.} h f pX4.1.} T 4.s.z.4.f H pXpXpXpXpXpXpXpXpXpXpXpXpXpX",
"pXpXpXpXpXpXpXpXpXj.j.j.8.j.j.j.s.%.yX@Xx.I.x.7.%.%.f.3.4 r.pXpXpXpXpXpXpXpXpXpXpXpXpXpX",
"pXpXpXpXpXpXpXpXpXs.R 1.j.j.j.s.* A pXpXj.I.I.I.h.1.%.%.~ pXpXpXpXpXpXpXpXpXpXpXpXpXpXpX",
"pXpXpXpXpXpXpXpXxXN.~.W.} 1.%.I I e.pXpXpX%.j.x.I.T.T.p U.pXpXpXpXpXpXpXpXpXpXpXpXpXpXpX",
"pXpXpXpXpXpXpXpXz.jX~.^.h.g H < i pXpXpXpXr.%.7.j.I.3.R pXpXpXpXpXpXpXpXpXpXpXpXpXpXpXpX",
"pXpXpXpXpXpXpXjXkX^.^.z.s.T.L pXpXpXpXpXpXpXi.2.~ f ! <.pXpXpXpXpXpXpXpXpXpXpXpXpXpXpXpX",
"pXpXpXpXpXpXkX~.T.kXk.z.!.~ pXpXpXpXpXpXpXpXjXx.~.W.!.N.pXpXpXpXpXpXpXpXpXpXpXpXpXpXpXpX",
"pXpXpXpXpX%XkXkX(.x.x.s.p.2XpXpXpXpXpXpXpXpXgXx.R.~.R.l.;XpXpXpXpXpXpXpXpXpXpXpXpXpXpXpX",
"pXpXpXpXpX(.Q.(.Q.W.x.W.[.pXpXpXpXpXpXpXpXpX=XW.x.~.R.k.T.pXpXpXpXpXpXpXpXpXpXpXpXpXpXpX",
"pXpXpXpXpX(.Q.(.Q.I.I.x.pXpXpXpXpXpXpXpXpXpX@Xh.W.h.s.3.W.pXpXpXpXpXpXpXpXpXpXpXpXpXpXpX",
"pXpXpXpX-X(.(.T.I.Q.7.! pXpXpXpXpXpXpXpXpXpX8Xj.W.T.W.W.T.8XpXpXpXpXpXpXpXpXpXpXpXpXpXpX",
"pXpXpXpX9XQ./.I.I.7.*.pXpXpXpXpXpXpXpXpXpXpXeXI.T.T.I.T.I.<XpXpXpXpXpXpXpXpXpXpXpXpXpXpX",
"pXpXpXpXpX<.1.} 1.w.pXpXpXpXpXpXpXpXpXpXpXpXpXT.T.I.I.I.Q.pXpXpXpXpXpXpXpXpXpXpXpXpXpXpX",
"pXpXpXpXpXpXrX|.pXpXpXpXpXpXpXpXpXpXpXpXpXpXpXW.Q.k.I.I.x.pXpXpXpXpXpXpXpXpXpXpXpXpXpXpX",
"pXpXpXpXpXpXpXpXpXpXpXpXpXpXpXpXpXpXpXpXpXpXpX*XW.I.Q.Q.} pXpXpXpXpXpXpXpXpXpXpXpXpXpXpX",
"pXpXpXpXpXpXpXpXpXpXpXpXpXpXpXpXpXpXpXpXpXpXpXpXx.s.1.x 3XpXpXpXpXpXpXpXpXpXpXpXpXpXpXpX",
"pXpXpXpXpXpXpXpXpXpXpXpXpXpXpXpXpXpXpXpXpXpXpXpXpXpXpXpXpXpXpXpXpXpXpXpXpXpXpXpXpXpXpXpX",
"pXpXpXpXpXpXpXpXpXpXpXpXpXpXpXpXpXpXpXpXpXpXpXpXpXpXpXpXpXpXpXpXpXpXpXpXpXpXpXpXpXpXpXpX"
};
