/* XPM */
static char * leny_idle_xpm[] = {
"44 128 195 2",
"  	c #FF00FF",
". 	c #784865",
"+ 	c #6F355C",
"@ 	c #C721C1",
"# 	c #D226CD",
"$ 	c #645449",
"% 	c #453A2D",
"& 	c #433C34",
"* 	c #342C24",
"= 	c #4B3C32",
"- 	c #524A3E",
"; 	c #99428E",
"> 	c #6A4848",
", 	c #3A2B23",
"' 	c #2B2116",
") 	c #2D2A27",
"! 	c #191714",
"~ 	c #2C231C",
"{ 	c #3C3025",
"] 	c #5B5345",
"^ 	c #C43CBE",
"/ 	c #524335",
"( 	c #281C16",
"_ 	c #EA1AE7",
": 	c #655345",
"< 	c #6B5444",
"[ 	c #73554A",
"} 	c #463627",
"| 	c #413328",
"1 	c #C542C1",
"2 	c #523B2E",
"3 	c #7A5947",
"4 	c #82624D",
"5 	c #836453",
"6 	c #715644",
"7 	c #34261C",
"8 	c #69535B",
"9 	c #E22BE1",
"0 	c #7D624E",
"a 	c #704957",
"b 	c #6A4D3D",
"c 	c #745A46",
"d 	c #7C6353",
"e 	c #836857",
"f 	c #83685A",
"g 	c #745C4C",
"h 	c #372E2B",
"i 	c #5C4C43",
"j 	c #140C06",
"k 	c #5C4B3C",
"l 	c #776357",
"m 	c #523D34",
"n 	c #634D43",
"o 	c #644D3C",
"p 	c #765869",
"q 	c #5B443B",
"r 	c #55443B",
"s 	c #725D53",
"t 	c #7B5D4C",
"u 	c #4B372C",
"v 	c #6B564A",
"w 	c #251E1B",
"x 	c #4B453B",
"y 	c #623E4F",
"z 	c #7B5D51",
"A 	c #6D5C51",
"B 	c #534D43",
"C 	c #753767",
"D 	c #474237",
"E 	c #6A6455",
"F 	c #3B332B",
"G 	c #6C5A4B",
"H 	c #755755",
"I 	c #6A4C43",
"J 	c #62443E",
"K 	c #643F3C",
"L 	c #66455A",
"M 	c #D10FCF",
"N 	c #853178",
"O 	c #4E4136",
"P 	c #625E54",
"Q 	c #EA0AE9",
"R 	c #463C38",
"S 	c #1D2126",
"T 	c #743370",
"U 	c #5A5652",
"V 	c #4D4A43",
"W 	c #414444",
"X 	c #867D7E",
"Y 	c #32322E",
"Z 	c #666661",
"` 	c #767670",
" .	c #5D6770",
"..	c #484A4B",
"+.	c #2B3135",
"@.	c #3D4244",
"#.	c #51575C",
"$.	c #74736C",
"%.	c #AD67A9",
"&.	c #837D7E",
"*.	c #7C7B74",
"=.	c #6E6E69",
"-.	c #656C75",
";.	c #6D7781",
">.	c #707881",
",.	c #555D62",
"'.	c #8B8787",
").	c #4C5154",
"!.	c #5F615E",
"~.	c #C855C4",
"{.	c #937D8E",
"].	c #6E6F71",
"^.	c #697079",
"/.	c #3A3B3B",
"(.	c #31353A",
"_.	c #4E504D",
":.	c #8E828A",
"<.	c #5D656A",
"[.	c #5D5C5A",
"}.	c #7A756B",
"|.	c #7A7771",
"1.	c #343C42",
"2.	c #2C2E31",
"3.	c #D544D2",
"4.	c #C363C0",
"5.	c #55534C",
"6.	c #555553",
"7.	c #66635B",
"8.	c #777872",
"9.	c #7E7E79",
"0.	c #6F706B",
"a.	c #696761",
"b.	c #7F807B",
"c.	c #726E68",
"d.	c #6C6A63",
"e.	c #82827C",
"f.	c #998894",
"g.	c #8B8A84",
"h.	c #817E79",
"i.	c #918F89",
"j.	c #5A564D",
"k.	c #827C6D",
"l.	c #827D72",
"m.	c #726D63",
"n.	c #726A5E",
"o.	c #E143DF",
"p.	c #68523E",
"q.	c #544C4A",
"r.	c #625A4E",
"s.	c #97618E",
"t.	c #82767E",
"u.	c #5D5A53",
"v.	c #BB5AB7",
"w.	c #584135",
"x.	c #935089",
"y.	c #F21AF1",
"z.	c #F12FF0",
"A.	c #E61DE5",
"B.	c #97938B",
"C.	c #FC0AFC",
"D.	c #D717D5",
"E.	c #6D695E",
"F.	c #858581",
"G.	c #6A655B",
"H.	c #7E7A6C",
"I.	c #767165",
"J.	c #656156",
"K.	c #46433C",
"L.	c #868174",
"M.	c #7A7365",
"N.	c #7E7867",
"O.	c #8B8476",
"P.	c #565045",
"Q.	c #8A4A6E",
"R.	c #573B33",
"S.	c #5A2B47",
"T.	c #766967",
"U.	c #6D4561",
"V.	c #EE0EEB",
"W.	c #4E493E",
"X.	c #5B4951",
"Y.	c #5E594E",
"Z.	c #847477",
"`.	c #625D59",
" +	c #574645",
".+	c #7C4475",
"++	c #79705E",
"@+	c #7B5673",
"#+	c #A18899",
"$+	c #8A877C",
"%+	c #8D8A7E",
"&+	c #412739",
"*+	c #938E83",
"=+	c #918B7C",
"-+	c #908876",
"                                                                                        ",
"                                        . + @   #                                       ",
"                                $ # + % & * % = - ;                                     ",
"                                > , ' ) ! ! ~ { { % ] ^                                 ",
"                                / * ~ ~ ! ~ ( ( ( * - $                                 ",
"                              _ % ' ' = : < < [ } % | , 1                               ",
"                            = { | 2 < 3 4 5 5 4 6 = | 7 8 ; 9                           ",
"                            / = 7 2 0 4 4 5 5 4 3 < } { * =                             ",
"                          a % ( ( b c d d e e f g 6 6 , h { 9                           ",
"                          i & j k [ : / l e g m n : o n ! * p                           ",
"                          % { j i q n r k g < q s q < $ ) * .                           ",
"                          i * ( i i i , : t [ < u = v v w x                             ",
"                          y ( ( $ n i $ v f [ t [ z z A = B                             ",
"                          C ~ ~ i f e d [ d g z d 5 t l n i                             ",
"                            D , o s d 5 n , , [ 5 d g E v v                             ",
"                            F 7 k G z t s r i g d g [ A = H                             ",
"                            C h s v g g I J K q u g < $ &                               ",
"                                ~ : G u m > > < G : ] h L                               ",
"                                M i k $ v v < d G i k 7                                 ",
"                                  N k k < v v : O O r P                                 ",
"                                    A = * ) w w * r :                                   ",
"                                  Q ] k O F F R r o :                                   ",
"                                  S $ b k / O O q : $ R                                 ",
"                                T w U - i r m O - V ) W                                 ",
"                              X Y Z `  .) D / = ..+.@.#.$.                              ",
"                        %.&.&.*.=.-.;.>.-.,.& R @.'.)...!.$.$.~.                        ",
"                  &.{.&.X *.*.*.].-.-.^.;.^.#./.(.,.W @._.$.$.$.=.                      ",
"                :.{.*.*.X X *.*.<. . .-.-.^.-.S +...@...[.}.}.|.}.$.$.                  ",
"              {.{.*.X X X X &.*.=.).,. .-. .1.2.(.(./...$.*.*.*.*.}.$.$.3.              ",
"            4.&.*.*.*.*.X *.X X ` )...#.,.).(.S 2.).W 5.*.*.*.*.*.*.*.*.$.              ",
"            *.*.|.*.*.X X X {.X *.$.[.../.W /.6.6.[.[.$.*.*.*.*.*.*.*.` $.|.            ",
"          *.*.*.$.` *.X {.{.X {.X &.*.Z 7.7.$.*.*.$.8.*.*.*.*.*.*.*.` ` $.`             ",
"          *.*.` $.}.*.*.{.{.{.X X {.X X ` ` *.*.*.*.*.*.*.*.*.*.*.*.` ` $.$.            ",
"          }.*.}.=.` *.&.X {.X X X {.X X X &.*.*.*.9.*.*.*.*.*.*.*.}.$.}.$.0.            ",
"          $.9.` a.|.*.*.{.{.{.X X X {.X *.*.*.9.b.9.9.9.*.*.*.*.8.$.$.=.c.$.            ",
"        *.0.$.*.d.9.*.*.&.X {.X *.*.&.&.*.*.9.9.e.9.9.9.*.*.*.*.` $.` a.c.$.$.          ",
"        *.` 8.}.=.` *.*.*.X X &.*.*.*.*.*.e.b.e.e.b.9.*.*.*.*.*.}.=.*.d.$.*.$.          ",
"        *.*.*.}.*.$.}.*.*.X X *.*.*.*.*.*.*.*.e.e.e.9.9.*.*.8.` =.a.` $.=.*.$.          ",
"        *.*.0.}.$.$.}.` &.&.*.*.*.*.*.*.*.*.*.9.9.*.*.*.*.*.` $.Z $.5.=.d.*.`           ",
"      f.&.*.}.*.` $.` }.&.` *.*.*.*.*.*.*.*.*.*.*.*.*.*.*.*.$.$.Z =.Z ` d.` ` 3.        ",
"      :.{.=.}.*.$.c.|.$.*.$.*.*.*.*.*.*.*.*.*.*.*.*.9.*.` *.=.$.Z [.0.$.$.*.` `         ",
"      g.&.$.*.*.c.d.|.|.}.}.*.*.*.*.*.*.*.*.*.*.*.*.*.*.` *.d.` Z 7.$.a.` ` *.&.        ",
"    '.` |.h.h.$.$.d.$.` $.*.*.*.*.*.*.*.*.*.*.*.*.*.*.*.*.*.=.$.Z =.$.Z *.*.*.&.        ",
"    g.i.d.*.*.|.c.E c.}.}.h.*.*.*.*.*.*.*.*.*.*.*.*.*.*.*.*.=.$.6.=.$.d.8.*.*.*.        ",
"    {.d.j.k.l.m.A U 6.[.$.*.*.*.*.*.*.*.*.*.*.*.*.*.*.*.*.*.=.=.5.d.=.a.*.*.*.*.        ",
"  f.|.n.g G g l U _./._.[.}.}.*.*.*.*.*.*.*.9.*.*.*.*.*.*.8.=.=.[.d.=.$.*.*.*.*.        ",
"  o.l.G c p.< A 6./.Y /.U c.}.}.}.}.*.*.*.*.*.*.*.` *.*.*.*.$.=.[.d.d.}.*.*.*.*.        ",
"    7 p.< p.< G j.B & q.U m.$.$.}.$.}.*.*.*.*.*.*.` *.*.*.*.$.=.6.d.7.$.*.*.*.*.        ",
"    + / r r k r.v : : : A m.$.$.$.$.}.*.*.*.*.*.*.}.*.*.*.*.$.=.5.7.a.$.*.*.*.*.s.      ",
"      & | | O $ < < < v A a.$.$.c.$.$.|.*.*.*.*.*.$.*.*.*.*.$.0.5.[.$.` *.*.*.*.t.      ",
"        ~ F F O : : : v n.c.$.$.=.$.$.|.*.` *.*.*.$.` *.*.*.}.=.6.7.a.$.}.}.*.*.*.      ",
"                  6.V u.c.}.}.}.=.$.$.|.*.*.*.*.*.}.` *.*.*.}.=.7.=.$.*.{.{.{.*.*.      ",
"                  6.6.[.$.*.*.*.}.$.` $.*.` ` *.*.` *.*.*.*.$.=.d.=.}.}.&.*.{.X *.      ",
"                  $.=.$.` *.*.` *.` }.$.9.}.` *.*.` *.*.}.*.*.d.w F D B B x .           ",
"                  v.=.=.*.e.*.*.*.` *.` 9.*.*.*.*.*.*.*.}.*.` a.y k : < < b w.          ",
"                  v.=.$.*.9.9.*.*.*.*.8.*.*.*.*.*.*.*.*.}.*.*.d.; o < g g 6 >           ",
"                  $.$.` ` *.*.*.9.*.*.*.*.*.*.*.*.*.*.*.}.*.*.$.x.k < 6 c 6 n           ",
"                  =.$.8.8.*.*.*.*.*.*.*.*.*.*.*.*.*.*.*.}.*.}.|.y.i : 6 3 6 J           ",
"                  =.*.*.*.*.*.*.*.*.*.*.*.*.*.*.*.*.9.*.$.*.` }.  @ k < 0 c q           ",
"                  ` *.*.*.*.*.*.*.*.*.*.` *.*.*.*.*.9.*.}.*.8.}.    k < g 3 o           ",
"                  *.*.*.*.*.*.*.*.*.*.9.*.*.*.*.*.9.9.9.}.` ` }.    L < g 3 o           ",
"                  {.&.*.*.*.*.*.*.*.*.*.*.` *.9.*.9.e.9.$.` *.}.      < g 3 b           ",
"                  {.&.&.*.*.*.*.*.*.*.*.*.9.*.b.*.b.b.9.$.*.|.}.      : c 3 b           ",
"                z.:.*.&.&.*.8.*.*.*.` 8.*.9.9.b.9.9.e.9.=.*.}.$.      i 6 t b           ",
"                :.&.{.{.*.*.*.*.9.*.*.*.*.*.9.9.*.9.e.9.$.*.}.$.      N [ t p.          ",
"                {.&.{.{.*.*.*.*.*.*.*.*.*.*.9.*.*.9.e.9.$.*.$.c.        < d b           ",
"              g.:.:.{.:.*.*.*.*.*.*.*.*.*.*.9.9.*.b.e.e.c.$.c.c.        < t b           ",
"              :.{.{.:.:.*.*.*.*.b.*.}.` *.9.9.*.*.9.e.9.c.$.$.c.A.      G 0 o           ",
"            B.g.g.g.*.{.{.&.*.*.9.*.*.*.` *.9.9.9.e.e.*.}.h.c.|.C.      , | h D.        ",
"            *.E.g.g.g.:.{.{.{.{.*.*.` ` F.g.e.e.9.9.e.*.a.$.c.*.        z t I Q         ",
"            l.m.7.E j.G.*.{.*.d.[.u.7.7.i.g.9.8.e.F.b.e.d.}.$.d.      _ z t I a         ",
"            l.H.I.I.E E.G.P u.J.m.H.H.I.u.j.V K.*.F.F.e.a.*.$.a.      [ t 3 [ o         ",
"            l.l.L.M.l.l.l.H.l.k.l.k.N.E.m.m.d.& j.u.5.K.7.*.c.c.      a [ b [ I         ",
"            l.k.O.k.l.L.k.k.l.L.k.}.I.E m.I.H.V u.E G.P.P.u.m.P A.    Q.n R.6 o         ",
"            l.M.M.H.k.H.H.k.l.k.M.I.m.J.m.I.m.j.P G.7.u.E.I.m.J.y.    Q.q 2 [ n         ",
"          '.N.H.H.H.H.H.I.k.k.H.I.m.E.P P P I.J.d.E.7.P m.M.m.J.^     < u u v S.        ",
"          *.N.l.H.H.H.I.m.m.m.m.m.m.G.P I.}.l.T.I.*.M.d.m.I.E.J.x.  H s R.d U.          ",
"          l.k.H.k.H.M.m.m.m.m.E.d.E.E.E H.l.I.}.}.l.I.m.m.I.m.E ^   z I z [             ",
"          *.M.M.M.M.I.m.m.m.m.d.m.E.E.B N.H.E.}.H.}.m.m.m.I.T.G.y.    V.                ",
"          }.H.L.H.I.M.m.m.m.m.m.d.E.E.W.$.M.J.N.H.}.m.m.I.}.M.d.                        ",
"          }.M.m.}.I.}.$.E.E.I.I.m.E.E P.}.m.m.k.H.M.T.I.M.m.I.I.                        ",
"          $.M.N.}.H.M.M.E m.E.E.m.E.E 8 I.E.I.l.N.I.m.M.m.m.c.m.                        ",
"          $.M.I.I.}.I.E.E.E.d.d.E.E J.^ m.n.H.H.I.m.I.I.d.d.P m.                        ",
"          $.M.M.}.I.I.m.E.E.m.m.E.E.E.  I.}.l.*.I.c.c.I.G.u.I.}.                        ",
"          $.I.I.I.M.M.m.E.E E.m.E.G.E   E.H.l.}.d.c.I.I.G.7.I.M.                        ",
"          I.I.I.I.M.M.I.d.E d.d.E.E 7.  m.G.I.m.E.$.$.d.7.G.}.}.                        ",
"          $.I.I.M.I.M.m.d.7.E.d.E.7.J.  d.$.$.d.m.$.c.d.P d.I.}.                        ",
"          *.n.m.M.}.I.M.E.E G.d.G.7.P   d.I.c.d.c.I.c.G.7.c.*.M.                        ",
"          H.n.I.M.I.M.I.E.E.G.E.G.P P.  a.T.c.c.I.c.I.G.G.I.}.M.                        ",
"          }.m.I.M.I.M.T.E.E.G.E.G.P P.  G.c.d.c.$.I.c.P G.I.H.}.                        ",
"          M.m.c.M.M.M.T.E.E.7.G.7.P X.  7.d.c.$.$.I.d.u.a.$.*.$.                        ",
"          }.m.m.I.M.I.m.E.E.7.E 7.Y.    7.d.}.$.$.$.E.u.d.$.h.d.                        ",
"          *.I.m.m.M.I.m.E.E.G.7.P P.    7.d.m.$.$.c.7.P c.$.*.T.                        ",
"          |.I.E.m.I.m.m.E G.7.J.7.B     u.d.m.$.$.d.P 7.c.}.*.9                         ",
"          Z.m.G.E.m.m.m.E 7.7.7.P V     U G.I.$.$.a.u.G.$.}.}.                          ",
"          Z.m.G.E.E.m.m.E J.7.7.u.8     [.G.c.$.$.7.u.a.$.}.I.                          ",
"          %.n.G.E E.E.m.E P 7.P j.^     `.7.$.$.m.P 7.d.}.*.7.                          ",
"          s.G.J.E E E E.E u.P u.j.A.      [.c.c.G.P 7.c.*.*.5.                          ",
"          C.n.E.J.E J.E G.Y.P u.5.        U c.d.G.u.7.I.*.*.q.                          ",
"            m.m.P J.P P E r.P j.B         L $.a.u.7.a.$.h.$.q.                          ",
"            J.E J.P J.J.7.P Y.Y.P.          d.P `.G.d.}.*.c.q.                          ",
"            n.E.E J.P P J.P Y.P x           G.`.`.a.c.*.*.a. +                          ",
"            J.m.E.J.P u.P J.P.- V         1 `.u.7.d.}.*.}.`.X.                          ",
"            E E n.P P u.u.P Y.j.B         `.u.P 7.c.*.*.$.u.X.                          ",
"            E.P E E j.u.u.j.J.] B         u.P P d.*.*.*.c.5.U.                          ",
"            m.P P E P u.j.j.P Y.E v.    p P P 7.c.*.*.|.m.K..+                          ",
"            T.] j.J.P j.P.P.P.E N.H.      u.7.m.}.h.h.*.G.K..+                          ",
"            s.] B P.- B B B B 5.G.n.I.    P d.}.*.h.h.}.7.K.;                           ",
"              n.n.] P.B B B W.x P.r.Y.    W.c.}.H.*.H.}.P x                             ",
"              ~.M.M.M.M.M.E.- - x - ]   $.x P.d.I.H.}.c.x &                             ",
"                Z.++M.M.M.M.n.E.r.x D   E.E r.j.E.m.}.E.K.V                             ",
"                  M.M.M.++M.M.M.m.P   9 N.k.H.n.P P c.G.F @+                            ",
"                  m.Y.E M.M.M.m.' +     M.k.k.k.I.E P P u.                              ",
"                #+*.$+L.r.E P P.P..+      P M.H.k.l.l.& s.                              ",
"                }.g.$+%+I.x V ) &+        @+P n.M.k.G.Y.                                ",
"              g.*+%+%+}.m.l. +              a.7.u.K.U J.                                ",
"            *+$+l.*+N.}.e.u.                g.H.$+L.e.*.                                ",
"          ~.*+*+=+H.H.m.d.                  :.H.h.$+h.$.                                ",
"          =+O.=+O.L.H.L.A.                  4.L.H.$+h.N.l.                              ",
"          =+O.=+O.k.k.H.                    9 I.L.I.m.G.L.                              ",
"        C.=+=+l.k.O.n.U                       M.L.l.L.L.l.                              ",
"          O.-+k.k.n.8                         k.l.l.k.l.k.                              ",
"          J.E r.E p                           l.l.k.k.k.O.                              ",
"                                              L.O.N.k.k.H.                              ",
"                                              o.L.k.O.O.r.                              ",
"                                                H.m.E -                                 ",
"                                                                                        ",
"                                                                                        "};
