/* XPM */
static char * now_xpm[] = {
"64 64 578 2",
"  	c #070602",
". 	c #080602",
"+ 	c #070702",
"@ 	c #29150E",
"# 	c #27140D",
"$ 	c #190D07",
"% 	c #190D06",
"& 	c #26140D",
"* 	c #28150E",
"= 	c #080702",
"- 	c #25140C",
"; 	c #1D0F09",
"> 	c #1D1009",
", 	c #2B1610",
"' 	c #2C170F",
") 	c #2C160F",
"! 	c #2B160F",
"~ 	c #2D1710",
"{ 	c #2C1710",
"] 	c #1E100A",
"^ 	c #1C0F09",
"/ 	c #2B170F",
"( 	c #29160E",
"_ 	c #190C07",
": 	c #190C06",
"< 	c #24130D",
"[ 	c #27140E",
"} 	c #0A0703",
"| 	c #2A160F",
"1 	c #1C0E08",
"2 	c #1B0E07",
"3 	c #26130D",
"4 	c #28140D",
"5 	c #2A150F",
"6 	c #1F100A",
"7 	c #1E0F09",
"8 	c #170B06",
"9 	c #170C06",
"0 	c #1F1009",
"a 	c #0A0702",
"b 	c #0F0904",
"c 	c #512B1F",
"d 	c #4F281D",
"e 	c #311810",
"f 	c #341A12",
"g 	c #4F291D",
"h 	c #50291E",
"i 	c #4C271C",
"j 	c #3C1F16",
"k 	c #3D1F17",
"l 	c #542B1F",
"m 	c #552B1E",
"n 	c #532A1E",
"o 	c #552B1F",
"p 	c #562B1F",
"q 	c #562C1F",
"r 	c #3B1F16",
"s 	c #3B1E16",
"t 	c #51291E",
"u 	c #532B1E",
"v 	c #542B1E",
"w 	c #522A1E",
"x 	c #2F170F",
"y 	c #4D281D",
"z 	c #4F291E",
"A 	c #50291D",
"B 	c #3C1E16",
"C 	c #4C261B",
"D 	c #50281D",
"E 	c #52291D",
"F 	c #552A1E",
"G 	c #532A1D",
"H 	c #402118",
"I 	c #3F2118",
"J 	c #4F281C",
"K 	c #4D271C",
"L 	c #4E281D",
"M 	c #2F1710",
"N 	c #170D07",
"O 	c #4B271C",
"P 	c #341B13",
"Q 	c #351B13",
"R 	c #48251A",
"S 	c #060501",
"T 	c #070501",
"U 	c #4A271C",
"V 	c #47251B",
"W 	c #3E2017",
"X 	c #51291D",
"Y 	c #3A1F16",
"Z 	c #331911",
"` 	c #311811",
" .	c #150C06",
"..	c #4E281C",
"+.	c #52291E",
"@.	c #3A1D15",
"#.	c #391D15",
"$.	c #49251B",
"%.	c #4E271C",
"&.	c #4C271D",
"*.	c #391D16",
"=.	c #49261C",
"-.	c #48261C",
";.	c #301811",
">.	c #3E2118",
",.	c #130B06",
"'.	c #0B0803",
").	c #2F1812",
"!.	c #422319",
"~.	c #412219",
"{.	c #2F1811",
"].	c #351C15",
"^.	c #361C14",
"/.	c #4D291E",
"(.	c #201311",
"_.	c #1E1311",
":.	c #211411",
"<.	c #231410",
"[.	c #321A12",
"}.	c #311912",
"|.	c #1C1210",
"1.	c #2E1710",
"2.	c #3E2018",
"3.	c #3A1E16",
"4.	c #381D15",
"5.	c #291611",
"6.	c #291510",
"7.	c #3D2118",
"8.	c #3D2017",
"9.	c #3D2018",
"0.	c #110A05",
"a.	c #4A261B",
"b.	c #331912",
"c.	c #311911",
"d.	c #1D1210",
"e.	c #301911",
"f.	c #1F1310",
"g.	c #1D1311",
"h.	c #1C1310",
"i.	c #1B1210",
"j.	c #1B120F",
"k.	c #391F16",
"l.	c #2E1711",
"m.	c #0D0804",
"n.	c #0B0703",
"o.	c #2F1912",
"p.	c #2D170F",
"q.	c #3B1F17",
"r.	c #2E1811",
"s.	c #371D15",
"t.	c #221411",
"u.	c #241511",
"v.	c #261611",
"w.	c #331A12",
"x.	c #241612",
"y.	c #231512",
"z.	c #2C1610",
"A.	c #391E16",
"B.	c #351C14",
"C.	c #3A1F17",
"D.	c #100A05",
"E.	c #060602",
"F.	c #47261B",
"G.	c #4B261C",
"H.	c #381C14",
"I.	c #361B13",
"J.	c #1F130F",
"K.	c #1E1310",
"L.	c #201411",
"M.	c #361D15",
"N.	c #2D1711",
"O.	c #2E1810",
"P.	c #0F0905",
"Q.	c #381E15",
"R.	c #1D1310",
"S.	c #44231A",
"T.	c #442319",
"U.	c #331B13",
"V.	c #48251B",
"W.	c #4A261C",
"X.	c #1B110F",
"Y.	c #1D120F",
"Z.	c #0B0804",
"`.	c #2F1810",
" +	c #402218",
".+	c #1F1412",
"++	c #19100E",
"@+	c #19100D",
"#+	c #100904",
"$+	c #1F1311",
"%+	c #45241A",
"&+	c #44241A",
"*+	c #321A13",
"=+	c #49261B",
"-+	c #221410",
";+	c #1C1311",
">+	c #301912",
",+	c #321B13",
"'+	c #4C281D",
")+	c #1A110F",
"!+	c #1E1411",
"~+	c #1F1411",
"{+	c #190F0D",
"]+	c #311A12",
"^+	c #2B1710",
"/+	c #361C13",
"(+	c #2C1812",
"_+	c #2C1711",
":+	c #1B1310",
"<+	c #211410",
"[+	c #1A110E",
"}+	c #1A100E",
"|+	c #1E1412",
"1+	c #2D1811",
"2+	c #2F1911",
"3+	c #331B12",
"4+	c #201310",
"5+	c #0A0803",
"6+	c #2A1610",
"7+	c #180F0E",
"8+	c #201512",
"9+	c #211612",
"0+	c #1D1411",
"a+	c #160C0B",
"b+	c #150D0B",
"c+	c #261511",
"d+	c #1C120F",
"e+	c #271610",
"f+	c #2A1711",
"g+	c #180F0D",
"h+	c #160D0B",
"i+	c #150C0B",
"j+	c #080703",
"k+	c #180E0C",
"l+	c #241510",
"m+	c #170E0C",
"n+	c #130C0A",
"o+	c #0C0905",
"p+	c #0C0904",
"q+	c #0D0905",
"r+	c #0A0804",
"s+	c #0A0704",
"t+	c #0F0A06",
"u+	c #0E0905",
"v+	c #0E0A05",
"w+	c #110B06",
"x+	c #110A06",
"y+	c #0F0A05",
"z+	c #0C0804",
"A+	c #060502",
"B+	c #070502",
"C+	c #060601",
"D+	c #2C150E",
"E+	c #48251C",
"F+	c #381D14",
"G+	c #4B261B",
"H+	c #432319",
"I+	c #402219",
"J+	c #331B14",
"K+	c #381E16",
"L+	c #371C15",
"M+	c #3C2016",
"N+	c #49271D",
"O+	c #4A271D",
"P+	c #140C06",
"Q+	c #48261B",
"R+	c #47251C",
"S+	c #170E08",
"T+	c #3A1E15",
"U+	c #522B1F",
"V+	c #422219",
"W+	c #43231A",
"X+	c #412319",
"Y+	c #0E0904",
"Z+	c #532A1F",
"`+	c #512A1E",
" @	c #522A1F",
".@	c #532B1F",
"+@	c #532C20",
"@@	c #321911",
"#@	c #321912",
"$@	c #180F09",
"%@	c #331A13",
"&@	c #231411",
"*@	c #271511",
"=@	c #211310",
"-@	c #20130E",
";@	c #21130F",
">@	c #21140F",
",@	c #4D281C",
"'@	c #4E291E",
")@	c #1B0F0D",
"!@	c #170D0C",
"~@	c #1F1410",
"{@	c #1E120F",
"]@	c #1C1110",
"^@	c #1E1210",
"/@	c #1B110E",
"(@	c #26150F",
"_@	c #100905",
":@	c #1E130F",
"<@	c #271611",
"[@	c #0D0904",
"}@	c #090703",
"|@	c #261510",
"1@	c #2D1810",
"2@	c #080603",
"3@	c #3C2018",
"4@	c #3C2017",
"5@	c #4D291D",
"6@	c #160E0D",
"7@	c #2B1711",
"8@	c #19110F",
"9@	c #281510",
"0@	c #341A13",
"a@	c #0E0803",
"b@	c #070601",
"c@	c #291711",
"d@	c #361D14",
"e@	c #281611",
"f@	c #261712",
"g@	c #201410",
"h@	c #1E1410",
"i@	c #2E1912",
"j@	c #0E0A06",
"k@	c #0C0906",
"l@	c #2A1710",
"m@	c #291610",
"n@	c #25140F",
"o@	c #1C110E",
"p@	c #0E0A07",
"q@	c #0F0A07",
"r@	c #0B0904",
"s@	c #28150F",
"t@	c #201412",
"u@	c #231510",
"v@	c #221511",
"w@	c #251511",
"x@	c #1D1412",
"y@	c #140C0B",
"z@	c #150D0C",
"A@	c #20120E",
"B@	c #170F0D",
"C@	c #160E0C",
"D@	c #351C13",
"E@	c #412218",
"F@	c #3E2016",
"G@	c #140C0A",
"H@	c #170E0D",
"I@	c #1A120F",
"J@	c #120B0A",
"K@	c #110B0A",
"L@	c #1F1512",
"M@	c #1E110E",
"N@	c #1D100E",
"O@	c #090803",
"P@	c #1A1210",
"Q@	c #18100E",
"R@	c #1B100E",
"S@	c #140D0B",
"T@	c #1A0F0C",
"U@	c #1C100D",
"V@	c #130B0A",
"W@	c #160D0C",
"X@	c #18100D",
"Y@	c #110A0A",
"Z@	c #0B0704",
"`@	c #0C0805",
" #	c #0E0906",
".#	c #100A06",
"+#	c #0B0805",
"@#	c #0D0906",
"##	c #0F0B06",
"$#	c #0D0805",
"%#	c #0D0803",
"&#	c #4B271D",
"*#	c #3B2017",
"=#	c #311913",
"-#	c #45251B",
";#	c #4D271D",
">#	c #3D2016",
",#	c #25140E",
"'#	c #46241A",
")#	c #301810",
"!#	c #351B14",
"~#	c #45241B",
"{#	c #46241B",
"]#	c #4D281E",
"^#	c #502A1E",
"/#	c #3F2219",
"(#	c #4A271B",
"_#	c #361C15",
":#	c #47261C",
"<#	c #371C14",
"[#	c #522A1D",
"}#	c #432219",
"|#	c #251410",
"1#	c #46251B",
"2#	c #0F0804",
"3#	c #391E15",
"4#	c #532B20",
"5#	c #46251C",
"6#	c #321A11",
"7#	c #341B14",
"8#	c #2E1812",
"9#	c #2E1813",
"0#	c #2B1812",
"a#	c #2F1A14",
"b#	c #2C1712",
"c#	c #2D1812",
"d#	c #311B15",
"e#	c #2F1B14",
"f#	c #271612",
"g#	c #291712",
"h#	c #2B1813",
"i#	c #3C1F17",
"j#	c #0C0803",
"k#	c #281610",
"l#	c #2D1914",
"m#	c #2D1813",
"n#	c #2D1913",
"o#	c #2B1712",
"p#	c #2E1914",
"q#	c #26140F",
"r#	c #271510",
"s#	c #29150F",
"t#	c #2B1914",
"u#	c #2A1813",
"v#	c #341C14",
"w#	c #251611",
"x#	c #2A1611",
"y#	c #1A100D",
"z#	c #281612",
"A#	c #231511",
"B#	c #261610",
"C#	c #221510",
"D#	c #1C1411",
"E#	c #130C0B",
"F#	c #241410",
"G#	c #2C1811",
"H#	c #21120E",
"I#	c #150E0C",
"J#	c #1E1512",
"K#	c #1C110F",
"L#	c #22130F",
"M#	c #23130F",
"N#	c #19110E",
"O#	c #251510",
"P#	c #120B09",
"Q#	c #1B130F",
"R#	c #120A0A",
"S#	c #100B06",
"T#	c #100B07",
"U#	c #110B07",
"V#	c #442419",
"W#	c #452319",
"X#	c #432218",
"Y#	c #422318",
"Z#	c #21120D",
"`#	c #1E110D",
" $	c #412117",
".$	c #402117",
"+$	c #3E2117",
"@$	c #2B160E",
"#$	c #100A04",
"$$	c #331A11",
"%$	c #4F271C",
"&$	c #4C271B",
"*$	c #361B14",
"=$	c #24140F",
"-$	c #090702",
";$	c #402017",
">$	c #47241A",
",$	c #47251A",
"'$	c #44241B",
")$	c #160D07",
"!$	c #331C16",
"~$	c #341D16",
"{$	c #321B14",
"]$	c #311B14",
"^$	c #2E1913",
"/$	c #2E1A14",
"($	c #2D1A14",
"_$	c #311A13",
":$	c #301B15",
"<$	c #321C15",
"[$	c #351C16",
"}$	c #2C1813",
"|$	c #331C15",
"1$	c #281712",
"2$	c #412118",
"3$	c #0F0A04",
"4$	c #2F1B15",
"5$	c #311B16",
"6$	c #351D15",
"7$	c #341B12",
"8$	c #100B05",
"9$	c #281711",
"0$	c #1A100F",
"a$	c #1F120E",
"b$	c #381D16",
"c$	c #361D16",
"d$	c #20110D",
"e$	c #20130F",
"f$	c #130B0B",
"g$	c #180E0D",
"h$	c #20120F",
"i$	c #1D100D",
"j$	c #170F0C",
"k$	c #1A100C",
"l$	c #1B100D",
"m$	c #110B09",
"n$	c #100A09",
"o$	c #140D0C",
"p$	c #140D0A",
"q$	c #0E0908",
"r$	c #0E0808",
"s$	c #120A09",
"t$	c #110A09",
"u$	c #0F0908",
"v$	c #0D0808",
"w$	c #0D0807",
"x$	c #0F0909",
"y$	c #0E0909",
"z$	c #0D0908",
"A$	c #100A0A",
"B$	c #0D0806",
"C$	c #090704",
"D$	c #0F0906",
"E$	c #0B0705",
"F$	c #301A12",
"G$	c #3B1E15",
"H$	c #311A11",
"I$	c #26140C",
"J$	c #22120D",
"K$	c #23120B",
"L$	c #3F2117",
"M$	c #23130D",
"N$	c #422218",
"O$	c #25130C",
"P$	c #29160F",
"Q$	c #50291C",
"R$	c #120A05",
"S$	c #23140F",
"T$	c #371E17",
"U$	c #381E17",
"V$	c #391F17",
"W$	c #361E16",
"X$	c #371D16",
"Y$	c #371D14",
"Z$	c #391E17",
"`$	c #3B1E17",
" %	c #1B1311",
".%	c #351B12",
"+%	c #1D130F",
"@%	c #1F120F",
"#%	c #22130E",
"$%	c #2F1A12",
"%%	c #301A13",
"&%	c #100A08",
"*%	c #24130E",
"=%	c #1D120E",
"-%	c #0F0A09",
";%	c #120B0B",
">%	c #170F0E",
",%	c #140B0A",
"'%	c #17100D",
")%	c #0E0907",
"!%	c #170F0B",
"~%	c #110A08",
"{%	c #100A07",
"]%	c #0F0907",
"^%	c #0C0806",
"/%	c #130D0A",
"(%	c #150E0B",
"_%	c #160E0B",
":%	c #17100C",
"<%	c #120C09",
"                                                                                .                   +   .                       ",
"  . @ # $ % & * . = & - ; > , ' ) ! ! ) ! ) ' ~ ) ~ { ! ] ^ * ! ! ) / ( _ : < [ }   # | 1 2 3 4 @ 5 [ & 6 7 & * * # 8 9 1 0 a   ",
"  b c d e f g h     g i j k l m l n m o o m o o p q m n r s t n u v n w e x y z $   A l B r C D E F G A H I J n K L M M I I N   ",
"  b y O P Q R O S T U V I W h h h h h h D h X A t t A d s Y d t t t g z Z ` K L  .  ..+.@.#.$.K %.d d &.s *.$.K =.-.;.;.I >.,.  ",
"  '.).~ !.~.{.{.  T ].^.y /.;.` ;.;.(._.:.<.[.}.|._.1.~ 2.>.j 3.4.4.5.6.7.>.8.9.0.  a.y b.c.d.|.e.}.f._.g.h.i.i.i.j.k.Y ~ l.m.  ",
"  n.o.p.q.Y ~ r.    ^.s.&.O r.{.{.{.t.t.u.v.f w.x.y.{ z.7.>.q.A.B.B., | 7.7.q.C.D.E.F.G.H.I.J.f.r.{.f.K.L.f.|.i.i.|.M.M.N.O.P.  ",
"  m.C.Q.R.|.h._.. . o.;.S.T.d.R.e.U.[.w.U i V.$.W.U :.K.R.K.r.{.j.X.~ }.Y.|.h.h.Z.  ^.4.i =.;.`.X.X.h.|.>. +L.|.g..+++@+{.e.#+  ",
"  m.q.Q.K.R.$+L.    o.{.%+&+i.R.e.*+}.[.=+=+U W.W.W.-+d.;+g.>+,+j.j.~ e.|.h.;+;+Z.E.s.A.'+=+c.;.X.)+R.K.>.I L.i.!+~+{+{+o.]+D.  ",
"  } { ! ^+{ /+P E.. K.R.e.`.i.|.g._.(+_+~ ~ ++++~ 1.}.}.j.:+h.|.h.h.d.R.[.w.<+g.'.  ! 1.` ;.Y.X.[+}+, ~ e.;.d.i.r.{.|+.+g.g.Z.  ",
"  } 1+! , { ^.B.  . R.Y.e.c.i.|.;+h.{.`.2+{.)+)+{ {.]+]+i.h.|.h.h.h.!+~+P 3+4+g.5+  6+O.[.*+X.[+7+)+{ {.e.e.d.i.{.e.8+9+;+0+}   ",
"  = d.d.h.|.a+b+    ++++<+f.c+c+g._._.K.f.L.|+g.)+[+d+d+e+5.6+f+|.h.6+{ g+{+g.~+Z.  ^+~ K.K.|.|.i.i.R.d.j.X.X.i.R.K.h+i+h.h.Z.  ",
"+ j+|.h.R.|.i+i+  . g+k+l+4+^+_+R.h.;+|._.L.g.g.)+)+i.j.^+{ {.r.i.|.^+O.m+m+|.!+}   { {.R.;+|.h.h.|.X.X.X.)+i.h.g.!+b+n+h.|.}   ",
"    o+p+q+o+r+r+    } s+t+q+P.u+q+q+q+v+t+v+o+q+o+o+o+q+w+w+w+D.q+q+w+x+Z.r+p+'.    y+w+p+z+q+q+o+o+z+Z.o+p+p+q+q+p+r+5+Z.Z.    ",
"        A+    E.      B+  A+A+  B+        B+        = =   C+A+A+A+E.A+A+S S E.E.E.                A+    . +                     ",
"  } , D+E+V.W.W.3.A.=.=+a.W.y i 4.F+y y G+i H H+~.I+#+  J+^.K+L+S.S.i i y L G.K L L M+r i g d L ;.;.N+O+P+  r.]+>.9.Q+W.V R+S+  ",
"  } ;.1.=.a.&.'+8.8.i i y y d y 3.T+c U+L A V+W+~.X+Y+  B.4.4.#.%+S.Z+`+ @`+L h .@`+H 8. @.@Z++@@@` U '+ .= 2+#@8.I O &.=.=.$@  ",
"  } f.f.P %@&@f.K.R.c.#@*@5.4+f.1.r.=@-@%@Q ;@>@~ {.'.  >.H ,@'@U.[.)@!@~@{@6+6+X.]@~ `.^@X./@{+(@5 Q B._@. :@f.5.N.4.s.5.<@[@  ",
"  }@|.h.3+[.f.R.h.i.N.{.c+|@|.h.{ _+R.R.>+*+Y.f.1@o.z+2@3@4@y 5@*+*+{+6@_.;+7@7@;+;+1+{.g.i.)+8@l+9@%@0@a@b@d+;+c@^+d@4.e@f@z+  ",
"  } c@6+:.g@1.r.i.h.R.K.R.|.i.;+h@K.h.h.f.4+i@r.L.~+j@k@_+{.r.7@)+[+|.h.l@^+f.R.)+++K.f.h.i.6+m@r.1+:.L.p+= n@m@o@o@v.<@d+d+}@  ",
"  } o.e.;+g.{.;.|.h.i.i.h.h.h.h.;+h.i.h.i.j.]+}.K.0+p@q@, ~ , 9@g+++R.R.c.{.R.i.)+i.i.|.|.:+{ , #@{.g.;+r@. s@{ @+7+~+t@++++}   ",
"  }@t.u@g.g.-+v@*+[.j.X.i.i.o.).h.h.h.d.r 3.w@v.g.x@s+}@m@, K.R.y@z@g+g+t.v@g.h.;+h.&@<.|.i.K.K.;@A@h.i.Z.+ * { }+++B@C@++i.5+  ",
"  }@g.;+g.g.~+L.D@B.j.X.i.i.[.#@h.;+h.K.E@F@|._.g.;+}@= 7@1@j.i.G@y@H@g+g.!+g.;+;+;+6+6+g.;+h.;+b+i+i.I@r+  s@, }+++J@K@X.L@z+  ",
"  . z@z@H@H@}+X.<+:.C@C@H@B@M@N@++++++++<@c+C@H@g+B@O@}@J.f.i.P@Q@7+i.i.++++++++++++/@R@y@S@z@z@)+I@g+g+}   T@U@m+m+K@K@m+B@}@  ",
"    V@y@i+i+++++g.!+z@V@C@C@C@W@g+g+X@@+X.X.y@y@B@g+} r+j.|.j.)+B@g+h.h.++7+g+g+++Q@g+g+Y@Y@J@J@i.i.g+g+Z.2@b+H@C@C@Y@Y@z@b+2@  ",
"  . Z.Z@`@z+ #q+t+.#Z.r+`@Z.Z.+#@#j@q+q+t+t+Z.r+`@q+j+j+q+q+q+o+Z.z+##t+ #@#`@q+q+q+@#q+Z@s+s+s+t+j@q+q+.   s++#q+$#+#+#o+Z.    ",
"      . . = j+. +   = j+j+. = = j+=         +                       =             +   =     + . =               . j+j+  j+=     ",
"  %#&#W.e.P r *#    e.[.H+H+=#*+-#W+U ,@L L w.[.=+;#K ;#W.W.j >#E@V+s@,#!.'#Q c.m.  ) )#V.$.!#^.V =.V.V ~#{#Q [.V+V.&.]#P B.0.  ",
"  b ^#L P B.I /#E.  %@P i (#_#K+:#%+`+n v u H.<#..A n [#w A }#H+$.=+e@|#1#$.F+Q 2#  }.f J D <#<#L d ..d i ,@3#Q =.K w 4#T+Y P+  ",
"  %#5#T.4@W <#^.B+  @@6#B.7#8.8.^.^.^.J+8#9#2+2+0#a#b#c#d#e#f#g#h#h#~+K.i#W ~ 6+j#  k#m@8#9#{.{.l#l#m#n#o#o#{.;.p#a#r j (+i@D.  ",
"  [@-#V+I+I+D@B.    e.c.|@q#>.4@c.;.O.r#J@V@^+{ h.g.y@y@;+g.i.i.h.;+!+R.4.r s#s#z+  <+u.y@y@1+O.|.|.j.i.W@W@{ e.:._.>+e.<@e@u+  ",
"  }@t#u#v#M.w#w#Z.r+f+x#y#y#z#v.U@U@A#:.I@)+<+-+m@f+X.)+i.i.B#k#h.;+<@e@v.f#4+f.Z.  Y.R.X.i.t.-+e@k#g.;+b+y@=@<.|.i.A#C#5.7@[@  ",
"  }@i.i.6#P h.|.@#o+|@|@b+b+;+|.V@y@|.g.;+D#g.K.{.e.|.i.h.i.1@O.i.h.e@m@h.i.:+;+}   j.;+h.;+i.i.N.{.g.;+y@E#i.i.)+)+i.i.f+1+[@  ",
"  }@~+K.F#<.j.i.s+}@m@, y@S@B@H@d+d+g+B@H@B@R.h.<.u@G#i@R.g.H#H#5.7@-+:.g.h.++++}@B+B@++f+l@|.i.<+g@;+h.8@++h.h.C@I#|.i.A#v.[@  ",
"  5+t@g.W@C@i.i..   m@6+n+y@b+i+_.~+S@b+b+y@R.g.i.i.3+/+_.!+b+b+r.e.g.;+!+0+H@W@}@  I#g+2+2+|.i.h.i.;+;+;+h.g.g.y@J@0+;+g.J#Z.  ",
"  j+X.++b+W@[+++. B+f.K.++}+)+++Q@++g+g+H@H@g+m+++}+<@5.K#K#++Q@L#M#)+i.++Q@W@W@}@. N#X.O#O#{+m+C@C@g+Q@;+:+i.h.W@y@6@C@Q@N#}@  ",
"  = !@W@W@b+++++. . |.i.h.h.h.h.b+C@|.R.m+g+V@V@g+g+X.X.C@m+i.i.P#J@)+i.n+E#i+i+}@. Q#h.)+j.W@W@K@J@C@B@j.i.h.h.W@V@R#J@y@z@}@  ",
"    $#$#q+[@t+u+    t+t+S#T#j@j@+#q+S#U# #q+Z.z+j@ #t+j@q+q+j@v+Z.Z.j@q@o+`@$#`@.   v+t+t+j@o+`@Z.Z.q+j@q@S#t+.#`@Z.s+s+o+q+=   ",
"        = = = = +         . .         +           =       =   b@      . . +   = = . .           + + =     =   +   b@+     +     ",
"  b %+V#`.1.H+T.T.W#H+X#Y#V+e.>+T+4.! ! D@B.Q U.Z#`#. b@2+{.W  $H+T.T.W#P P W .${.[.e.;.+$+$]+[.! ' 2+2+'.  * @$8.I ~ ' K+k.w+  ",
"  #$'@O $$$$%.J %.%$%.%...&$H.*$H+V+c.}.j W k Y =$-+-$  Q I.K J D D E X ;$H R G+j i#4.^.>$,$3##.@@c.f P Y+  O.c.=+i f c.!.'$)$  ",
"  m.q.3#<@e@j >#!$~$d#{$]$^$e@<@/$($w#w@%@U._$i@M#<.=   r.{.:$<$r 8.].[$}$}$<$|$h#h#1$f#:$a#1$g#A.3#2$.$3$. ! 1.4$5$f+, J+6$D.  ",
"  m.[.e.K.K.U.7$|.0+h+h+W@b+i.:+h.;+j.|.{ { k#|@<+-+5+. { , j.X.[.w.K#I@j.i.h.;+!+~+~+0+i.|.h.i.I ~.G.V.8$= * | R.:+O#e+^+{ b   ",
"  '.9$v.++0$e@v.|.h.)+)+|.X.O#O#i.i.H@B@a$A@-+g@K.K.@#o+L#L#|.|.e@5.}+++i.P@e@<@}+++X@B@)+P@e+9@A.q.b$c$[@= d$H#K.!+Y.e$l+l+p+  ",
"  }@g.;+m+g+;+h.i.i.g.$+_.|.r.1@i.i.n+y@W@W@i.h.i.;+@#q+C@m+!+!+i.i.Q@++i.i.{.{.G@J@f$V@)+)+1+`.B.P Y.X.5+  G@b+|.!+m+h+)+)+}@  ",
"  }@)+++[+X.t.:.i.h.<.<.<+R.O#O#i.|.g+7+Q@++Q@g+X@N#} } ++++g.h.g+H@++N#-+u.<@c+y@n+X@7+i.i.O#w@m@r#X.j.O@. B@Q@8@)+N#++i.i.s+  ",
"  j+z@b+h.g.7@e@;+_.6+6+A#g.|.|.h.h.i.;+;+)+z@b+W@B@. = h.h.;+;+W@b+++X@e+6+j.)+y@y@h.;+g.0+j.i.g+g$++)+r+}@N#I@C@W@:+:+i.i.s+  ",
"  . i+n+B@g+L#h$B@B@U@i$}+@+g+g+X@g+Q@++B@C@J@J@C@j$. = B@{+N#++C@b+S@E#k$l$C@m+m$n$g+g+B@6@o$S@y@y@y@S@}@= p$b+E#V@B@Q@W@C@}@  ",
"  . V@J@n$n$y@b+y@y@q$r$i+b+y@b+s$V@b+b+t$Y@n$n$B@X@. = t$n$W@b+y@y@u$q$v$w$E#V@x$q$y@y@x$y$q$z$x$A$t$t$. = n+V@J@J@z@6@V@V@2@  ",
"    q+B$`@+# # #@#B$C$s+ #D$ #j@o+o+ # #`@Z.Z.Z.o+j@.   Z.`@q@ #@#@#E$+#+#s+@#`@s+r+@#@#+#+#E$s+E$`@`@`@.   `@$#`@`@j@q@$#$#    ",
"    + = = = = = = + =     = = = = +   = + + = . + =         + . + . 2@= = j+j+j+j++ + j+= j+= + +   . .   .   +     +     +     ",
"  } F$O.T+G$H$]+I$[ .   J$K$~ {.4@j }.]+W +$4 & j .$L$L$U.P # & j L$W j ' ) B.B.j#  >+U.M$M$F@N$O.{.H N$N$N$w.P # O$U.P s#5 Y+  ",
"  Y+>.i#K K W 8.@@[.    5.P$4.r a.G.8.W L ..@@)#i d Q$X E@H )#;.G+d J i I.f !.&+b A+j I ^+| i g @.3#..+.G G +$I O.'  +V+c.#@R$  ",
"  } /$n#j j T+3#9@e@}@}@L#S$[.%@c$T$f+_+U$V$k#m@W$C.A.b$|${$c.#@U$V$b$X${.`.].s.j#  Y$s *+>+X$C.0#0#Z$q.`$q.c#n#k#q#s.<#;.c.#+  ",
"  . x@ %{ ~ Y$4.{@R.+#`@N#)+~ { L.L.G@y@g.g.h._.g.~+i+b+O#l+P .%R.;+C@b+{ ! e+e+}   U.Y$4.Y$g+g+i.:+m+W@W@z@B@B@-+<.{ 1.e.c.0.  ",
"  = u.<.n@q#o.i@K#d+B$@#+%K.k#r#f.K.g+B@g.R.v.9$g.R.g+g+f.@%6+7@h.h.++g+#%#%-+l+}   $%U._$%%g+g+:+h.++Q@Q@Q@N#++Y.Y.=$q#m@7@y+  ",
"  } r.O.++N#L.:.m+m+@#`@-+l+R.R.N#++i.h.g.R.6#c.R.i.h.;+V@V@y@W@;+h.K.g.&%t$j.j.}   L.L.!+!+b+y@h.:+I@i.h.i.i.I@m+m+C@W@j.g.z+  ",
"  }@=$*%B@j$<+L.g+g+r+}@=%M@j.|.N#++N#N#N#++P$P$|.i.:+:+m+C@H@B@++N#h.h.p$b+[+[+}@  <+v@)+8@i+y@B@B@8@)+g+B@++8@X@X@Q@Q@[+X.n.  ",
"    Y@-%y@b+R.h.;+j.. 2@C@z@N#[+X@X@y@;%V@J@y@y@i.i.h.:+h.h.h.;+t$m$h.h.h.D#j$B@}@  <+A#t$n$b+z@E#E#8@)+y@V@++i.i.i.h.;+g+B@}@  ",
"  2@n$-%B@g+}+}+[+Q@  . I#S@g+g+C@z@n+E#y@y@b+b+B@>%Q@Q@)+I@I@)+t$n$++++N#N#C@C@}@  g@:.C@C@B@H@J@J@B@g+n+J@C@B@B@B@++N#B@g+}@  ",
"  . n$n$R.g.i+,%y@J@  . J@n$n+V@u$x$J@n+y@y@b+y@x$u$u$&%'%Q@Q@Q@n$u$t$t$t$n$J@E#j+  X.i.0+g.D#h.q$q$b+C@J@t$n$n$n$-%n$t$g+X@}@  ",
"    )%)%!%j$~%{%&%)%    ]%)%{%]%^%^%]%q@{%{%{%q@`@^%^%^%/%n+/%/%@#B$@#@# #w$)%q@    (%_%:%j$j$(%^%^%m$<%)%)%B$)%B$B$)%]%p$/%=   ",
"                                        E.            E.                b@                                                    E.",
"                                                              E.      E.                                                        ",
"                        E.                    E.                                            E.              E.                B+"};
