/* XPM */
static char * sow_xpm[] = {
"64 64 407 2",
"  	c #070602",
". 	c #060602",
"+ 	c #070702",
"@ 	c #070601",
"# 	c #070502",
"$ 	c #100A08",
"% 	c #0F0908",
"& 	c #150D0A",
"* 	c #191712",
"= 	c #1C1713",
"- 	c #30190F",
"; 	c #2F1910",
"> 	c #0F0A07",
", 	c #100B08",
"' 	c #150E0B",
") 	c #140E0B",
"! 	c #090703",
"~ 	c #080702",
"{ 	c #1F120C",
"] 	c #21120D",
"^ 	c #27150D",
"/ 	c #28160D",
"( 	c #21130D",
"_ 	c #20120D",
": 	c #19120F",
"< 	c #18110E",
"[ 	c #26160D",
"} 	c #29160D",
"| 	c #1D110D",
"1 	c #1D120D",
"2 	c #1D110C",
"3 	c #180F0C",
"4 	c #170E0C",
"5 	c #23140D",
"6 	c #22140D",
"7 	c #110B08",
"8 	c #25140C",
"9 	c #130C09",
"0 	c #120C09",
"a 	c #190F0B",
"b 	c #100A07",
"c 	c #150D0B",
"d 	c #160E0C",
"e 	c #27160D",
"f 	c #160D0A",
"g 	c #120B08",
"h 	c #160E0B",
"i 	c #160F0C",
"j 	c #22130D",
"k 	c #24150D",
"l 	c #120B09",
"m 	c #080603",
"n 	c #110B09",
"o 	c #170F0C",
"p 	c #1C1915",
"q 	c #1E1813",
"r 	c #351C10",
"s 	c #341C10",
"t 	c #17100D",
"u 	c #080602",
"v 	c #100B09",
"w 	c #100A09",
"x 	c #24140E",
"y 	c #26150D",
"z 	c #2B180E",
"A 	c #2C180E",
"B 	c #24150E",
"C 	c #1A1411",
"D 	c #2C180F",
"E 	c #2E190F",
"F 	c #22140E",
"G 	c #20120C",
"H 	c #1A110D",
"I 	c #19110D",
"J 	c #28160E",
"K 	c #140C0A",
"L 	c #130C0A",
"M 	c #2A170D",
"N 	c #1F130E",
"O 	c #130B09",
"P 	c #180F0D",
"Q 	c #170E0B",
"R 	c #19110E",
"S 	c #25150D",
"T 	c #29170E",
"U 	c #080703",
"V 	c #1A100D",
"W 	c #27160E",
"X 	c #1A120E",
"Y 	c #1E110C",
"Z 	c #1D100B",
"` 	c #19100D",
" .	c #0E0A08",
"..	c #0F0A08",
"+.	c #1A100C",
"@.	c #1B110E",
"#.	c #1A1311",
"$.	c #22140F",
"%.	c #22150E",
"&.	c #180E0B",
"*.	c #1A100B",
"=.	c #21130E",
"-.	c #1B100B",
";.	c #1B100C",
">.	c #1C120E",
",.	c #1B1410",
"'.	c #1A1310",
").	c #1C110D",
"!.	c #1F120D",
"~.	c #1A110C",
"{.	c #1B110C",
"].	c #18100D",
"^.	c #1D1410",
"/.	c #1E130E",
"(.	c #2D180F",
"_.	c #2D190F",
":.	c #1C1410",
"<.	c #1C130F",
"[.	c #29170F",
"}.	c #0F0B08",
"|.	c #2A180E",
"1.	c #160D0B",
"2.	c #1A130F",
"3.	c #1B130F",
"4.	c #140D0A",
"5.	c #130C0B",
"6.	c #130D0A",
"7.	c #2A170E",
"8.	c #1A110E",
"9.	c #1B1612",
"0.	c #1A1712",
"a.	c #1D120E",
"b.	c #26150E",
"c.	c #0A0803",
"d.	c #25150E",
"e.	c #331B0F",
"f.	c #311A0F",
"g.	c #1E120D",
"h.	c #3D2014",
"i.	c #3F2115",
"j.	c #1A1612",
"k.	c #1B1613",
"l.	c #28170E",
"m.	c #090602",
"n.	c #1A120F",
"o.	c #19130F",
"p.	c #27170E",
"q.	c #19100C",
"r.	c #140C0B",
"s.	c #23140E",
"t.	c #1C110C",
"u.	c #26160E",
"v.	c #1B120E",
"w.	c #21150F",
"x.	c #23150F",
"y.	c #3A1F12",
"z.	c #3D2013",
"A.	c #0A0703",
"B.	c #311B10",
"C.	c #20130D",
"D.	c #492619",
"E.	c #4A271A",
"F.	c #191713",
"G.	c #1A1714",
"H.	c #1B120F",
"I.	c #331C10",
"J.	c #361D10",
"K.	c #1C120F",
"L.	c #422315",
"M.	c #472516",
"N.	c #2B170E",
"O.	c #20130E",
"P.	c #2B180F",
"Q.	c #2A180F",
"R.	c #160D09",
"S.	c #301A12",
"T.	c #311B13",
"U.	c #130E0B",
"V.	c #130F0C",
"W.	c #28160F",
"X.	c #26160F",
"Y.	c #0A0704",
"Z.	c #21140E",
"`.	c #24160F",
" +	c #25150F",
".+	c #1F130D",
"++	c #201611",
"@+	c #211711",
"#+	c #1C120D",
"$+	c #2C1911",
"%+	c #301B12",
"&+	c #180F0B",
"*+	c #0B0803",
"=+	c #0E0908",
"-+	c #0D0908",
";+	c #180E0C",
">+	c #0D0907",
",+	c #0C0906",
"'+	c #27160F",
")+	c #0A0804",
"!+	c #29160E",
"~+	c #19120E",
"{+	c #1D1712",
"]+	c #1F1914",
"^+	c #0B0804",
"/+	c #0E0A07",
"(+	c #241610",
"_+	c #21140F",
":+	c #1B110D",
"<+	c #27150E",
"[+	c #361D11",
"}+	c #1C1613",
"|+	c #1C1813",
"1+	c #1D1915",
"2+	c #110C09",
"3+	c #1D130F",
"4+	c #0B0907",
"5+	c #0C0807",
"6+	c #1E1511",
"7+	c #1E1410",
"8+	c #3E2113",
"9+	c #1B1713",
"0+	c #18100C",
"a+	c #24140D",
"b+	c #1D1914",
"c+	c #1F1A15",
"d+	c #1D130E",
"e+	c #0A0806",
"f+	c #140C09",
"g+	c #1D1814",
"h+	c #1A0F0B",
"i+	c #190F0A",
"j+	c #18110D",
"k+	c #1A1511",
"l+	c #391E11",
"m+	c #381F12",
"n+	c #1F140F",
"o+	c #201510",
"p+	c #190F0C",
"q+	c #1A1410",
"r+	c #1B1411",
"s+	c #1B1511",
"t+	c #1F1B16",
"u+	c #1E1915",
"v+	c #1B1814",
"w+	c #1A1713",
"x+	c #321B10",
"y+	c #160E0A",
"z+	c #140D0B",
"A+	c #1E1914",
"B+	c #1E1A15",
"C+	c #2E1A0F",
"D+	c #311B0F",
"E+	c #191410",
"F+	c #170F0B",
"G+	c #1B1914",
"H+	c #1B1813",
"I+	c #1F130F",
"J+	c #181310",
"K+	c #23150E",
"L+	c #170F0D",
"M+	c #1C1612",
"N+	c #18100E",
"O+	c #1D1A15",
"P+	c #17100C",
"Q+	c #1C1814",
"R+	c #1A1510",
"S+	c #191612",
"T+	c #2D190E",
"U+	c #241811",
"V+	c #241912",
"W+	c #211610",
"X+	c #221610",
"Y+	c #1A1512",
"Z+	c #191310",
"`+	c #20140F",
" @	c #160F0B",
".@	c #1E120C",
"+@	c #20150F",
"@@	c #1A1611",
"#@	c #191510",
"$@	c #1A1814",
"%@	c #17110D",
"&@	c #201711",
"*@	c #221711",
"=@	c #191611",
"-@	c #0C0905",
";@	c #0B0805",
">@	c #191511",
",@	c #120C0A",
"'@	c #1F1712",
")@	c #24140C",
"!@	c #1C1510",
"~@	c #1E130D",
"{@	c #331B10",
"]@	c #1B120D",
"^@	c #181410",
"/@	c #090603",
"(@	c #20140E",
"_@	c #1E1812",
":@	c #1D1510",
"<@	c #21140D",
"[@	c #090803",
"}@	c #2E190E",
"|@	c #2F1A0F",
"1@	c #29170D",
"2@	c #2F190F",
"3@	c #341C0F",
"4@	c #2A170F",
"5@	c #2B190F",
"6@	c #301A0F",
"7@	c #1A1613",
"8@	c #120D09",
"9@	c #090702",
"0@	c #060601",
"a@	c #110D0A",
"b@	c #1C1914",
"c@	c #18130F",
"d@	c #181511",
"e@	c #462518",
"f@	c #47261A",
"g@	c #130A08",
"h@	c #1B1611",
"i@	c #1B1712",
"j@	c #191411",
"k@	c #381E12",
"l@	c #3F2214",
"m@	c #140E0A",
"n@	c #482517",
"o@	c #492618",
"p@	c #18120F",
"q@	c #3B1F13",
"r@	c #422214",
"s@	c #110B07",
"t@	c #0B0806",
"u@	c #1D120F",
"v@	c #0C0806",
"w@	c #150F0B",
"x@	c #0A0805",
"y@	c #1A140F",
"z@	c #150E0A",
"A@	c #0D0906",
"B@	c #130D0B",
"C@	c #150D09",
"D@	c #0D0A07",
"E@	c #0C0907",
"F@	c #150E0C",
"G@	c #1C130E",
"H@	c #25160E",
"I@	c #321A0F",
"J@	c #1B1310",
"K@	c #120D0A",
"L@	c #2D180E",
"M@	c #22150F",
"N@	c #211510",
"O@	c #17110E",
"P@	c #17120F",
"Q@	c #110C0A",
"R@	c #150F0C",
"S@	c #231710",
"T@	c #0B0703",
"U@	c #110D09",
"V@	c #1E130F",
"W@	c #1C1310",
"X@	c #1C1411",
"Y@	c #1C1913",
"Z@	c #1C1611",
"`@	c #21130C",
" #	c #1D1813",
".#	c #2C170E",
"+#	c #0E0A06",
"@#	c #0D0905",
"##	c #100C09",
"$#	c #0D0A05",
"%#	c #1E140F",
"&#	c #0D0A06",
"*#	c #3C2013",
"=#	c #412315",
"-#	c #402215",
";#	c #120E0A",
">#	c #3F2215",
",#	c #442416",
"'#	c #0C0805",
")#	c #0A0705",
"!#	c #0B0906",
"~#	c #0E0907",
"{#	c #0D0A08",
"]#	c #0F0B09",
"^#	c #130D09",
"/#	c #0B0807",
"(#	c #16100C",
"_#	c #130E0A",
":#	c #110C08",
"<#	c #170F0A",
"[#	c #180F0A",
"}#	c #100C08",
"|#	c #18120E",
"1#	c #24150F",
"2#	c #140F0B",
"3#	c #19100B",
"4#	c #120C08",
"5#	c #110E09",
"6#	c #18100B",
"7#	c #20130C",
"8#	c #1D110B",
"9#	c #100D09",
"0#	c #0B0905",
"                                                                                                .                           .   ",
"                                              +                     @                                                       . # ",
"    $ % & & * = - ; > , ' ) ! ~ , > { ] ^ / ( _ : < [ } | 1 2 2 } / 3 4 5 6 7 7 8 / 9 9 7 0 a 3 b $ c d e ^ f g h i j k 9 l m   ",
"    l n o o p q r s 7 n t t u   v w x y z A B B C C D E ( F ( G A A H I / J K L M A h c L c 1 N K O o P z M Q 9 R I S T & L U   ",
"  u I V J W < X Y Z H ` x B m u  ...^ T 2 2 +.@.C #.$.%.h &.&.Q *.*.h c ( =.5 k -.;.P o R >.h i ,.'.X X ).H !.G ` ` ~.{.Q ].!   ",
"  u ^./.(._.Q 3 h h :.<.J [.u ~ }.$ ^ |.4 1.o ].2.'.3.<.4.c c L 5.6.c 4./.N T 7.& c ].` X 8.c d 9.0.>.a.` ].b.W I R ].].I 8.c.  ",
"  u B d.e.f.).g.h.i.j.k.J l.m m.].].B b.o o B d.n.o.W p.` q.c r.L L ` I F s.| t.' ' 7.(.s.u.a.v.w.x.B d.K 0 y.z.J 5 4.L R R A.  ",
"  u u./ s B.!.C.D.E.F.G.J W m ! X v.F F ].` l.W H.n.z z R I c 4.L K v.8.b.S c 4.h c I.J.J T K.K.x y W W n $ L.M.N.b.4.K R X A.  ",
"  ~ /.O.P.Q.f R.S.T.U.V.W.X.Y.! Z.Z.+.3 ].` 7.7.b.B N /.8.I 1.h S W @.8.1 /.1 ;.].` `. +g..+X H.++@+#+>.v ..$+%+{.&+h h g.N *+  ",
"  ~ ].].W u.=+-+h ;+>+,+W '+)+A.d.5 h h ].` T 7.7.T v.v.R 3 4 3 !+7.8.8.H 8.B u.a.N '.~+8.X ~+H.{+]+H H , ..t I 0 0 ].].s.Z.^+  ",
"  u R ` |.l.7 $ n n  ./+(+_+! ! :+:+I R s.y !+<+[+[+d.F ` ].C }+).N I q.s.d.b.<+` V |+1+<.>.].I < 2.N g.O n 2+2+0 9 I R a.3+A.  ",
"  u n.v.7.e 0 l 4+5+ ./+6+7+u u ].].R 8.7.} !+^ 8+8+l.b.].].9+p 0+I 0+3 W J u.a+h d b+c+d+1 d h c 4.5 s.l 0 ,+e+f+9 ~+~+>.3+!   ",
"  U g+9.=.O.4 o h+i+4.& u.X.u u j+].k+k+Y !.J / l+m+g.| h h n+o+R R j 5 !+/ p+3 q+k+r+s+B W C._ 3 0+N /.o o n n &+3 '+l.H 8.A.  ",
"  U t+u+R ].R X d.B R &+z _.m m ].o v+w+& c l.T x+s y+c K h Z.F : : J ^ 7.} c z+A+B+< R S 7.y b.3 ].2.'.H.H.4.K +.` C+D+3 ].!   ",
"  U 9+s+R ].E+s+C.>.0+F+T P.u ~ d h G+H+Y 2 s.s.W P.y+K 2 !.N I+E+J+K+B j C.L+o s+M+N+R B W s.d.` R k+C Z.B t.;.3 o W T ` ].c.  ",
"  m j+].R n.O+B+P+].].].b.u.  u 4.L v+Q+T 7.3 ` Z.B Q c S S ~+3.R+E+3+O.c 4.~+R R ` o o s.d.F F ` : 0.S+z T+e u.' 4.o o ].` A.  ",
"  + R ].<.3+U+V+].` <.3+W+X+  u i o Y+j.j B I R N n+Z+q+K+F H.3.n+`+/./. @h n.R I 3 < ~+d.W `+d+: o.E+E+B S j ( .@Y 3 3 E+k+)+  ",
"  ~ R ].N N A z 0+].+@x.H+Q+u ! ~+X n.n.` R R ].R R O+B+<.3+@@#@l.J 8.].R R R R R ].@@w+W 7.<.<.o.~+< j+].t h 3 e J 3 0+$@G+)+  ",
"  ~ v.:+>.>.d.S %@< K+K+2.'.! u X R R v.g.>.` R R R = = n.q+S+k+d.5 X R ].o t o I ].&@*@6 s.3.H.n.: < R a.).o o s.F 3 ].j.= A.  ",
"  ~ _+Z.o ` ].< w+=@e / ` ` -@;@R R R R e 5 ` ].R R o ].Z+k+>@q+` ].R R ,@,@4.l X I 7.A Q h 2.n.R R R R l.e ` 0+].I & c R H.c.  ",
"  ~ d+/.I j+@.v.'@'@^ )@I I ^+^+j+R ~+q+s.Z.H 8.n.n.].R ,.!@o.Z+R ].j+R z+L ,@0 ` ].J |.P+t d+~@R ` I I B 5 I ].I I h h R X A.  ",
"  u ].3 R R N .+I.{@9 6.j+j+u ! t o j.j.0+` s.Z.X R R 8.^ <+I X R I R n.]@).0 ,@R R O.F ^@>@T A I I < R R ].R R X R <.H.R R /@  ",
"  ~ 0+].R I =.(@x+x+F+F+j+R u ! ].]._@:@].].B <@I R >.>.d.5 I R R ].< R 1 O.6.6.R R _+Z.E+>@J 7.8.].R R @.H >.a./.N I I j+R [@  ",
"  U 3 o ].j+I ].9 O S <+R 8.u ! R ` }@|@j+< I ` P+ @T z ` ` R R R I R R k e H R R R ].].~+: ].t R R R n.u.y 7.1@2@3@&+` 9.9.)+  ",
"  U o o t R I ].4.9 d.W R X ~ u I ].E |@R R I R t o 4@5@I R X 8.8.R R R 5 u.I j+R R : : : : ].].R R R R B W 7.!+6@x+F+].9.7@)+  ",
"    2+8@v+w+].t S+7@h o o o 9@~ 0 0 |.7.8.R I R R R R I ].0+O.F 2.E+2.o.k B 8.o ' 4.: o.R R ].].L 0 ~+Z++@d.F+' :+H h h ` ` ^+0@",
"  u ,@a@b@p ].t w+w+4 o c d u ! ,@9 z P.]@R R : n.n.n.R ].o O.F c@d@n.~+B F ` o L n < < R n.R ].L L 2.E+X+W Q & a./.h Q 3 3 !   ",
"  u 2+0 n.X J !+e@f@g@O 1.c ! 9@8.v.h@i@Z+R R ~+,.h@n.R ].]././.j@d@i ' 0+` z+0 0 l 7._.I R n.I 9 0 : o.X 8.k@l@4@y o.k+m@h !   ",
"    0 2+0+3 T 7.n@o@O l o o 9@9@:+>.S+* 2.R < R k+@@X R 3 ].>.K.c@p@' c P+I 4.L 0 l A E 8.: 3.H.L 0 n.n.8.R q@r@4@B k+j.' h !   ",
"  u 9 l 0+].s@g $._+;@t@2.X ^+-@@.u@S+0.>@>@R R d@>@Z.F ` I ` I d.S 9 4.].8.R j+L ,@F+Q : R 8.X 8.].< R , ..{.1 9 , >@S+R R !   ",
"  u L 0 ].` v@,+w@' x@e+o.y@-@-@8.>.>@j.>@>@R R E+#@a+d.H 8.I 8.y W 4.& ].].j+< L L 4.z+R R I 8.8.< ].].}.,+z@o A@,+^@k+R R A.  ",
"+ u '.: @@>@7 2+>+>+, $ j+X ! ! B@4.: : H.: R ].j+R b.J C@4.K ' H H ' c 4.z+h ' < ].a+d.n.R s.S R R < R v v /+D@, n ].R X X A.  ",
"  U q+2.0.d@n 0 4+t@,@n ` n.u u 2+0 X R 8.n.].I ].I b.J g L L K R R & c 4.6.4.4.< R W / X R b.W R ].R R 2+n E@,+n 2+].I n.H.A.  ",
"  m h F@o.n.R 2.f+4.t ].P+i ! A.L+t R R 4.4.q+q+R R K.G@9 L ].q.X R ].R ].` L 0 o o >.a.R R >.]@R ].].I I I 0 2+o o 8.H.' F@!   ",
"  U c 4.X ~+2.'.y+1.: n.o i u ! t ].p@J+6.0 k+j.R R n.n.0 ,@].X ].].` R R 8.0 2+o  @8.R R R ].].].R R n.n.n.c 4.R R X 8.L z+!   ",
"  U j+I W b.~+: 7.N.9.7@: n.  ! i ].n.n.W y '.q+E+k+R j+0 0 ) 4.].o z+4.].I h o 6.6.8.n.< R ].o ' i R n.H@X.0+3 ( 6 R R K z+!   ",
"  U X @.z 1@R I D+I@9+H+J@<.u ! ].R n.X T+E X n.>@d@].o 0 2+K@,@o 4 9 L I R R X 0 a@R R ].].` 0+L 9 < X L@T+:+@.S e R R K L m # ",
"  ! n.8.M@N@R I s.B O@P@H.@.u ! ' d X I F F R n.>@j@].].i  @0 2+' c 4.z@I R i i a@0 2.'.' ' ` ` d h < ~+K+F F C.[ y n.n.L+P+!   ",
"  ! J@n.>@>@I ` 8.I 6.9 X X u u 2+0 8.X R R R : >@E+` ` ` I 2+Q@,@n ].].R I 6.,@K@0 s+h@6.0 R R R R q+k+].I M 1@/ / : : R R !   ",
"  U n.X '.'.].R F O.4.K n.n.u ! {.t.X 8.R@R@R : '.X ` R : o.d w@6.,@P+o i o ' c K@6.N+O@K@K@R H.R R W+S@I R C.6 C.C.R : ~+8.!   ",
"  ~ r+J@n.J@8.8.z 7.4.& 3.H.u T@B J v.H.}.v j+R n.8.X X >@>@n.X 6.,@6.K@2+,@].].K@K@U@2+L ,@` K.8.I A E H ].4.' ].I I R R I A.  ",
"  U < O@].R (@6 A |.o P+R R ! ^+`+x.0+t L 6.o t o o R R k+9.< ].,@Q@4.6.6.4.].j+K@,@2+2+c ' 1 V@R 8.[ J ` P+< < o o I ].].8.A.  ",
"  u K@K@,@L M M 7.T W@X@F+o ! A.#@>@4.6.].8.K@,@L 4.j+].Y@b@4.0 2+Q@].].3 ].I ].,@,@2+2+v.>.H@W R R 6.,@t ].Z@9.2+0 ~+X 8.8.^+  ",
"u ! ) ) i h b.W 5 `@< ~+Y C.~ c.c@Z+4.6.o P+,@,@K@6.i P+ #q i 4.0 ,@j+R j+j+P+i K@K@2+2+H v.d.u.n.n.6.6.o o q+q+0 n t j+X X Y.  ",
"  ! n.~+'.n.].R K@Q@K@0 .#E U ! < R 4.4.2+7 L K@6.K@K@0 ` 8.R I c 6.~+~+R o 0 0 R O@K@K@j+I 6.B@8.8.,@,@o ].].0+, , , , < R A.  ",
"  ~ n.R <.3.].I 6.6.6.,@7.4@A.A.X X i ' 2+0 & 4.6.6.K@8@].` ].R ' K@2.2.j+i 0 0 ].t 6.6.].].6.6.I I 4.z+R R R ` 9 2+2+2+].R A.  ",
"u ~ 8.X e e o I 0+` R I < R +#@#K+y I+<.2+##/.Z.G@v.K@2+0+I R I R I t+B+B@,@K@,@Q@,@9.9.K@0 L 6.6.L ~+n.R ~+R X X X n.n.I R A.  ",
"~ ! R I d.W j+R :+H R R ~+X $#@#F B >.3+0 2+:+(@v.v.0 0 ` 0+R R R I t+B+) ,@6.6.,@,@k+j.6.6.4.9 6.6.n.X R ~+%#n+v.:+R ].I H T@  ",
"u ! R R R R 0+H 8+q@>@E+8.H.-@&#4.4.R X ,@,@P+I R n.0 0 6.9 I H 0 0 ~+~+0+].` ].].I k+S+I R R R 6.L 3.k+a@##*#=#D J 6.n ].8.)+  ",
"u ! R R X X P+~.-#z.k+o.R R @#-@8@l I R 0 Q@' o I 8.2+2+K@K@I v.0 U@n.R j+].I 0+].P+s+s+R R j+].K@9 '.j.;#2+>#,#P.W 4.2+j+I c.  ",
"u U 6.2+j+].'#)#0 9 ,+E@j+].u ~ ~+].j+R K@K@v v 0+` 0 K@].].R 8.8@U@j+I ,@2+o P+K@Q@2+K@].].K@B@6.K@4.4.A@!#z@o > ~#2+2+,@6.!   ",
"u ! 6.K@j+< ;@x@L K !#}.R ].u u ~+R R R ,@,@2+##].` ,@8@R ].I 8.0 ,@].I 0 ,@0+P+,@,@,@K@P+j+,@K@6.m@w@' ~#,+P+I }.{#2+0 6.4.!   ",
"u ! ].3 8.` v ]#E@>+8@^#P+o u u 0 K@6.K@K@U@].].0 8@2+2+8@K@6.6.0 2+].R ,@Q@2+K@K@2+2+,@K@K@o V ) ' ) 6.6.6.A@v@E@/#' 3 4.z+!   ",
"  u ` I 8.I , ##4+E@6.0  @(#u u 0 0 K@K@K@2+0+].2+a@a@2+U@a@K@2+2+0 ].R K@a@U@a@2+##K@K@K@a@` H 4.' ;#;#8@9 ,+t@t@t@ @` 6.6.m   ",
"u u 4.6.4.L 0 ,@,@K@{.).y W u u 2+2+K@K@].I ].].U@U@K@2+U@0 G@:+) w@].j+1 .@8@2+Q@2+].0+,@a@j+X j+` 8@U@' & , }.n 2+8@6.K@;#m   ",
"  u ,@0 0 ,@0 L _#6.v.d+} 7.  ! 2+2+a@K@j+I ].].2+2+K@U@U@2+/.d+ @o I ].(@6 L Q@Q@a@I 3 U@2+H 1 v.8.K@8@F+p+2+:#0 0 2+2+K@;#u   ",
"  u K@2+3 F+9 4.5 k X : <#[#  u  @ @K@2+` I 0 8@2+a@ @' 2+##6.6.0 K@K@K@v.>.6.2+##2+6.K@U@##_ a+z@) 8@8@8@^#F+F+:#}#].0+6.K@m   ",
"  U 0 2+H 0+U@6.W / < |#2+Q@u u ].0+U@a@I I }#}#2+2+P+0+}###2+2+2+a@2+2+].X 6.K@Q@2+2+2+a@2+5 S 0 K@U@U@2+##P+P+:#v j+I K@;#u   ",
"  u K@U@4.m@U@8@F 1#m@2#U@2+u   _#) K@U@I I 2+U@a@a@5 S h o i i ,@U@2+2+^#m@K@U@3 q.2+2+##}#<#3#8@U@F+o U@2+`@5 4#}#K@_#K@K@m   ",
"  u K@K@K@U@a@2+N _+U@2+5#2+u u K@;#U@U@X I 8@K@U@K@y 7.H I I R K@2+2+Q@U@2+U@U@>.>.2+}#}###U@2+U@U@0+H U@2+/ N.4#}#####a@;#U   ",
"  u U@a@a@U@U@U@6#q.2+2+U@##u u _#_#;#_#' m@U@U@U@K@2 7#w@w@w@' 2+Q@##U@2+U@U@U@F+i U@U@####2+2+2+U@m@' U@2+8#{ 2+}#2+##2+;#U   ",
"  u U@;#K@;#a@a@a@a@U@##9###m.u ;#) _#;#U@}#2+a@2+K@U@a@U@##2+2+Q@Q@####2+U@U@a@K@a@U@##, ########2+K@K@############U@U@##U@m   ",
"    -@-@-@-@A@,+-@-@-@-@;@)+u   -@A@A@A@,+,+A@-@,+,+-@,+,+-@-@-@,+-@;@;@0#'#-@-@-@;@-@;@^+;@)+;@;@'#-@+#-@-@0#;@;@-@-@'#-@@#    ",
"                                                                      #                   #                                     "};
