/* XPM */
static char * wew_xpm[] = {
"64 64 537 2",
"  	c #070602",
". 	c #060602",
"+ 	c #070601",
"@ 	c #070502",
"# 	c #0E0B07",
"$ 	c #0D0A07",
"% 	c #130D08",
"& 	c #0C0A07",
"* 	c #0C0907",
"= 	c #0F0C08",
"- 	c #0F0B07",
"; 	c #19100A",
"> 	c #1A110A",
", 	c #080603",
"' 	c #170F09",
") 	c #180F09",
"! 	c #1F140A",
"~ 	c #21150A",
"{ 	c #26190B",
"] 	c #25180C",
"^ 	c #160E08",
"/ 	c #140D07",
"( 	c #180F08",
"_ 	c #191009",
": 	c #170E08",
"< 	c #1E130A",
"[ 	c #20140A",
"} 	c #190F09",
"| 	c #191109",
"1 	c #080602",
"2 	c #0F0B06",
"3 	c #150E08",
"4 	c #160F09",
"5 	c #160E09",
"6 	c #20150A",
"7 	c #20150B",
"8 	c #090703",
"9 	c #080703",
"0 	c #110C08",
"a 	c #110C07",
"b 	c #0D0B07",
"c 	c #0E0C07",
"d 	c #23160B",
"e 	c #23170B",
"f 	c #0F0B08",
"g 	c #110D09",
"h 	c #150E0A",
"i 	c #140E0A",
"j 	c #0E0A08",
"k 	c #100D0A",
"l 	c #100C09",
"m 	c #1D120B",
"n 	c #1D130C",
"o 	c #1B110B",
"p 	c #26180C",
"q 	c #26190C",
"r 	c #2B1B0D",
"s 	c #2A1B0D",
"t 	c #1D130B",
"u 	c #1E130B",
"v 	c #0E0B08",
"w 	c #1B110A",
"x 	c #1B100A",
"y 	c #23170C",
"z 	c #24180D",
"A 	c #1E130C",
"B 	c #100D09",
"C 	c #0F0C09",
"D 	c #1C120B",
"E 	c #110E09",
"F 	c #19100B",
"G 	c #18100A",
"H 	c #25180D",
"I 	c #27190D",
"J 	c #1C120C",
"K 	c #090702",
"L 	c #140D09",
"M 	c #100D08",
"N 	c #27190C",
"O 	c #28190D",
"P 	c #160F0A",
"Q 	c #170F0A",
"R 	c #2A1B0C",
"S 	c #24170D",
"T 	c #0B0803",
"U 	c #140E09",
"V 	c #3E2810",
"W 	c #3F2911",
"X 	c #180F0A",
"Y 	c #28190C",
"Z 	c #291A0C",
"` 	c #130E09",
" .	c #0E0C08",
"..	c #1F150C",
"+.	c #1F140C",
"@.	c #311F0D",
"#.	c #32200D",
"$.	c #1F130B",
"%.	c #080702",
"&.	c #120E08",
"*.	c #110E08",
"=.	c #2C1C0D",
"-.	c #34210E",
";.	c #090602",
">.	c #120E09",
",.	c #2B1B0C",
"'.	c #2D1D0C",
").	c #25170C",
"!.	c #19110B",
"~.	c #1A110B",
"{.	c #301E0C",
"].	c #301F0D",
"^.	c #120D09",
"/.	c #2B1C0E",
"(.	c #291A0E",
"_.	c #2E1D0D",
":.	c #0C0803",
"<.	c #100C08",
"[.	c #442C11",
"}.	c #452C12",
"|.	c #1E140B",
"1.	c #2C1D0D",
"2.	c #140F09",
"3.	c #21160C",
"4.	c #21150C",
"5.	c #36230E",
"6.	c #37230E",
"7.	c #20140B",
"8.	c #20150C",
"9.	c #2D1C0D",
"0.	c #130F09",
"a.	c #2F1D0C",
"b.	c #38240E",
"c.	c #3A250F",
"d.	c #1B120C",
"e.	c #2F1E0D",
"f.	c #2F1E0C",
"g.	c #291A0D",
"h.	c #0F0D08",
"i.	c #402A11",
"j.	c #402911",
"k.	c #2C1C0E",
"l.	c #0D0803",
"m.	c #100C07",
"n.	c #503415",
"o.	c #523616",
"p.	c #25190D",
"q.	c #33210E",
"r.	c #35220E",
"s.	c #23160C",
"t.	c #442C12",
"u.	c #462E12",
"v.	c #2C1C0C",
"w.	c #2D1D0D",
"x.	c #17100A",
"y.	c #301E0D",
"z.	c #3D2710",
"A.	c #3B260F",
"B.	c #33200D",
"C.	c #150E09",
"D.	c #18100B",
"E.	c #482F13",
"F.	c #493014",
"G.	c #2E1E0E",
"H.	c #2F1D0D",
"I.	c #0E0903",
"J.	c #2A1A0C",
"K.	c #573A18",
"L.	c #593C19",
"M.	c #281B0E",
"N.	c #22160C",
"O.	c #4A3013",
"P.	c #2D1D0E",
"Q.	c #412A11",
"R.	c #19110C",
"S.	c #20140C",
"T.	c #2E1E0C",
"U.	c #22150C",
"V.	c #4B3013",
"W.	c #4C3214",
"X.	c #24170C",
"Y.	c #2A1B0E",
"Z.	c #0D0904",
"`.	c #150F09",
" +	c #291A0B",
".+	c #63431D",
"++	c #65441D",
"@+	c #37230F",
"#+	c #36220D",
"$+	c #452D12",
"%+	c #1A1109",
"&+	c #0A0703",
"*+	c #33210F",
"=+	c #32200E",
"-+	c #34210D",
";+	c #1E120B",
">+	c #070501",
",+	c #27180C",
"'+	c #1C120A",
")+	c #38230E",
"!+	c #39250F",
"~+	c #140E08",
"{+	c #4C3114",
"]+	c #4E3214",
"^+	c #120F09",
"/+	c #311F0E",
"(+	c #0C0903",
"_+	c #2B1C0C",
":+	c #2A1A0B",
"<+	c #68461E",
"[+	c #6B4920",
"}+	c #39240E",
"|+	c #281A0D",
"1+	c #1B120B",
"2+	c #432C12",
"3+	c #442D11",
"4+	c #311F0C",
"5+	c #1D120A",
"6+	c #39250E",
"7+	c #0A0702",
"8+	c #1F140B",
"9+	c #3C270F",
"0+	c #3F2910",
"a+	c #181009",
"b+	c #060501",
"c+	c #492E13",
"d+	c #2C1B0C",
"e+	c #39240F",
"f+	c #2D1C0C",
"g+	c #2C1C0B",
"h+	c #66451D",
"i+	c #67461D",
"j+	c #493013",
"k+	c #472E12",
"l+	c #37230D",
"m+	c #2C1E0F",
"n+	c #2D1E0E",
"o+	c #402910",
"p+	c #1F140D",
"q+	c #3A250E",
"r+	c #3A260F",
"s+	c #452C11",
"t+	c #472D12",
"u+	c #3F2810",
"v+	c #140F0A",
"w+	c #2F1E0B",
"x+	c #63431C",
"y+	c #513415",
"z+	c #2C1B0D",
"A+	c #2B1C0D",
"B+	c #2E1D0E",
"C+	c #1C110A",
"D+	c #462D12",
"E+	c #2B1A0C",
"F+	c #20140D",
"G+	c #4D3214",
"H+	c #36230D",
"I+	c #1A100A",
"J+	c #382410",
"K+	c #3D270F",
"L+	c #34220F",
"M+	c #16100A",
"N+	c #553817",
"O+	c #563917",
"P+	c #523615",
"Q+	c #543716",
"R+	c #161009",
"S+	c #171009",
"T+	c #0B0804",
"U+	c #37240E",
"V+	c #3B2610",
"W+	c #513515",
"X+	c #4F3415",
"Y+	c #35210D",
"Z+	c #19110A",
"`+	c #482F12",
" @	c #533615",
".@	c #533616",
"+@	c #3C260E",
"@@	c #3C260F",
"#@	c #2D1C0E",
"$@	c #34200D",
"%@	c #0B0904",
"&@	c #0A0704",
"*@	c #543717",
"=@	c #513616",
"-@	c #2C1B0B",
";@	c #2E1E0D",
">@	c #33200C",
",@	c #4B3113",
"'@	c #4B3114",
")@	c #35220D",
"!@	c #3B250F",
"~@	c #503515",
"{@	c #2E1D0C",
"]@	c #33210D",
"^@	c #4E3314",
"/@	c #35210C",
"(@	c #492F13",
"_@	c #110B04",
":@	c #31200D",
"<@	c #321F0C",
"[@	c #3F280F",
"}@	c #38230D",
"|@	c #3E280F",
"1@	c #3E270F",
"2@	c #110D08",
"3@	c #25170D",
"4@	c #22150B",
"5@	c #4E3315",
"6@	c #2D1C0B",
"7@	c #21150B",
"8@	c #432C11",
"9@	c #130E08",
"0@	c #100B04",
"a@	c #3D270E",
"b@	c #26180D",
"c@	c #24170B",
"d@	c #28190B",
"e@	c #22160B",
"f@	c #4E3415",
"g@	c #3B250E",
"h@	c #1E140C",
"i@	c #392510",
"j@	c #110C04",
"k@	c #18110B",
"l@	c #141009",
"m@	c #27180B",
"n@	c #4E3414",
"o@	c #100C04",
"p@	c #2A1A0D",
"q@	c #3E2710",
"r@	c #18110A",
"s@	c #15100A",
"t@	c #22160D",
"u@	c #0F0A04",
"v@	c #37240F",
"w@	c #3B260E",
"x@	c #2D1D0B",
"y@	c #0F0B05",
"z@	c #412A10",
"A@	c #17100B",
"B@	c #4D3314",
"C@	c #150F0A",
"D@	c #1F130C",
"E@	c #100B05",
"F@	c #0C0905",
"G@	c #402A10",
"H@	c #321F0D",
"I@	c #1A120B",
"J@	c #482E12",
"K@	c #29190C",
"L@	c #2B1B0B",
"M@	c #60401B",
"N@	c #63421C",
"O@	c #0C0A06",
"P@	c #060502",
"Q@	c #36220C",
"R@	c #4A2F13",
"S@	c #482E13",
"T@	c #120C08",
"U@	c #120D08",
"V@	c #0E0A04",
"W@	c #5F401B",
"X@	c #62421B",
"Y@	c #3F2811",
"Z@	c #0E0A05",
"`@	c #442B11",
" #	c #20150D",
".#	c #1B1009",
"+#	c #412911",
"@#	c #40290F",
"##	c #1D120C",
"$#	c #0D0903",
"%#	c #1C110B",
"&#	c #65441C",
"*#	c #352210",
"=#	c #281A0C",
"-#	c #432B11",
";#	c #060601",
">#	c #412910",
",#	c #1C130B",
"'#	c #61411B",
")#	c #362310",
"!#	c #38240F",
"~#	c #26190D",
"{#	c #422B11",
"]#	c #36220E",
"^#	c #432B12",
"/#	c #412B11",
"(#	c #1B120A",
"_#	c #120D07",
":#	c #61421C",
"<#	c #322110",
"[#	c #291B0C",
"}#	c #472E13",
"|#	c #0F0D07",
"1#	c #60411B",
"2#	c #64431C",
"3#	c #0C0804",
"4#	c #4A3014",
"5#	c #4C3113",
"6#	c #503414",
"7#	c #21150D",
"8#	c #100B06",
"9#	c #0E0A06",
"0#	c #130F0A",
"a#	c #32200C",
"b#	c #4F3414",
"c#	c #0D0A05",
"d#	c #3D280F",
"e#	c #2C1D0C",
"f#	c #472F13",
"g#	c #0D0A06",
"h#	c #0C0703",
"i#	c #462E13",
"j#	c #483014",
"k#	c #110E0A",
"l#	c #34220E",
"m#	c #0E0B06",
"n#	c #0B0702",
"o#	c #2E1D0B",
"p#	c #523515",
"q#	c #35220F",
"r#	c #34210C",
"s#	c #573917",
"t#	c #3C2710",
"u#	c #593B19",
"v#	c #593B18",
"w#	c #301F0E",
"x#	c #090603",
"y#	c #5A3C19",
"z#	c #583B18",
"A#	c #100E08",
"B#	c #110F09",
"C#	c #3C2610",
"D#	c #4A3012",
"E#	c #422A10",
"F#	c #291B0D",
"G#	c #25170B",
"H#	c #110C09",
"I#	c #100B08",
"J#	c #29190B",
"K#	c #0E0904",
"L#	c #34200C",
"M#	c #2B1A0B",
"N#	c #492F12",
"O#	c #291B0E",
"P#	c #3D2810",
"Q#	c #5D3E1A",
"R#	c #5A3C18",
"S#	c #26180B",
"T#	c #25190E",
"U#	c #24160C",
"V#	c #0B0703",
"W#	c #2F1D0B",
"X#	c #5B3C18",
"Y#	c #5A3B18",
"Z#	c #36230F",
"`#	c #26190E",
" $	c #110B05",
".$	c #442D12",
"+$	c #23170D",
"@$	c #583A17",
"#$	c #432A10",
"$$	c #120C06",
"%$	c #0A0803",
"&$	c #422A11",
"*$	c #533717",
"=$	c #422B10",
"-$	c #130D06",
";$	c #0A0804",
">$	c #4A3114",
",$	c #23160D",
"'$	c #432B10",
")$	c #35210E",
"!$	c #22150D",
"~$	c #1B130B",
"{$	c #100A04",
"]$	c #120F0A",
"^$	c #150D09",
"/$	c #160E0A",
"($	c #37220D",
"_$	c #161109",
":$	c #38230F",
"<$	c #17110A",
"[$	c #21140C",
"}$	c #20130B",
"|$	c #0F0D09",
"1$	c #120C05",
"2$	c #19120B",
"3$	c #0B0805",
"4$	c #18120B",
"5$	c #140E06",
"6$	c #100E09",
"7$	c #0D0905",
"8$	c #130D07",
"9$	c #21140B",
"0$	c #3D2711",
"a$	c #2F1E0E",
"b$	c #151009",
"c$	c #120D06",
"d$	c #23150B",
"e$	c #120E0A",
"f$	c #3E2811",
"g$	c #120D05",
"h$	c #31200E",
"i$	c #130F08",
"j$	c #33200E",
"k$	c #0D0907",
"l$	c #0B0806",
"m$	c #29190D",
"n$	c #110F0A",
"o$	c #090606",
"p$	c #21160D",
"q$	c #28190E",
"r$	c #281A0E",
"s$	c #0A0806",
"t$	c #090605",
"u$	c #0A0706",
"v$	c #080605",
"w$	c #100B07",
"x$	c #0E0A07",
"y$	c #1C130C",
"z$	c #17110B",
"A$	c #0A0705",
"B$	c #090705",
"C$	c #16110A",
"D$	c #15110B",
"E$	c #130E0A",
"F$	c #1A120C",
"G$	c #090704",
"H$	c #0C0A05",
"I$	c #0C0906",
"J$	c #0B0905",
"K$	c #120C07",
"L$	c #110C06",
"                  .                                                                         .                                   ",
"          .   .     .   .                                   +     +                             +                       +   @   ",
"    # $ % % & * % % = - ; > ,   ' ) ! ~ { ] ^ / ( _ - & ^ : < [ } | # $ 1   ' _ - 2 3 3 4 5 6 7 ( ^ 8 9 0 a b c d e } _ # f 1   ",
"  + g g h i j j h h k l m n 8   o o p q r s ; ' t u g v w x y z m A B C 1   D D g E ; F ; G H I D J K 9 L % = M N O D D l k 1   ",
"    P Q R r f v H S B B s s T @ U 3 p ] V W t X Y Z `  ...+.@.#.$.+.B B %.  I I &.*.y y =.R -.-.m o ;.1 ; > >.>.,.'.).H = B 1   ",
"    !.~.{.].^.g /.(.M M _._.:.  <.<.O N [.}.|.X 1._.2. .3.4.5.6.7.8.M B %.@ =.9.` 0.I N #.a.b.c.m d.1 1 D n U ` e.f.g.s h.B 1   ",
"    G ~.i.j.G G k.k.B <._._.l.  m.m.s Z n.o.p.8.q.r.u > y s.t.u.v.r >.E %.  =.w.x.x.@.y.z.A.B.-.w !.K   A +.4 C._.f.s s M E 1   ",
"  @ D.; E.F.Q X k.=.E M G.H.I.  M M r J.K.L.M.N.5.6.8.D ).d O.O.].w.2.E 9 @ 9.P.G Q r.B.Q.Q.{.e.~.R.%.@ |.S.X 5 T.H.,.v.M g %.  ",
"    8.U.V.W.X.X.s Y.*.g e.e.Z.  `.`.,. +.+++@+B.#+6.X.y u D $+$+@.].%+G &+1 9._.o ; 5.6.*+=+B.-+;+A K >+,+g.'+w e.f.)+!+~+G 8   ",
"  >+s.s.{+]+Y g.s g.^+E /+e.(++ ; ~._+:+<+[+V }+#+#+Y |+1+; 2+3+4+].5+D 8 1 w.e.D > 6.6+,+N 5.b.7.+.7+>+R 9.8+D f.{.9+0+a+m 7+  ",
"+ b+y U.c+O.d+v.!+e+0.0.e.e.I.@ Q G f+g+h+i+j+k+)+l+J.s Z Z m+n+f.y.5+D &+1 @+!+w w o+o+Z J.6.6+S.p+;.+ ,.9.S.m 2+u.q+r+_ m &+  ",
"  . y 4.s+t+f+a.u+u+0.v+e.e.I.+ X X y.w+x+++y+n.c.b.z+A+9.w.Q 5 B+e.C+D &+, A.V C+C+D+s+E+R }+!+S.F+K   ,._.8.'+G+n.#+H+I+m K   ",
"  . u u J+!+K+A.r.L+P M+O g.T >+; ; y.{.N+O+P+Q+9+9+9.=.T.{.v.R I q R+S+T+8 U+V+_ _ W+X+d+R q.-.Z g.T   R =.+.w X+W+Y+r.1+A &+1 ",
"  + Z+; _.d+s+t.,.R x.x.3.s.T   I+; e.e.E.`+ @.@+@@@_.#@#.$@6.l+8.t ^+>.%@&@r.5.; ' *@=@-@r 9.'.#.q.:.  ,.;@u w X+W+>@-+w n 7+1 ",
"    F I+=.v.k+$+v.r G x.=.P.Z.  o ~.s R V u+,@'@6.)@9.f+-+6.!@@@8.t ` &.8 1 w.e.u 5+~@~@d+v.f+{@]@r.T   p Z t w ^@n./@)@~.m K   ",
"  . > > r '.E.(@,.z+G 4 c.!@_@  m A s.s.:@<@u+[@=.=.{.y.)@}@|@1@4.A 0.2@9   3@I N.4@5@X+6@{@'.a.r.5.(+  4.7@m D X+W+)@)@I+t ;.  ",
"    y X.e+c.$+8@N p 2.9@V+c.0@+ s.H s.y y.{.z.K+v.,.v.d+r.6.K+a@A+|+0.E ,   S b@p c@X+~@4+B.d@:+B.r.(+  u m e@c@f@~@g@9+I+~.K   ",
"    _.{@}.[.K+q+3.h@E M i@c.j@  r =.7@4.=.=.6.}+v.,.X.U.)@b.A.9+-+-.k@l@8   N.S R m@^@n@#+6.s.4.@.q.Z.1 U ` ,.v.O.f@|@0+' Q 9   ",
"  + ,.9.Q.o+q+c.w Z+0.0.i@A.o@  g.p@y N.O O 6.}+y.y.).s.q@0+q+!@-.-+r@s@8 1 8.t@e.{@(@O.]@r.s.4.@.=+u@9 0.9@,.v.E.'@A.A.^ P 1   ",
"  + J.,.B.-+)@r.2@E ~.w v@b.u@  N g.|+O o o -.)@q+w@Z N (@{+#+)@B.B.Z+M+8 1 A 8.6.l+u+|@x@e.7.8.9.w.y@%@>.U v.{@z@z@{.{.Q A@1   ",
"    g.R B.-+c.c.2@2@u u r.6.u@  p |+Y |+D o ].B.A.K+J.N B@n.b.#+@.@.Z+C@8   4.N.l+#+0+o+a.T.+.D@J.A+E@F@>.0.#.-+o+G@H@#.w I@K   ",
"    o w ]@>@J@k+- <.s K@=.f+:.  I+o g.Z D ~.p c@z.V f+L@M@N@o+9+J.g.x.C@8   R =.l+l+K+@@{@;@> ; D@3.y@O@>.>.Q.[.B.#.b.b.7.8.K   ",
"  P@w > 5.Q@R@S@T@U@g.s =.w.V@>+> o =.v.N.4.p c@V+!@f+,.W@X@Y@q+=.w.Z+M+K   Z _+}+!+@@A.{@_.~.; +.8.Z@F@^+2@Q.`@#.{.b.b.7. #K   ",
"  >+w .#+#@#~@o.w ##=.z+=.w.$#+ %#I+5.l+A.A.t ; Z J.=.d+M@&#*#{@e+w@U.S.:.  O =#-#t.@.#.f.w.x.`.+. #T 1 G 4 $+j+r Y 6+r+7. #K   ",
"+ ;#w '+>#o+X+o.5+$._.9.r _.(+  w w r.#+q+A.,#G g.s R ,.'#&#)#f.!#!@S.+.T @ ~#Y {#8@4+#.f.;@x.`.+.+.&+  x.C.D+F.v.R q+c.7. #7+  ",
";#b+w D -#-#O.(@H.'.r.]#u 8.T   > > -.r.^#/#(#G ~+_#-.5.:#&#<#[#{@{@$.D@T @ N ,+-#2+@.f.b.e+U. #0.>.K   G ' }.}#f+_+A.}+8+ #7+  ",
"  @ C+C+t.s+j+O.{@v.B.-.u +.T @ ; I+-.-+Q.Q.1+Q 2.|##.Y+1#2#<#s ].y.u m 3#  I p -#8@a.'.H+6.7@8.^+^+K @ ; G }.E.v.R c.c.$.8.&+1 ",
"    o C+@@K+B.>@6.-+K+z.u n &+  G Q ,.R E.4#8+o E M -+}+5#6#_.R N.7#+.A 8#9#I N 6+)+v.v.r+9+w./.^+0#8   x.5 $+`+).N.#.B.m ##&+  ",
"  b+C+C+@@z.a#a##+)@@@V u u &+  D.4 =.Z E.'@7.D E M -+}+^@b#9.=#+.A +.+.y@c#N N 6.b._+v.A.d#e#A+`.2.K @ x.5 t.f#] N.#.B.D A ;.  ",
";#P@> '+~#I B.<@j+J@|@o+p I T @ g M Z N u.F.~+E E *.B.}@6.@+c.c.N.+.2.C@&+9 Y =#)@)@8+u z.V ,.R > ~.g#F@8.8+{#z@X.U.X.b@I O h#  ",
"    w o H ] B.B.W.'@u+o+m@|+T   *.M Z d@i#j#U@M *.*.-+b.4+4+A.z.y +.>.k#8 @ g.Z r.l#m w 9+V ,.A+> o m#g#4.S.t.{#s.4.8.N.I |+n#  ",
"    ' X O =#f+o#*@p#@@K+t n &+  >.2@I N q.q#Z+r@C@x.r#b.v.Z c.A.v.s >.>.8 1 o D @.@.1+1+c.9+Y I &.h &@, Z+; V V ,.s 8.4.p I 7+  ",
". b+' ' g.p@,.-@s#Q+w@t#> o 8   &.E I I e.].> ; x.G r#b.=.=#c.@@f+=.>.>.8 1 Q X {.H@w > r+A.=#|+2@>.8 , x.Q 9+z.f+=.8.N.p b@h#  ",
"  @ ` ` 8.8.=.-@u#v#{.w#> ; &+1 *.E ~#b@q.q#2.0.G x.)@6+r g.{.#.-+r.4 P 8 1 X X ,+Z ~.w -.]#@.@.` 0.8 x#2.2.6.b.v.,.4.4.7.8.;.  ",
"  ;#g M +.+.w.-@y#z#{@_.; G &+1 *.A#H p -.-.0.B#G ' #+}+R Z =.v.c.C#' x.K   Q X X.b@> > q.B.-+q.U v+&@&@v+>.Y+5.9.v.S.8.J n ;.  ",
";#b+<.<.X.] #.<@W.D#,.=.U 0#x#  r@R+g.[#e d *.M N.e z@E#w.F#s Z 9+@@d N.T   C.4 X.b@U 9@).G#-+-.4 x.&+8 u 1+c.9+]#-.) G D ##8 1 ",
"b+b+H#I#H g.)@>@$+}.J#r >.>.8 @ (#> A+=.a+; *.*.g.R [.E.w.R s s @@K+,.g.K#  U `.X.b@*.C A u 5.5.' x.8   8.+.K+V q+!+U ` ####&+  ",
". ;#^.2@|+J.6.L#p#W+M#_.>.>.8 1 7 7 w.w.C.2.x.G 9._.D+N#O#7@_.{@9+K+f+A+K#  t t Y A+*.= 8+$.P#0+8+8.7+1 H ] ]#6.K+z.`.`.X.S &+1 ",
"    >.2@R ,.b.Y+Q#R#{.{.` 0#&+  S#=#_.;@0.B (#u ;@y.u.O.T#> B.B.u+u+{.e.0@  X.X.d@=.M = u 5+-#u.U#H &+1 I =#@.].K+V ' ' r s V#1 ",
"    g E r v.#.W#X#Y#H@@.` 0#8   q |+Z =#>.E 7@N.-.Z#`+O.`#o i@V+>#{#{@_. $8 b@b@d b@<.v s.c@.$u.7@4.T 1 +$y _.f+o+W > 1+r r n#1 ",
"  + M E w._.Z d@y#@$B.#.U@>.;.1 Z s A t E M d@N A.K+j+,@H > {##$[.[.e._.$$T+=#Z G ~.= v q d@E.k+D ~.%$1 4.8.r J.&${#e@U.=.=.n#1 ",
"    ` ` w._.N S#*$o.>@-.4 x.8   =#g.1+1+E M Y Y @@+@E#.$3.a+Q.=$C#A.@.@.-$;$|+g.4 x.M = g.J.O.>$m ~.&+%.N.t@g.,+j.W U.,$_.A+T 1 ",
"  P@4 5 _._.u u 2+'$H@#.n p+&+>+N g.0.>.E A#Z _+V @@H+6.t `.t#V g.=#@+5.0@  q O >.>.E h.g. +j+O.< A 7+  p |++$N.)$v@8.!$9._.T 1 ",
"  b+5 5 r p@t t Q.>#-+q.A A T   N g.2.^+E E Z J.0+A.H+H+~$2.t#V =#Y 6.6.{$@ p I ^+]$0#` s J.u.}#8++.&+1 O s H y r.!#8++.g.r T 1 ",
"  P@^$/$> ; h@$.c.($}@!+D h@T @ H ~#*.E E  .N Z z.@@6.!#_$h.!#6+Z Z ]#r.0@@ b@p M B ##m w.v.b.r+8+7#%$1 g.s =#O H+r.I+; 4.,$&+1 ",
"    ' X Z+~.8+8.:$#+#+!#o n T   z 3@` 2.E  .q Z c.}+l+b.<$M @+b.g.|+5.]#$#  X.X.M M +.u e.a.b.6+[$t@T 1 g.g.g.Y b.b.m D S.4.7+  ",
"  >+}$7.; I+v.,.r r )@6.o J T   C.Q A D@*.|$p Z F#g.5.b.r@h.A+v.p@g.)@]#1$T+k@2$E M A+p b.}+l+H+U#,$Z@3$|+F#s J.z@{#X.s.U 2.K   ",
"  >+7.S.x.; w.w.Z g.#+!#; 1+;$  C.P m h@&.M S#Y A+s 5.b.4$M w.w.Z s -+r.5$%@r@!.E 6$s p Y+#+#+]#s.,$7$;$N g.Z =#-#.$s.,$>.]$1   ",
"  + U.N.*.*.A.!@Y g.6.6.M M 8 1 Q P D A 0.A#v.w.r r _.;@M+M ].@.m w y.y.8$7$G !.B M q.4+9+V R s S.t@T+, O s S.h@0+{#X.+$>.0#8 1 ",
"  @ 9$s.^+M 0$C#g.r ]#@+2@E 8 1 P Q n A 0.6$,.f+A+,._.a$b$M y.@.u o e.y.c$7$F ~.6$M -.{.K+K+Z g.S.7#&+1 g./.S.u V Q.d$+$` 0#1   ",
"  b+S.4.v+>.z.j.e@s.=+=+E E 8 1 ^.e$u S.0.M @.)@,.,.> ' n m 6.!+u w @.@.c$%@>.>.E 2@6.#+@@9+S +$+.4.&+1 x.G `.C.=.{@4.t@0#0#1   ",
"  . +.4.0.>.Y@f$U.s.#.q.E k#8   g E +.D@0.M @.r.J.R 1+G m m @+e+u 1+].@.g$%@g >.E <.5.)@z.@@+$+$+.8.7+1 G ~.0.&.r v.[$S.0#0#1   ",
"  + I+~.E M r.]#'+t h$-.` e$,   M M A+w.2.M ,.v.e.e.<$E 8+N.#.-+1+G =.,.u@8 >.>.x.4 5.6.Y I v+0#+.4.&+1 k@1+v+v+R ,.Z s ' x.K %.",
"    ; G E *.Z#]#w D =+q.&.>.9   h.M =.=.i$M J.R _.{@s@E N.s.j$r.D G 9.w.V@1 ` ` A@Q 6.]#N I >.E ..t@&+%.!.Z+M+4 =.9.r r ; ; K 1 ",
"    G G E A#,.J.w w N O E E 9 1 B A#_+=.` 2@,+g.,$4.^+E S.t@+$S x.!.7.8+T 1 ` >.C@4 6.6.X.S k$l$4.t@c#%$+.+.E E 4.N.s s G D.K 1 ",
"    ) x.E E O I o 1+I |+6$E 1   *.A#k.k.2.U@p m$D@n >.n$4.N.4.t@M+Z++.u :.1 >.>.C@4 !#6.N.N.l$o$8.p$:.K S.+.>.M +...Z s ' G 8 %.",
"    G x.E *.q$r$; F > (#E E 9 @ 6$A#s s 2.^+Z+(#n n ^+B#4.,$8...>.>.Z+~.3#1 g E M+G !#6.U.t@s$t$k@!.T K A +.>.6$<$G Z R ` v+1 1 ",
"    !.k@E E O |+; x.P G E k#%.@ E A#F#p@2.>.2.0.D n ]$n$4.s.S.+.E M k@Z+T 1 g E x.G 6.5.U.+$u$v$x.x.&+8 A A E B M+b$s s *.E %.  ",
"    v+0#E M b@H 0.^+R+x.B k#1   M g y s.w$x$` 0.1+y$^+k#S.t@!.k@M M k@!.&+  B 6$>.` /+].(#t u$v$M+z$%$8 1+D 2@B 0.^+4.N.` ]$%.1 ",
"    E E E E H H M E A@M+g E %.  A#M 8.S.l$A$>.E I@d.>.B#+.8.0.^+6$E x.G T   E E E M _.A+) o u$B$z$A@T+8 ~.1+E g >.*.D n ^+>.8   ",
"    E ]$e$E +.h@E E v+v+E e$%.  M E ~$!.l$A$E ^+s@z$>.E ,#h@^+^+E E 0#2.8   ]$g E 6$H S ~.1+- b C$s@T+;.!.~.^+E E E 1+1+6$E 1   ",
"    E ]$]$E D$k@B#e$e$k#E$0#,   ]$e$]$k#u$u$E E E E B#E I@F$E E >.E k#k#8 1 e$g E E y$n y$J <.= A@C$F@G$k@!.]$^+E E k@~.E E 9   ",
"    T+F@c#7$m#8#g#H$g#H$g#9#1   g#g#O@I$, , J$H$F@F@H$F@8#a g#J$F@H$F@F@1   F@H$J$F@K$8$8$8$;$3$2 m#8 , 8#L$m#c#F@F@8#8#c#F@1   ",
"      @                                                       @   @                                                             "};
